# This file uses inches as units for non-parametric coordinates.

mtllib axe.mtl
g default
v 417.360040 107.872604 29.651061
v 414.482416 107.872604 29.651061
v 417.360040 109.199501 29.618924
v 414.482416 109.199501 29.618924
v 417.360040 109.199501 28.034318
v 414.482416 109.199501 28.034318
v 417.360040 107.872604 28.002181
v 414.482416 107.872604 28.002181
v 418.527033 112.454071 29.540096
v 413.315393 112.454071 29.540096
v 413.315393 112.454071 28.113145
v 418.527033 112.454071 28.113145
v 417.629511 125.041931 29.235212
v 414.212946 125.041931 29.235212
v 414.212946 125.041931 28.418029
v 417.629511 125.041931 28.418029
v 415.921198 132.122635 29.063716
v 415.921198 132.122635 28.589527
v 414.442560 -130.157623 27.972925
v 415.067529 -130.157623 27.347978
v 415.921198 -130.157623 27.119230
v 416.774896 -130.157623 27.347978
v 417.399866 -130.157623 27.972925
v 417.628595 -130.157623 28.826621
v 417.399866 -130.157623 29.680316
v 416.774896 -130.157623 30.305263
v 415.921198 -130.157623 30.534011
v 415.067529 -130.157623 30.305263
v 414.442560 -130.157623 29.680316
v 414.213831 -130.157623 28.826621
v 414.442560 93.929756 27.972925
v 415.067529 93.929756 27.347978
v 415.921198 93.929756 27.119230
v 416.774896 93.929756 27.347978
v 417.399866 93.929756 27.972925
v 417.628595 93.929756 28.826621
v 417.399866 93.929756 29.680316
v 416.774896 93.929756 30.305263
v 415.921198 93.929756 30.534011
v 415.067529 93.929756 30.305263
v 414.442560 93.929756 29.680316
v 414.213831 93.929756 28.826621
v 415.921198 93.929756 28.826621
v 415.921198 -133.280701 28.826621
v 417.191309 95.476456 29.651061
v 419.330682 99.042152 29.600194
v 422.004968 98.626122 29.536611
v 425.006036 99.874123 29.465257
v 427.086054 101.954094 29.415801
v 428.066583 104.152939 29.392488
v 434.760919 97.131897 29.233322
v 438.648615 90.604797 29.140888
v 440.503290 85.326065 29.096790
v 441.894342 72.236229 29.063716
v 436.223230 81.367020 29.198552
v 430.516534 88.108093 29.334237
v 425.701471 91.853134 29.448722
v 423.048334 91.313271 29.511802
v 421.410333 89.842430 29.550748
v 417.265222 91.614151 29.649305
v 417.191309 95.476456 28.002179
v 419.330682 99.042152 28.053047
v 421.410333 89.842430 28.102493
v 417.265222 91.614151 28.003938
v 423.048334 91.313271 28.141439
v 422.004968 98.626122 28.116632
v 425.006036 99.874123 28.187986
v 425.701471 91.853134 28.204521
v 430.516534 88.108093 28.319005
v 427.086054 101.954094 28.237439
v 428.066583 104.152939 28.260755
v 434.760919 97.131897 28.419919
v 438.648615 90.604797 28.512355
v 436.223230 81.367020 28.454688
v 440.503290 85.326065 28.556451
v 441.894342 72.236229 28.589527
v 413.481744 91.988876 29.632549
v 410.733637 87.782600 29.589494
v 404.790216 84.837868 29.496379
v 397.635675 79.615074 29.384290
v 391.482813 72.389015 29.287895
v 388.621027 66.522308 29.243057
v 387.261652 60.941803 29.221761
v 385.043756 59.296249 29.187013
v 380.321771 66.522308 29.113035
v 377.173761 77.254089 29.063716
v 378.390070 89.488319 29.082771
v 382.181940 101.865639 29.142177
v 385.902307 110.665672 29.200464
v 389.908807 116.603928 29.263234
v 396.490991 106.158348 29.366355
v 403.860101 102.294907 29.481807
v 410.943109 100.935532 29.592777
v 413.590295 95.855812 29.634248
v 414.663477 95.855812 29.651061
v 414.554926 91.988876 29.649362
v 410.943109 100.935532 28.060468
v 410.733637 87.782600 28.063749
v 404.790216 84.837868 28.156864
v 403.860101 102.294907 28.171434
v 413.590295 95.855812 28.018995
v 413.481744 91.988876 28.020694
v 414.663477 95.855812 28.002181
v 414.554926 91.988876 28.003881
v 396.490991 106.158348 28.286886
v 382.181940 101.865639 28.511064
v 385.902307 110.665672 28.452777
v 389.908807 116.603928 28.390008
v 397.635675 79.615074 28.268951
v 388.621027 66.522308 28.410184
v 380.321771 66.522308 28.540206
v 387.261652 60.941803 28.431480
v 385.043756 59.296249 28.466228
v 391.482813 72.389015 28.365348
v 377.173761 77.254089 28.589527
v 378.390070 89.488319 28.570470
v 414.129663 107.409676 27.792261
v 414.886835 107.409676 27.035056
v 415.921198 107.409676 26.757900
v 416.955530 107.409676 27.035056
v 417.712763 107.409676 27.792261
v 417.989923 107.409676 28.826621
v 417.712763 107.409676 29.860980
v 416.955530 107.409676 30.618184
v 415.921198 107.409676 30.895341
v 414.886835 107.409676 30.618184
v 414.129663 107.409676 29.860980
v 413.852533 107.409676 28.826621
v 414.129663 87.459045 27.792261
v 414.886835 89.481979 27.035056
v 415.921198 91.369980 26.757900
v 416.955530 89.482002 27.035056
v 417.712763 87.459045 27.792261
v 417.989923 86.200340 28.826621
v 417.712763 87.459045 29.860980
v 416.955530 89.482002 30.618184
v 415.921198 91.369980 30.895341
v 414.886835 89.481979 30.618184
v 414.129663 87.459045 29.860980
v 413.852533 86.200340 28.826621
v 414.628900 108.102600 28.080482
v 415.175073 108.102600 27.534269
v 415.921198 108.102600 28.826621
v 415.921198 108.102600 27.334340
v 416.667352 108.102600 27.534269
v 417.213525 108.102600 28.080482
v 417.413507 108.102600 28.826621
v 417.213525 108.102600 29.572761
v 416.667352 108.102600 30.118974
v 415.921198 108.102600 30.318900
v 415.175073 108.102600 30.118974
v 414.628900 108.102600 29.572761
v 414.428949 108.102600 28.826621
v 414.986810 107.209923 28.287116
v 415.393732 107.221222 27.913030
v 415.921198 107.221191 28.826621
v 415.921198 107.221222 27.771694
v 416.460687 107.209923 27.892194
v 416.855676 107.209923 28.287122
v 416.976129 107.221222 28.826621
v 416.855676 107.209923 29.366123
v 416.448663 107.221222 29.740217
v 415.921198 107.221222 29.881549
v 415.381647 107.209900 29.761051
v 414.986749 107.209923 29.366119
v 414.866296 107.221222 28.826621
v 415.343103 89.481979 27.825296
v 414.919916 87.459045 28.248494
v 415.339563 107.079727 27.819135
v 414.913751 107.079788 28.244945
v 415.921198 91.369980 27.670394
v 415.921198 107.079727 27.663280
v 416.499323 89.482002 27.825288
v 416.502863 107.079727 27.819135
v 416.922510 87.459045 28.248504
v 416.928705 107.079727 28.244953
v 417.077448 86.200340 28.826621
v 417.077448 107.099388 28.826621
v 416.922510 87.459045 29.404737
v 416.928705 107.079727 29.408288
v 416.499323 89.482002 29.827955
v 416.502863 107.079727 29.834108
v 415.921198 91.369980 29.982849
v 415.921198 107.079727 29.989961
v 415.343103 89.481979 29.827939
v 415.339563 107.079727 29.834104
v 414.919916 87.459045 29.404748
v 414.913751 107.079727 29.408298
v 414.765009 86.200340 28.826621
v 414.765009 107.099388 28.826621
vt 0.681855 0.647439
vt 0.681855 0.663523
vt 0.646973 0.663523
vt 0.646973 0.647439
vt 0.681855 0.663523
vt 0.681855 0.647439
vt 0.646973 0.647439
vt 0.646973 0.663523
vt 0.696001 0.702974
vt 0.632827 0.702974
vt 0.632827 0.702974
vt 0.696001 0.702974
vt 0.685121 0.855561
vt 0.643707 0.855561
vt 0.643707 0.855561
vt 0.685121 0.855561
vt 0.664414 0.941392
vt 0.664414 0.941392
vt 0.679810 0.497176
vt 0.705743 0.540398
vt 0.730952 0.428882
vt 0.680706 0.450358
vt 0.750807 0.446711
vt 0.738160 0.535355
vt 0.081889 0.060995
vt 0.081889 0.955336
vt 0.084383 0.955336
vt 0.084383 0.060995
vt 0.087790 0.955336
vt 0.087790 0.060995
vt 0.091197 0.955336
vt 0.091197 0.060995
vt 0.093692 0.955336
vt 0.093692 0.060995
vt 0.094604 0.955336
vt 0.094604 0.060995
vt 0.093692 0.955336
vt 0.093692 0.060995
vt 0.091197 0.955336
vt 0.091197 0.060995
vt 0.087790 0.955336
vt 0.087790 0.060995
vt 0.084383 0.955336
vt 0.084383 0.060995
vt 0.081889 0.955336
vt 0.081889 0.060995
vt 0.080976 0.955336
vt 0.080976 0.060995
vt 0.087790 0.955336
vt 0.087790 0.048530
vt 0.230882 0.936902
vt 0.235314 0.937025
vt 0.241059 0.937025
vt 0.241059 0.937025
vt 0.246935 0.936902
vt 0.251237 0.936902
vt 0.252549 0.937025
vt 0.251237 0.936902
vt 0.246804 0.937025
vt 0.241059 0.937025
vt 0.235183 0.936901
vt 0.230881 0.936902
vt 0.229570 0.937025
vt 0.230154 0.721789
vt 0.234763 0.743821
vt 0.234724 0.935484
vt 0.230087 0.935485
vt 0.241059 0.764384
vt 0.241059 0.935484
vt 0.247355 0.743822
vt 0.774538 0.550483
vt 0.782968 0.453255
vt 0.841335 0.407858
vt 0.799752 0.575696
vt 0.811637 0.602350
vt 0.892784 0.517243
vt 0.939910 0.438123
vt 0.910510 0.326145
vt 0.962392 0.374135
vt 0.979254 0.215463
vt 0.679810 0.497176
vt 0.680706 0.450358
vt 0.730952 0.428882
vt 0.705743 0.540398
vt 0.750807 0.446711
vt 0.782968 0.453255
vt 0.774538 0.550483
vt 0.738160 0.535355
vt 0.841335 0.407858
vt 0.892784 0.517243
vt 0.811637 0.602350
vt 0.799752 0.575696
vt 0.910510 0.326145
vt 0.939910 0.438123
vt 0.979254 0.215463
vt 0.962392 0.374135
vt 0.604071 0.563349
vt 0.601532 0.403913
vt 0.529487 0.368217
vt 0.518212 0.579827
vt 0.634843 0.454900
vt 0.636159 0.501774
vt 0.649168 0.501774
vt 0.647852 0.454900
vt 0.428885 0.626659
vt 0.255435 0.574624
vt 0.300532 0.681296
vt 0.349098 0.753278
vt 0.442761 0.304908
vt 0.232886 0.146201
vt 0.333488 0.146201
vt 0.317009 0.078555
vt 0.290125 0.058608
vt 0.194726 0.276289
vt 0.368177 0.217315
vt 0.209470 0.424589
vt 0.604071 0.563349
vt 0.518212 0.579827
vt 0.529487 0.368217
vt 0.601532 0.403913
vt 0.634843 0.454900
vt 0.647852 0.454900
vt 0.649168 0.501774
vt 0.636159 0.501774
vt 0.428885 0.626659
vt 0.349098 0.753278
vt 0.300532 0.681296
vt 0.255435 0.574624
vt 0.442761 0.304908
vt 0.232886 0.146201
vt 0.290125 0.058608
vt 0.317009 0.078555
vt 0.333488 0.146201
vt 0.194726 0.276289
vt 0.368177 0.217315
vt 0.209470 0.424589
vt 0.218529 0.708080
vt 0.218529 0.939077
vt 0.221547 0.721789
vt 0.221547 0.939077
vt 0.229793 0.743821
vt 0.229793 0.939077
vt 0.241059 0.764384
vt 0.241059 0.939077
vt 0.252324 0.743822
vt 0.252324 0.939077
vt 0.260571 0.721789
vt 0.260571 0.939077
vt 0.263590 0.708080
vt 0.263590 0.939077
vt 0.260571 0.721789
vt 0.260571 0.939077
vt 0.252324 0.743822
vt 0.252324 0.939077
vt 0.241059 0.764384
vt 0.241059 0.939077
vt 0.229793 0.743821
vt 0.229793 0.939077
vt 0.221547 0.939077
vt 0.221547 0.721789
vt 0.224806 0.946624
vt 0.226984 0.946624
vt 0.232933 0.946624
vt 0.241059 0.946624
vt 0.249186 0.946624
vt 0.255134 0.946624
vt 0.257312 0.946624
vt 0.255134 0.946624
vt 0.249186 0.946624
vt 0.241059 0.946624
vt 0.232933 0.946624
vt 0.241059 0.946624
vt 0.226984 0.946624
vt 0.228466 0.935698
vt 0.228466 0.708080
vt 0.230087 0.935484
vt 0.230154 0.721789
vt 0.234724 0.935484
vt 0.234763 0.743821
vt 0.241059 0.935484
vt 0.241059 0.764384
vt 0.247394 0.935484
vt 0.247355 0.743822
vt 0.252032 0.935484
vt 0.247394 0.935484
vt 0.251964 0.721789
vt 0.252032 0.935484
vt 0.253652 0.708080
vt 0.253652 0.935698
vt 0.251964 0.721789
vn 0.000000 0.024212 0.999707
vn 0.000000 0.024212 0.999707
vn 0.000000 0.024212 0.999707
vn 0.000000 0.024212 0.999707
vn 0.000000 0.024212 -0.999707
vn 0.000000 0.024212 -0.999707
vn 0.000000 0.024212 -0.999707
vn 0.000000 0.024212 -0.999707
vn 0.000000 -1.000000 0.000000
vn 0.000000 -1.000000 0.000000
vn 0.000000 -1.000000 0.000000
vn 0.000000 -1.000000 0.000000
vn -1.000000 0.000000 0.000000
vn -1.000000 0.000000 0.000000
vn -1.000000 0.000000 0.000000
vn -1.000000 0.000000 0.000000
vn 1.000000 -0.000007 0.000000
vn 1.000000 -0.000007 0.000000
vn 1.000000 -0.000007 0.000000
vn 1.000000 -0.000007 0.000000
vn 0.000000 0.024214 0.999707
vn 0.000000 0.024214 0.999707
vn 0.000000 0.024214 0.999707
vn 0.000000 0.024214 0.999707
vn -0.941313 -0.337534 0.000000
vn -0.941313 -0.337534 0.000000
vn -0.941313 -0.337534 0.000000
vn -0.941313 -0.337535 0.000000
vn 0.000000 0.024213 -0.999707
vn 0.000000 0.024213 -0.999707
vn 0.000000 0.024213 -0.999707
vn 0.000000 0.024213 -0.999707
vn 0.941316 -0.337525 0.000000
vn 0.941316 -0.337525 0.000000
vn 0.941316 -0.337525 0.000000
vn 0.941316 -0.337525 0.000000
vn 0.000000 0.024213 0.999707
vn 0.000000 0.024213 0.999707
vn 0.000000 0.024213 0.999707
vn 0.000000 0.024213 0.999707
vn -0.997468 0.071122 0.000000
vn -0.997468 0.071122 0.000000
vn -0.997468 0.071122 0.000000
vn -0.997468 0.071122 0.000000
vn 0.000000 0.024213 -0.999707
vn 0.000000 0.024213 -0.999707
vn 0.000000 0.024213 -0.999707
vn 0.000000 0.024213 -0.999707
vn 0.997468 0.071120 0.000000
vn 0.997468 0.071120 0.000000
vn 0.997468 0.071120 0.000000
vn 0.997468 0.071120 0.000000
vn 0.000000 0.024213 0.999707
vn 0.000000 0.024213 0.999707
vn 0.000000 0.024213 0.999707
vn -0.972110 0.234525 0.000000
vn -0.972110 0.234525 0.000000
vn -0.972110 0.234525 0.000000
vn -0.972110 0.234525 0.000000
vn 0.000000 0.024213 -0.999707
vn 0.000000 0.024213 -0.999707
vn 0.000000 0.024213 -0.999707
vn 0.972108 0.234534 0.000000
vn 0.972108 0.234534 0.000000
vn 0.972108 0.234534 0.000000
vn 0.972108 0.234534 0.000000
vn -0.707094 0.000000 -0.707120
vn -0.707094 0.000000 -0.707120
vn -0.707094 0.000000 -0.707120
vn -0.707094 0.000000 -0.707120
vn -0.258828 0.000000 -0.965923
vn -0.258828 0.000000 -0.965923
vn -0.258828 0.000000 -0.965923
vn -0.258828 0.000000 -0.965923
vn 0.258819 0.000000 -0.965926
vn 0.258819 0.000000 -0.965926
vn 0.258819 0.000000 -0.965926
vn 0.258819 0.000000 -0.965926
vn 0.707094 0.000000 -0.707120
vn 0.707094 0.000000 -0.707120
vn 0.707094 0.000000 -0.707120
vn 0.707094 0.000000 -0.707120
vn 0.965931 0.000000 -0.258800
vn 0.965931 0.000000 -0.258800
vn 0.965931 0.000000 -0.258800
vn 0.965931 0.000000 -0.258800
vn 0.965931 0.000000 0.258801
vn 0.965931 0.000000 0.258801
vn 0.965931 0.000000 0.258801
vn 0.965931 0.000000 0.258801
vn 0.707094 0.000000 0.707120
vn 0.707094 0.000000 0.707120
vn 0.707094 0.000000 0.707120
vn 0.707094 0.000000 0.707120
vn 0.258820 0.000000 0.965926
vn 0.258820 0.000000 0.965926
vn 0.258820 0.000000 0.965926
vn 0.258820 0.000000 0.965926
vn -0.258828 0.000000 0.965923
vn -0.258828 0.000000 0.965923
vn -0.258828 0.000000 0.965923
vn -0.258828 0.000000 0.965923
vn -0.707094 0.000000 0.707120
vn -0.707094 0.000000 0.707120
vn -0.707094 0.000000 0.707120
vn -0.707094 0.000000 0.707120
vn -0.965931 0.000000 0.258801
vn -0.965931 0.000000 0.258801
vn -0.965931 0.000000 0.258801
vn -0.965931 0.000000 0.258801
vn -0.965931 0.000000 -0.258800
vn -0.965931 0.000000 -0.258800
vn -0.965931 0.000000 -0.258800
vn -0.965931 0.000000 -0.258800
vn 0.000000 1.000000 0.000000
vn 0.000000 1.000000 0.000000
vn 0.000000 1.000000 0.000000
vn 0.000000 1.000000 0.000000
vn 0.000000 1.000000 0.000000
vn 0.000000 1.000000 0.000000
vn 0.000000 1.000000 0.000000
vn 0.000000 1.000000 0.000000
vn 0.000000 1.000000 0.000000
vn 0.000000 1.000000 0.000000
vn 0.000000 1.000000 0.000000
vn 0.000000 1.000000 0.000000
vn 0.000000 1.000000 0.000000
vn -0.625266 -0.466957 -0.625295
vn -0.625266 -0.466957 -0.625295
vn -0.625266 -0.466957 -0.625295
vn -0.228877 -0.466963 -0.854143
vn -0.228877 -0.466963 -0.854143
vn -0.228877 -0.466963 -0.854143
vn 0.228868 -0.466966 -0.854144
vn 0.228868 -0.466966 -0.854144
vn 0.228868 -0.466966 -0.854144
vn 0.625265 -0.466966 -0.625289
vn 0.625265 -0.466966 -0.625289
vn 0.625265 -0.466966 -0.625289
vn 0.854150 -0.466965 -0.228848
vn 0.854150 -0.466965 -0.228848
vn 0.854150 -0.466965 -0.228848
vn 0.854149 -0.466966 0.228849
vn 0.854149 -0.466966 0.228849
vn 0.854149 -0.466966 0.228849
vn 0.625266 -0.466966 0.625288
vn 0.625266 -0.466966 0.625288
vn 0.625266 -0.466966 0.625288
vn 0.228868 -0.466962 0.854146
vn 0.228868 -0.466962 0.854146
vn 0.228868 -0.466962 0.854146
vn -0.228876 -0.466964 0.854143
vn -0.228876 -0.466964 0.854143
vn -0.228876 -0.466964 0.854143
vn -0.625267 -0.466957 0.625294
vn -0.625267 -0.466957 0.625294
vn -0.625267 -0.466957 0.625294
vn -0.854151 -0.466962 0.228849
vn -0.854151 -0.466962 0.228849
vn -0.854151 -0.466962 0.228849
vn -0.854152 -0.466961 -0.228849
vn -0.854152 -0.466961 -0.228849
vn -0.854152 -0.466961 -0.228849
vn 0.023769 -0.000000 -0.999717
vn 0.023770 0.000000 -0.999717
vn 0.023770 0.000000 -0.999717
vn 0.023769 -0.000000 -0.999718
vn 0.023770 0.000000 -0.999718
vn 0.023770 0.000000 -0.999717
vn 0.023769 -0.000000 -0.999717
vn 0.023769 -0.000000 -0.999718
vn 0.023770 -0.000000 -0.999717
vn 0.023770 0.000000 -0.999717
vn 0.023770 0.000000 -0.999718
vn 0.023770 -0.000000 -0.999717
vn 0.023769 -0.000000 -0.999717
vn 0.023769 -0.000000 -0.999717
vn 0.023769 -0.000000 -0.999718
vn 0.023769 -0.000000 -0.999718
vn 0.023770 0.000000 0.999717
vn 0.023770 0.000000 0.999718
vn 0.023770 0.000000 0.999718
vn 0.023770 -0.000000 0.999718
vn 0.023769 -0.000000 0.999717
vn 0.023770 -0.000000 0.999717
vn 0.023770 -0.000000 0.999718
vn 0.023769 -0.000000 0.999717
vn 0.023770 -0.000000 0.999717
vn 0.023770 -0.000000 0.999718
vn 0.023770 0.000000 0.999718
vn 0.023770 0.000000 0.999718
vn 0.023769 -0.000000 0.999717
vn 0.023769 -0.000000 0.999717
vn 0.023769 -0.000000 0.999718
vn 0.023769 -0.000000 0.999718
vn -0.857498 0.514488 0.000000
vn -0.857498 0.514488 0.000000
vn -0.857498 0.514488 0.000000
vn -0.857498 0.514488 0.000000
vn -0.393028 -0.919527 0.000000
vn -0.393028 -0.919527 0.000000
vn -0.393028 -0.919527 0.000000
vn -0.393028 -0.919527 0.000000
vn -0.999817 -0.019134 0.000000
vn -0.999817 -0.019134 0.000000
vn -0.999817 -0.019134 0.000000
vn -0.999817 -0.019134 0.000000
vn -0.383974 0.923344 0.000000
vn -0.383974 0.923344 0.000000
vn -0.383974 0.923344 0.000000
vn -0.383974 0.923344 0.000000
vn 0.199396 -0.979919 0.000000
vn 0.199396 -0.979919 0.000000
vn 0.199396 -0.979919 0.000000
vn 0.199396 -0.979919 0.000000
vn 0.153718 0.988115 0.000000
vn 0.153718 0.988115 0.000000
vn 0.153718 0.988115 0.000000
vn 0.153718 0.988115 0.000000
vn 0.668120 -0.744054 0.000000
vn 0.668120 -0.744054 0.000000
vn 0.668120 -0.744054 0.000000
vn 0.668120 -0.744054 0.000000
vn -0.913308 0.407269 0.000000
vn -0.913308 0.407269 0.000000
vn -0.913308 0.407269 0.000000
vn -0.913308 0.407269 0.000000
vn 0.723745 0.690068 0.000000
vn 0.723745 0.690068 0.000000
vn 0.723745 0.690068 0.000000
vn 0.723745 0.690068 0.000000
vn -0.707099 0.707114 0.000000
vn -0.707099 0.707114 0.000000
vn -0.707099 0.707114 0.000000
vn -0.707099 0.707114 0.000000
vn -0.613939 -0.789353 0.000000
vn -0.613939 -0.789353 0.000000
vn -0.613939 -0.789353 0.000000
vn -0.613939 -0.789353 0.000000
vn 0.859147 0.511729 0.000000
vn 0.859147 0.511729 0.000000
vn 0.859147 0.511729 0.000000
vn 0.859147 0.511729 0.000000
vn -0.763235 -0.646121 0.000000
vn -0.763235 -0.646121 0.000000
vn -0.763235 -0.646121 0.000000
vn -0.763235 -0.646121 0.000000
vn 0.943461 0.331484 0.000000
vn 0.943461 0.331484 0.000000
vn 0.943461 0.331484 0.000000
vn 0.943461 0.331484 0.000000
vn 0.994401 0.105675 0.000000
vn 0.994401 0.105675 0.000000
vn 0.994401 0.105675 0.000000
vn 0.994401 0.105675 0.000000
vn -0.849485 -0.527613 0.000000
vn -0.849485 -0.527613 0.000000
vn -0.849485 -0.527613 0.000000
vn -0.849485 -0.527613 0.000000
vn -0.015665 -0.000000 -0.999877
vn -0.015665 -0.000000 -0.999877
vn -0.015665 -0.000000 -0.999877
vn -0.015665 -0.000000 -0.999877
vn -0.015665 0.000000 -0.999877
vn -0.015665 0.000000 -0.999877
vn -0.015665 0.000000 -0.999877
vn -0.015665 0.000000 -0.999877
vn -0.015665 0.000000 -0.999877
vn -0.015665 0.000000 -0.999877
vn -0.015665 0.000000 -0.999877
vn -0.015665 0.000000 -0.999877
vn -0.015665 0.000000 -0.999877
vn -0.015665 0.000000 -0.999877
vn -0.015665 -0.000000 -0.999877
vn -0.015665 0.000000 -0.999877
vn -0.015665 0.000000 -0.999877
vn -0.015665 0.000000 -0.999877
vn -0.015665 0.000000 -0.999877
vn -0.015665 -0.000000 -0.999877
vn -0.015665 -0.000000 -0.999877
vn -0.015665 0.000000 -0.999877
vn -0.015665 -0.000000 0.999877
vn -0.015665 0.000000 0.999877
vn -0.015665 0.000000 0.999877
vn -0.015665 -0.000000 0.999877
vn -0.015665 0.000000 0.999877
vn -0.015665 0.000000 0.999877
vn -0.015665 0.000000 0.999877
vn -0.015665 0.000000 0.999877
vn -0.015665 0.000000 0.999877
vn -0.015665 0.000000 0.999877
vn -0.015665 0.000000 0.999877
vn -0.015665 -0.000000 0.999877
vn -0.015665 -0.000000 0.999877
vn -0.015665 0.000000 0.999877
vn -0.015665 0.000000 0.999877
vn -0.015665 -0.000000 0.999877
vn -0.015665 0.000000 0.999877
vn -0.015665 0.000000 0.999877
vn -0.015665 -0.000000 0.999877
vn -0.015665 0.000000 0.999877
vn -0.015665 0.000000 0.999877
vn -0.015665 0.000000 0.999877
vn 0.443957 -0.896048 0.000000
vn 0.443957 -0.896048 0.000000
vn 0.443957 -0.896048 0.000000
vn 0.443957 -0.896048 0.000000
vn 0.188481 0.982077 0.000000
vn 0.188481 0.982077 0.000000
vn 0.188481 0.982077 0.000000
vn 0.188481 0.982077 0.000000
vn 0.000000 1.000000 0.000000
vn 0.000000 1.000000 0.000000
vn 0.000000 1.000000 0.000000
vn 0.000000 1.000000 0.000000
vn 0.999606 -0.028063 0.000000
vn 0.999606 -0.028063 0.000000
vn 0.999606 -0.028063 0.000000
vn 0.999606 -0.028063 0.000000
vn 0.000000 -1.000000 0.000000
vn 0.000000 -1.000000 0.000000
vn 0.000000 -1.000000 0.000000
vn 0.000000 -1.000000 0.000000
vn 0.837165 -0.546950 0.000000
vn 0.837165 -0.546950 0.000000
vn 0.837165 -0.546950 0.000000
vn 0.837165 -0.546950 0.000000
vn 0.886807 0.462140 0.000000
vn 0.886807 0.462140 0.000000
vn 0.886807 0.462140 0.000000
vn 0.886807 0.462140 0.000000
vn -0.921069 0.389399 0.000000
vn -0.921069 0.389399 0.000000
vn -0.921069 0.389399 0.000000
vn -0.921069 0.389399 0.000000
vn -0.828967 0.559298 0.000000
vn -0.828967 0.559298 0.000000
vn -0.828967 0.559298 0.000000
vn -0.828967 0.559298 0.000000
vn 0.846038 0.533123 0.000000
vn 0.846038 0.533123 0.000000
vn 0.846038 0.533123 0.000000
vn 0.846038 0.533123 0.000000
vn 0.589610 -0.807688 0.000000
vn 0.589610 -0.807688 0.000000
vn 0.589610 -0.807688 0.000000
vn 0.589610 -0.807688 0.000000
vn 0.464331 0.885662 0.000000
vn 0.464331 0.885662 0.000000
vn 0.464331 0.885662 0.000000
vn 0.464331 0.885662 0.000000
vn 0.971590 -0.236672 0.000000
vn 0.971590 -0.236672 0.000000
vn 0.971590 -0.236672 0.000000
vn 0.971590 -0.236672 0.000000
vn 0.595851 -0.803095 0.000000
vn 0.595851 -0.803095 0.000000
vn 0.595851 -0.803095 0.000000
vn 0.595851 -0.803095 0.000000
vn -0.837115 -0.547026 0.000000
vn -0.837115 -0.547026 0.000000
vn -0.837115 -0.547026 0.000000
vn -0.837115 -0.547026 0.000000
vn 0.898770 -0.438421 0.000000
vn 0.898770 -0.438421 0.000000
vn 0.898770 -0.438421 0.000000
vn 0.898770 -0.438421 0.000000
vn -0.959568 -0.281475 0.000000
vn -0.959568 -0.281475 0.000000
vn -0.959568 -0.281475 0.000000
vn -0.959569 -0.281475 0.000000
vn 0.761382 -0.648304 0.000000
vn 0.761382 -0.648304 0.000000
vn 0.761382 -0.648304 0.000000
vn 0.761382 -0.648304 0.000000
vn -0.995094 0.098931 0.000000
vn -0.995094 0.098931 0.000000
vn -0.995094 0.098931 0.000000
vn -0.995094 0.098931 0.000000
vn -0.956137 0.292919 0.000000
vn -0.956137 0.292919 0.000000
vn -0.956137 0.292919 0.000000
vn -0.956137 0.292919 0.000000
vn 0.009045 -0.999946 0.005214
vn 0.009300 -0.999942 -0.005410
vn 0.000002 -1.000000 -0.000003
vn -0.010756 -0.999942 -0.000034
vn -0.014105 -0.999893 0.003920
vn -0.003914 -0.999893 0.014118
vn 0.000029 -1.000000 -0.000000
vn -0.009044 -0.999946 -0.005228
vn -0.009300 -0.999942 0.005397
vn 0.010777 -0.999942 0.000027
vn 0.014115 -0.999893 -0.003940
vn 0.003903 -0.999893 -0.014119
vn -0.000029 -1.000000 0.000013
vn 0.706671 0.000369 0.707542
vn 0.706671 0.000369 0.707542
vn 0.706671 0.000369 0.707542
vn 0.706671 0.000369 0.707542
vn 0.258199 0.000413 0.966092
vn 0.258199 0.000413 0.966092
vn 0.258199 0.000413 0.966092
vn 0.258199 0.000413 0.966092
vn -0.258181 0.000412 0.966097
vn -0.258181 0.000412 0.966097
vn -0.258181 0.000412 0.966097
vn -0.258181 0.000412 0.966097
vn -0.706668 0.000370 0.707545
vn -0.706668 0.000370 0.707545
vn -0.706668 0.000370 0.707545
vn -0.706668 0.000370 0.707545
vn -0.967343 0.000170 0.253472
vn -0.967343 0.000170 0.253472
vn -0.967343 0.000170 0.253472
vn -0.967343 0.000170 0.253472
vn -0.967342 0.000170 -0.253473
vn -0.967342 0.000170 -0.253473
vn -0.967342 0.000170 -0.253473
vn -0.967342 0.000170 -0.253473
vn -0.706670 0.000369 -0.707543
vn -0.706670 0.000369 -0.707543
vn -0.706670 0.000369 -0.707543
vn -0.706670 0.000369 -0.707543
vn -0.258179 0.000412 -0.966097
vn -0.258179 0.000412 -0.966097
vn -0.258179 0.000412 -0.966097
vn -0.258179 0.000412 -0.966097
vn 0.258206 0.000413 -0.966090
vn 0.258206 0.000413 -0.966090
vn 0.258206 0.000413 -0.966090
vn 0.258206 0.000413 -0.966090
vn 0.706666 0.000369 -0.707547
vn 0.706666 0.000369 -0.707547
vn 0.706666 0.000369 -0.707547
vn 0.706666 0.000369 -0.707547
vn 0.967350 0.000170 -0.253444
vn 0.967350 0.000170 -0.253444
vn 0.967350 0.000170 -0.253444
vn 0.967350 0.000170 -0.253444
vn 0.967350 0.000170 0.253444
vn 0.967350 0.000170 0.253444
vn 0.967350 0.000170 0.253444
vn 0.967350 0.000170 0.253444
vn 0.575293 -0.565504 0.590967
vn 0.575293 -0.565504 0.590967
vn 0.575293 -0.565504 0.590968
vn 0.575293 -0.565504 0.590967
vn 0.208045 -0.594877 0.776426
vn 0.208046 -0.594877 0.776426
vn 0.208046 -0.594877 0.776426
vn 0.208046 -0.594877 0.776426
vn -0.202756 -0.565457 0.799468
vn -0.202756 -0.565457 0.799468
vn -0.202756 -0.565457 0.799467
vn -0.202756 -0.565457 0.799467
vn -0.599395 -0.530478 0.599432
vn -0.599395 -0.530478 0.599432
vn -0.599395 -0.530478 0.599432
vn -0.599395 -0.530478 0.599432
vn -0.788469 -0.579788 0.205333
vn -0.788469 -0.579788 0.205333
vn -0.788469 -0.579788 0.205333
vn -0.788469 -0.579788 0.205333
vn -0.788474 -0.579781 -0.205334
vn -0.788474 -0.579781 -0.205334
vn -0.788474 -0.579781 -0.205334
vn -0.788474 -0.579781 -0.205334
vn -0.575333 -0.565376 -0.591052
vn -0.575333 -0.565376 -0.591052
vn -0.575333 -0.565376 -0.591052
vn -0.575333 -0.565376 -0.591052
vn -0.208038 -0.594886 -0.776422
vn -0.208038 -0.594886 -0.776422
vn -0.208038 -0.594886 -0.776422
vn -0.208038 -0.594886 -0.776422
vn 0.202766 -0.565421 -0.799490
vn 0.202766 -0.565421 -0.799490
vn 0.202766 -0.565421 -0.799490
vn 0.202766 -0.565421 -0.799490
vn 0.599501 -0.530286 -0.599496
vn 0.599501 -0.530286 -0.599496
vn 0.599501 -0.530286 -0.599496
vn 0.599501 -0.530286 -0.599496
vn 0.788543 -0.579682 -0.205351
vn 0.788543 -0.579682 -0.205351
vn 0.788543 -0.579682 -0.205351
vn 0.788543 -0.579682 -0.205351
vn 0.788390 -0.579891 0.205347
vn 0.788390 -0.579891 0.205347
vn 0.788390 -0.579891 0.205347
vn 0.788390 -0.579891 0.205347
vn 0.000000 1.000000 0.000000
vn 0.000000 1.000000 0.000000
vn 0.000000 1.000000 0.000007
vn 0.000000 1.000000 0.000000
vn 0.000000 1.000000 -0.000007
vn 0.000000 1.000000 0.000002
vn 0.000000 1.000000 0.000000
vn 0.000000 1.000000 -0.000002
vn 0.000000 1.000000 0.000007
vn 0.000000 1.000000 0.000000
vn 0.000000 1.000000 -0.000007
vn 0.000000 1.000000 -0.000000
vn 0.000000 1.000000 0.000000
vn -0.707122 0.000000 -0.707092
vn -0.707122 0.000000 -0.707092
vn -0.707122 0.000000 -0.707092
vn -0.707122 0.000000 -0.707092
vn -0.258819 0.000000 -0.965926
vn -0.258819 0.000000 -0.965926
vn -0.258819 0.000000 -0.965926
vn -0.258819 0.000000 -0.965926
vn 0.258826 0.000000 -0.965924
vn 0.258826 0.000000 -0.965924
vn 0.258826 0.000000 -0.965924
vn 0.258826 0.000000 -0.965924
vn 0.707093 0.000000 -0.707120
vn 0.707093 0.000000 -0.707120
vn 0.707093 0.000000 -0.707120
vn 0.707093 0.000000 -0.707120
vn 0.965925 0.000000 -0.258823
vn 0.965925 0.000000 -0.258823
vn 0.965925 0.000000 -0.258823
vn 0.965925 0.000000 -0.258823
vn 0.965925 0.000000 0.258823
vn 0.965925 0.000000 0.258823
vn 0.965925 0.000000 0.258823
vn 0.965925 0.000000 0.258823
vn 0.707093 0.000000 0.707120
vn 0.707093 0.000000 0.707120
vn 0.707093 0.000000 0.707120
vn 0.707093 0.000000 0.707120
vn 0.258826 0.000000 0.965924
vn 0.258826 0.000000 0.965924
vn 0.258826 0.000000 0.965924
vn 0.258826 0.000000 0.965924
vn -0.258819 0.000000 0.965926
vn -0.258819 0.000000 0.965926
vn -0.258819 0.000000 0.965926
vn -0.258819 0.000000 0.965926
vn -0.707122 0.000000 0.707092
vn -0.707122 0.000000 0.707092
vn -0.707122 0.000000 0.707092
vn -0.707122 0.000000 0.707092
vn -0.965932 0.000000 0.258797
vn -0.965932 0.000000 0.258797
vn -0.965932 0.000000 0.258797
vn -0.965932 0.000000 0.258797
vn -0.965932 0.000000 -0.258796
vn -0.965932 0.000000 -0.258796
vn -0.965932 0.000000 -0.258796
vn -0.965932 0.000000 -0.258796
vn -0.551211 0.626390 -0.551182
vn -0.551211 0.626390 -0.551182
vn -0.551211 0.626390 -0.551182
vn -0.551211 0.626390 -0.551182
vn -0.201755 0.626381 -0.752955
vn -0.201755 0.626381 -0.752955
vn -0.201755 0.626381 -0.752955
vn -0.201755 0.626381 -0.752955
vn 0.201757 0.626381 -0.752955
vn 0.201757 0.626381 -0.752955
vn 0.201757 0.626381 -0.752955
vn 0.201757 0.626381 -0.752955
vn 0.551206 0.626375 -0.551205
vn 0.551206 0.626375 -0.551205
vn 0.551206 0.626375 -0.551205
vn 0.551206 0.626375 -0.551205
vn 0.752948 0.626383 -0.201777
vn 0.752948 0.626383 -0.201777
vn 0.752948 0.626383 -0.201777
vn 0.752948 0.626383 -0.201777
vn 0.752948 0.626383 0.201777
vn 0.752948 0.626383 0.201777
vn 0.752948 0.626383 0.201777
vn 0.752948 0.626383 0.201777
vn 0.551207 0.626372 0.551206
vn 0.551207 0.626372 0.551206
vn 0.551207 0.626372 0.551206
vn 0.551207 0.626372 0.551206
vn 0.201757 0.626380 0.752956
vn 0.201757 0.626380 0.752956
vn 0.201757 0.626380 0.752956
vn 0.201757 0.626380 0.752956
vn -0.201754 0.626381 0.752955
vn -0.201754 0.626381 0.752955
vn -0.201754 0.626381 0.752955
vn -0.201754 0.626381 0.752955
vn -0.551213 0.626387 0.551184
vn -0.551213 0.626387 0.551184
vn -0.551213 0.626387 0.551184
vn -0.551213 0.626387 0.551184
vn -0.752956 0.626381 0.201753
vn -0.752956 0.626381 0.201753
vn -0.752956 0.626381 0.201753
vn -0.752956 0.626381 0.201753
vn -0.752957 0.626381 -0.201749
vn -0.752957 0.626381 -0.201749
vn -0.752957 0.626381 -0.201749
vn -0.752957 0.626381 -0.201749
vn 0.492957 -0.463761 -0.736151
vn 0.787593 -0.404144 -0.465151
vn 0.788043 -0.404191 -0.464346
vn 0.487033 -0.466291 -0.738493
vn 0.883443 -0.404337 -0.236729
vn 0.883443 -0.404337 -0.236729
vn -0.883445 -0.404349 -0.236700
vn -0.787604 -0.404154 -0.465123
vn -0.788052 -0.404201 -0.464324
vn -0.883445 -0.404349 -0.236700
vn -0.492967 -0.463769 -0.736140
vn -0.487046 -0.466297 -0.738481
vn -0.215702 -0.552659 -0.805009
vn -0.215702 -0.552659 -0.805009
vn -0.215702 -0.552655 0.805013
vn -0.492966 -0.463767 0.736142
vn -0.487045 -0.466295 0.738482
vn -0.215702 -0.552655 0.805013
vn -0.787604 -0.404153 0.465125
vn -0.788051 -0.404200 0.464325
vn -0.883446 -0.404346 0.236701
vn -0.883446 -0.404346 0.236701
vn 0.883440 -0.404343 0.236728
vn 0.787593 -0.404146 0.465149
vn 0.788043 -0.404193 0.464345
vn 0.883440 -0.404343 0.236728
vn 0.492958 -0.463761 0.736151
vn 0.487034 -0.466290 0.738492
vn 0.215696 -0.552658 0.805012
vn 0.215696 -0.552658 0.805012
vn 0.215697 -0.552657 -0.805012
vn 0.215697 -0.552657 -0.805012
s off
g axe_model
usemtl lambert4SG
f 1/1/1 3/2/2 4/3/3 2/4/4
f 5/5/5 7/6/6 8/7/7 6/8/8
f 7/6/9 1/1/10 2/4/11 8/7/12
f 2/4/13 4/3/14 6/8/15 8/7/16
f 7/6/17 5/5/18 3/2/19 1/1/20
f 3/2/21 9/9/22 10/10/23 4/3/24
f 4/3/25 10/10/26 11/11/27 6/8/28
f 6/8/29 11/11/30 12/12/31 5/5/32
f 5/5/33 12/12/34 9/9/35 3/2/36
f 9/9/37 13/13/38 14/14/39 10/10/40
f 10/10/41 14/14/42 15/15/43 11/11/44
f 11/11/45 15/15/46 16/16/47 12/12/48
f 12/12/49 16/16/50 13/13/51 9/9/52
f 13/13/53 17/17/54 14/14/55
f 14/14/56 17/17/57 18/18/58 15/15/59
f 15/15/60 18/18/61 16/16/62
f 16/16/63 18/18/64 17/17/65 13/13/66
f 19/25/67 31/26/68 32/27/69 20/28/70
f 20/28/71 32/27/72 33/29/73 21/30/74
f 21/30/75 33/29/76 34/31/77 22/32/78
f 22/32/79 34/31/80 35/33/81 23/34/82
f 23/34/83 35/33/84 36/35/85 24/36/86
f 24/36/87 36/35/88 37/37/89 25/38/90
f 25/38/91 37/37/92 38/39/93 26/40/94
f 26/40/95 38/39/96 39/41/97 27/42/98
f 27/42/99 39/41/100 40/43/101 28/44/102
f 28/44/103 40/43/104 41/45/105 29/46/106
f 29/46/107 41/45/108 42/47/109 30/48/110
f 30/48/111 42/47/112 31/26/113 19/25/114
s 1
f 31/26/115 43/49/116 32/27/117
f 32/27/117 43/49/116 33/29/118
f 33/29/118 43/49/116 34/31/119
f 34/31/119 43/49/116 35/33/120
f 35/33/120 43/49/116 36/35/121
f 36/35/121 43/49/116 37/37/122
f 37/37/122 43/49/116 38/39/123
f 38/39/123 43/49/116 39/41/124
f 39/41/124 43/49/116 40/43/125
f 40/43/125 43/49/116 41/45/126
f 41/45/126 43/49/116 42/47/127
f 42/47/127 43/49/116 31/26/115
s off
f 20/28/128 44/50/129 19/25/130
f 21/30/131 44/50/132 20/28/133
f 22/32/134 44/50/135 21/30/136
f 23/34/137 44/50/138 22/32/139
f 24/36/140 44/50/141 23/34/142
f 25/38/143 44/50/144 24/36/145
f 26/40/146 44/50/147 25/38/148
f 27/42/149 44/50/150 26/40/151
f 28/44/152 44/50/153 27/42/154
f 29/46/155 44/50/156 28/44/157
f 30/48/158 44/50/159 29/46/160
f 19/25/161 44/50/162 30/48/163
s 2
f 61/19/164 62/20/165 63/21/166 64/22/167
f 65/23/168 66/24/169 67/71/170 68/72/171
f 63/21/166 62/20/165 66/24/169 65/23/168
f 69/73/172 70/74/173 71/75/174 72/76/175
f 68/72/171 67/71/170 70/74/173 69/73/172
f 69/73/172 72/76/175 73/77/176 74/78/177
f 74/78/177 73/77/176 75/79/178 76/80/179
s 3
f 45/81/180 60/82/181 59/83/182 46/84/183
f 58/85/184 57/86/185 48/87/186 47/88/187
f 59/83/182 58/85/184 47/88/187 46/84/183
f 56/89/188 51/90/189 50/91/190 49/92/191
f 57/86/185 56/89/188 49/92/191 48/87/186
f 56/89/188 55/93/192 52/94/193 51/90/189
f 55/93/192 54/95/194 53/96/195 52/94/193
s off
f 45/81/196 46/84/197 62/20/198 61/19/199
f 59/83/200 60/82/201 64/22/202 63/21/203
f 60/82/204 45/81/205 61/19/206 64/22/207
f 47/88/208 48/87/209 67/71/210 66/24/211
f 57/86/212 58/85/213 65/23/214 68/72/215
f 46/84/216 47/88/217 66/24/218 62/20/219
f 58/85/220 59/83/221 63/21/222 65/23/223
f 49/92/224 50/91/225 71/75/226 70/74/227
f 50/91/228 51/90/229 72/76/230 71/75/231
f 48/87/232 49/92/233 70/74/234 67/71/235
f 56/89/236 57/86/237 68/72/238 69/73/239
f 51/90/240 52/94/241 73/77/242 72/76/243
f 55/93/244 56/89/245 69/73/246 74/78/247
f 52/94/248 53/96/249 75/79/250 73/77/251
f 53/96/252 54/95/253 76/80/254 75/79/255
f 54/95/256 55/93/257 74/78/258 76/80/259
s 6
f 97/97/260 98/98/261 99/99/262 100/100/263
s off
f 102/101/264 101/102/265 103/103/266 104/104/267
s 6
f 102/101/268 98/98/261 97/97/260 101/102/269
f 105/105/270 106/106/271 107/107/272 108/108/273
f 100/100/263 99/99/262 109/109/274 105/105/270
f 111/110/275 110/111/276 112/112/277 113/113/278
f 115/114/279 114/115/280 110/111/276 111/110/275
f 116/116/281 109/109/274 114/115/280 115/114/279
f 105/105/270 109/109/274 116/116/281 106/106/271
s 9
f 93/117/282 92/118/283 79/119/284 78/120/285
s off
f 77/121/286 96/122/287 95/123/288 94/124/289
s 9
f 77/121/290 94/124/291 93/117/282 78/120/285
f 91/125/292 90/126/293 89/127/294 88/128/295
f 92/118/283 91/125/292 80/129/296 79/119/284
f 85/130/297 84/131/298 83/132/299 82/133/300
f 86/134/301 85/130/297 82/133/300 81/135/302
f 87/136/303 86/134/301 81/135/302 80/129/296
f 91/125/292 88/128/295 87/136/303 80/129/296
s off
f 78/120/304 79/119/305 99/99/306 98/98/307
f 92/118/308 93/117/309 97/97/310 100/100/311
f 94/124/312 95/123/313 103/103/314 101/102/315
f 95/123/316 96/122/317 104/104/318 103/103/319
f 96/122/320 77/121/321 102/101/322 104/104/323
f 77/121/324 78/120/325 98/98/326 102/101/327
f 93/117/328 94/124/329 101/102/330 97/97/331
f 88/128/332 89/127/333 107/107/334 106/106/335
f 89/127/336 90/126/337 108/108/338 107/107/339
f 90/126/340 91/125/341 105/105/342 108/108/343
f 79/119/344 80/129/345 109/109/346 99/99/347
f 91/125/348 92/118/349 100/100/350 105/105/351
f 82/133/352 83/132/353 112/112/354 110/111/355
f 83/132/356 84/131/357 113/113/358 112/112/359
f 84/131/360 85/130/361 111/110/362 113/113/363
f 81/135/364 82/133/365 110/111/366 114/115/367
f 85/130/368 86/134/369 115/114/370 111/110/371
f 80/129/372 81/135/373 114/115/374 109/109/375
f 86/134/376 87/136/377 116/116/378 115/114/379
f 87/136/380 88/128/381 106/106/382 116/116/383
s 12
f 154/51/384 155/52/385 156/53/386
f 155/52/385 157/54/387 156/53/386
f 157/54/387 158/55/388 156/53/386
f 158/55/388 159/56/389 156/53/386
f 159/56/389 160/57/390 156/53/386
f 160/57/390 161/58/391 156/53/386
f 161/58/391 162/59/392 156/53/386
f 162/59/392 163/60/393 156/53/386
f 163/60/393 164/61/394 156/53/386
f 164/61/394 165/62/395 156/53/386
f 165/62/395 166/63/396 156/53/386
f 166/63/396 154/51/384 156/53/386
s off
f 168/64/397 167/65/398 169/66/399 170/67/400
f 167/65/401 171/68/402 172/69/403 169/66/404
f 171/68/405 173/70/406 174/185/407 172/69/408
f 173/70/409 175/186/410 176/187/411 174/185/412
f 175/186/413 177/188/414 178/189/415 176/187/416
f 177/188/417 179/190/418 180/184/419 178/189/420
f 179/190/421 181/183/422 182/182/423 180/184/424
f 181/183/425 183/181/426 184/180/427 182/182/428
f 183/181/429 185/179/430 186/178/431 184/180/432
f 185/179/433 187/177/434 188/176/435 186/178/436
f 187/177/437 189/175/438 190/174/439 188/176/440
f 189/175/441 168/64/442 170/67/443 190/174/444
f 170/67/445 169/66/446 155/52/447 154/51/448
f 169/66/449 172/69/450 157/54/451 155/52/452
f 172/69/453 174/185/454 158/55/455 157/54/456
f 174/185/457 176/187/458 159/56/459 158/55/460
f 176/187/461 178/189/462 160/57/463 159/56/464
f 178/189/465 180/184/466 161/58/467 160/57/468
f 180/184/469 182/182/470 162/59/471 161/58/472
f 182/182/473 184/180/474 163/60/475 162/59/476
f 184/180/477 186/178/478 164/61/479 163/60/480
f 186/178/481 188/176/482 165/62/483 164/61/484
f 188/176/485 190/174/486 166/63/487 165/62/488
f 190/174/489 170/67/490 154/51/491 166/63/492
s 13
f 141/173/493 143/172/494 142/171/495
f 142/171/495 143/172/494 144/170/496
f 144/170/496 143/172/494 145/169/497
f 145/169/497 143/172/494 146/168/498
f 146/168/498 143/172/494 147/167/499
f 147/167/499 143/172/494 148/166/500
f 148/166/500 143/172/494 149/165/501
f 149/165/501 143/172/494 150/164/502
f 150/164/502 143/172/494 151/163/503
f 151/163/503 143/172/494 152/162/504
f 152/162/504 143/172/494 153/161/505
f 153/161/505 143/172/494 141/173/493
s off
f 129/160/506 117/159/507 118/158/508 130/157/509
f 130/157/510 118/158/511 119/156/512 131/155/513
f 131/155/514 119/156/515 120/154/516 132/153/517
f 132/153/518 120/154/519 121/152/520 133/151/521
f 133/151/522 121/152/523 122/150/524 134/149/525
f 134/149/526 122/150/527 123/148/528 135/147/529
f 135/147/530 123/148/531 124/146/532 136/145/533
f 136/145/534 124/146/535 125/144/536 137/143/537
f 137/143/538 125/144/539 126/142/540 138/141/541
f 138/141/542 126/142/543 127/140/544 139/139/545
f 139/139/546 127/140/547 128/138/548 140/137/549
f 140/137/550 128/138/551 117/159/552 129/160/553
f 117/159/554 141/173/555 142/171/556 118/158/557
f 118/158/558 142/171/559 144/170/560 119/156/561
f 119/156/562 144/170/563 145/169/564 120/154/565
f 120/154/566 145/169/567 146/168/568 121/152/569
f 121/152/570 146/168/571 147/167/572 122/150/573
f 122/150/574 147/167/575 148/166/576 123/148/577
f 123/148/578 148/166/579 149/165/580 124/146/581
f 124/146/582 149/165/583 150/164/584 125/144/585
f 125/144/586 150/164/587 151/163/588 126/142/589
f 126/142/590 151/163/591 152/162/592 127/140/593
f 127/140/594 152/162/595 153/161/596 128/138/597
f 128/138/598 153/161/599 141/173/600 117/159/601
s 14
f 129/160/602 130/157/603 167/65/604 168/64/605
f 130/157/603 131/155/606 171/68/607 167/65/604
s 15
f 131/155/608 132/153/609 173/70/610 171/68/611
f 132/153/609 133/151/612 175/186/613 173/70/610
f 133/151/612 134/149/614 177/188/615 175/186/613
s 16
f 134/149/616 135/147/617 179/190/618 177/188/619
f 135/147/617 136/145/620 181/183/621 179/190/618
f 136/145/620 137/143/622 183/181/623 181/183/621
s 17
f 137/143/624 138/141/625 185/179/626 183/181/627
f 138/141/625 139/139/628 187/177/629 185/179/626
f 139/139/628 140/137/630 189/175/631 187/177/629
s 14
f 140/137/632 129/160/602 168/64/605 189/175/633
