# This file uses inches as units for non-parametric coordinates.

mtllib naginata.mtl
g default
v -11.107551 -119.463615 -1.258241
v -12.052910 -119.463615 -2.192168
v -13.344337 -119.463615 -2.534008
v -14.635750 -119.463615 -2.192168
v -15.581139 -119.463615 -1.258241
v -15.927177 -119.463615 0.017525
v -15.581139 -119.463615 1.293291
v -14.635750 -119.463615 2.227217
v -13.344337 -119.463615 2.569057
v -12.052910 -119.463615 2.227217
v -11.107551 -119.463615 1.293291
v -10.761513 -119.463615 0.017525
v -11.107551 -118.472046 -1.258241
v -12.052910 -118.472046 -2.192168
v -13.344337 -118.472046 -2.534008
v -14.635750 -118.472046 -2.192168
v -15.581139 -118.472046 -1.258241
v -15.927177 -118.472046 0.017525
v -15.581139 -118.472046 1.293291
v -14.635750 -118.472046 2.227217
v -13.344337 -118.472046 2.569057
v -12.052910 -118.472046 2.227217
v -11.107551 -118.472046 1.293291
v -10.761513 -118.472046 0.017525
v -13.344337 -119.463615 0.017525
v -13.344337 -118.472046 0.017525
v -11.107551 40.570160 -1.258241
v -12.052910 40.570160 -2.192168
v -13.344337 40.570160 -2.534008
v -14.635750 40.570160 -2.192168
v -15.581139 40.570160 -1.258241
v -15.927177 40.570160 0.017525
v -15.581139 40.570160 1.293291
v -14.635750 40.570160 2.227217
v -13.344337 40.570160 2.569057
v -12.052910 40.570160 2.227217
v -11.107551 40.570160 1.293291
v -10.761513 40.570160 0.017525
v -11.107551 41.561714 -1.258241
v -12.052910 41.561714 -2.192168
v -13.344337 41.561714 -2.534008
v -14.635750 41.561714 -2.192168
v -15.581139 41.561714 -1.258241
v -15.927177 41.561714 0.017525
v -15.581139 41.561714 1.293291
v -14.635750 41.561714 2.227217
v -13.344337 41.561714 2.569057
v -12.052910 41.561714 2.227217
v -11.107551 41.561714 1.293291
v -10.761513 41.561714 0.017525
v -13.344337 40.570160 0.017525
v -13.344337 41.561714 0.017525
v -9.116478 60.236641 -1.487178
v -10.903374 60.236641 -2.588698
v -13.344353 60.236641 -2.991881
v -15.785301 60.236641 -2.588698
v -17.572243 60.236641 -1.487178
v -18.226280 60.236641 0.017525
v -17.572243 60.236641 1.522228
v -15.785301 60.236641 2.623747
v -13.344353 60.236641 3.026931
v -10.903374 60.236641 2.623747
v -9.116478 60.236641 1.522228
v -8.462410 60.236641 0.017525
v -9.116478 61.860931 -1.487178
v -10.903374 61.860931 -2.588698
v -13.344353 61.860931 -2.991881
v -15.785301 61.860931 -2.588698
v -17.572243 61.860931 -1.487178
v -18.226280 61.860931 0.017525
v -17.572243 61.860931 1.522228
v -15.785301 61.860931 2.623747
v -13.344353 61.860931 3.026931
v -10.903374 61.860931 2.623747
v -9.116478 61.860931 1.522228
v -8.462410 61.860931 0.017525
v -13.344353 60.236641 0.017525
v -13.344353 61.860931 0.017525
v -11.107551 52.255562 -1.258241
v -12.052910 52.255562 -2.192168
v -13.344337 52.255562 -2.534008
v -14.635750 52.255562 -2.192168
v -15.581139 52.255562 -1.258241
v -15.927177 52.255562 0.017525
v -15.581139 52.255562 1.293291
v -14.635750 52.255562 2.227217
v -13.344337 52.255562 2.569057
v -12.052910 52.255562 2.227217
v -11.107551 52.255562 1.293291
v -10.761513 52.255562 0.017525
v -11.107551 53.247124 -1.258241
v -12.052910 53.247124 -2.192168
v -13.344337 53.247124 -2.534008
v -14.635750 53.247124 -2.192168
v -15.581139 53.247124 -1.258241
v -15.927177 53.247124 0.017525
v -15.581139 53.247124 1.293291
v -14.635750 53.247124 2.227217
v -13.344337 53.247124 2.569057
v -12.052910 53.247124 2.227217
v -11.107551 53.247124 1.293291
v -10.761513 53.247124 0.017525
v -13.344337 52.255562 0.017525
v -13.344337 53.247124 0.017525
v -12.899620 -128.673645 -0.239244
v -13.087578 -128.673645 -0.427212
v -13.344353 -128.673645 -0.496013
v -13.601128 -128.673645 -0.427212
v -13.789085 -128.673645 -0.239244
v -13.857887 -128.673645 0.017524
v -13.789085 -128.673645 0.274293
v -13.601128 -128.673645 0.462261
v -13.344353 -128.673645 0.531061
v -13.087578 -128.673645 0.462261
v -12.899620 -128.673645 0.274293
v -12.830818 -128.673645 0.017524
v -12.485176 -128.371918 -0.478514
v -12.848320 -128.371918 -0.841640
v -13.344353 -128.371918 -0.974553
v -13.840385 -128.371918 -0.841640
v -14.203514 -128.371918 -0.478514
v -14.336418 -128.371918 0.017524
v -14.203514 -128.371918 0.513563
v -13.840385 -128.371918 0.876689
v -13.344353 -128.371918 1.009602
v -12.848320 -128.371918 0.876689
v -12.485176 -128.371918 0.513563
v -12.352272 -128.371918 0.017524
v -12.129311 -127.891922 -0.683980
v -12.642845 -127.891922 -1.197517
v -13.344353 -127.891922 -1.385485
v -14.045860 -127.891922 -1.197517
v -14.559395 -127.891922 -0.683980
v -14.747368 -127.891922 0.017524
v -14.559395 -127.891922 0.719029
v -14.045860 -127.891922 1.232566
v -13.344353 -127.891922 1.420534
v -12.642845 -127.891922 1.232566
v -12.129311 -127.891922 0.719029
v -11.941337 -127.891922 0.017524
v -11.856239 -127.266388 -0.841640
v -12.485176 -127.266388 -1.470592
v -13.344353 -127.266388 -1.700804
v -14.203514 -127.266388 -1.470592
v -14.832466 -127.266388 -0.841640
v -15.062675 -127.266388 0.017524
v -14.832466 -127.266388 0.876689
v -14.203514 -127.266388 1.505641
v -13.344353 -127.266388 1.735853
v -12.485176 -127.266388 1.505641
v -11.856239 -127.266388 0.876689
v -11.626030 -127.266388 0.017524
v -11.684563 -126.537949 -0.940749
v -12.386070 -126.537949 -1.642254
v -13.344353 -126.537949 -1.899022
v -14.302635 -126.537949 -1.642254
v -15.004127 -126.537949 -0.940749
v -15.260887 -126.537949 0.017524
v -15.004127 -126.537949 0.975798
v -14.302635 -126.537949 1.677302
v -13.344353 -126.537949 1.934071
v -12.386070 -126.537949 1.677302
v -11.684563 -126.537949 0.975798
v -11.427803 -126.537949 0.017524
v -11.626030 -125.756226 -0.974553
v -12.352272 -125.756226 -1.700804
v -13.344353 -125.756226 -1.966631
v -14.336418 -125.756226 -1.700804
v -15.062675 -125.756226 -0.974553
v -15.328514 -125.756226 0.017524
v -15.062675 -125.756226 1.009602
v -14.336418 -125.756226 1.735853
v -13.344353 -125.756226 2.001679
v -12.352272 -125.756226 1.735853
v -11.626030 -125.756226 1.009602
v -11.360191 -125.756226 0.017524
v -11.684563 -124.974510 -0.940749
v -12.386070 -124.974510 -1.642254
v -13.344353 -124.974510 -1.899022
v -14.302635 -124.974510 -1.642254
v -15.004127 -124.974510 -0.940749
v -15.260887 -124.974510 0.017524
v -15.004127 -124.974510 0.975798
v -14.302635 -124.974510 1.677302
v -13.344353 -124.974510 1.934071
v -12.386070 -124.974510 1.677302
v -11.684563 -124.974510 0.975798
v -11.427803 -124.974510 0.017524
v -11.856239 -124.246071 -0.841640
v -12.485176 -124.246071 -1.470592
v -13.344353 -124.246071 -1.700804
v -14.203514 -124.246071 -1.470592
v -14.832466 -124.246071 -0.841640
v -15.062675 -124.246071 0.017524
v -14.832466 -124.246071 0.876689
v -14.203514 -124.246071 1.505641
v -13.344353 -124.246071 1.735853
v -12.485176 -124.246071 1.505641
v -11.856239 -124.246071 0.876689
v -11.626030 -124.246071 0.017524
v -12.129311 -123.620537 -0.683980
v -12.642845 -123.620537 -1.197517
v -13.344353 -123.620537 -1.385485
v -14.045860 -123.620537 -1.197517
v -14.559395 -123.620537 -0.683980
v -14.747368 -123.620537 0.017524
v -14.559395 -123.620537 0.719029
v -14.045860 -123.620537 1.232566
v -13.344353 -123.620537 1.420534
v -12.642845 -123.620537 1.232566
v -12.129311 -123.620537 0.719029
v -11.941337 -123.620537 0.017524
v -12.485176 -123.140549 -0.478514
v -12.848320 -123.140549 -0.841640
v -13.344353 -123.140549 -0.974553
v -13.840385 -123.140549 -0.841640
v -14.203514 -123.140549 -0.478514
v -14.336418 -123.140549 0.017524
v -14.203514 -123.140549 0.513563
v -13.840385 -123.140549 0.876689
v -13.344353 -123.140549 1.009602
v -12.848320 -123.140549 0.876689
v -12.485176 -123.140549 0.513563
v -12.352272 -123.140549 0.017524
v -12.899620 -122.838821 -0.239244
v -13.087578 -122.838821 -0.427212
v -13.344353 -122.838821 -0.496013
v -13.601128 -122.838821 -0.427212
v -13.789085 -122.838821 -0.239244
v -13.857887 -122.838821 0.017524
v -13.789085 -122.838821 0.274293
v -13.601128 -122.838821 0.462261
v -13.344353 -122.838821 0.531061
v -13.087578 -122.838821 0.462261
v -12.899620 -122.838821 0.274293
v -12.830818 -122.838821 0.017524
v -13.344353 -128.776566 0.017524
v -13.344353 -122.735901 0.017524
v -11.550972 -123.979340 -1.017890
v -12.308937 -123.979340 -1.775866
v -13.344353 -123.979340 -2.053304
v -14.379768 -123.979340 -1.775866
v -15.137733 -123.979340 -1.017890
v -15.415169 -123.979340 0.017525
v -15.137733 -123.979340 1.052939
v -14.379768 -123.979340 1.810915
v -13.344353 -123.979340 2.088354
v -12.308937 -123.979340 1.810915
v -11.550972 -123.979340 1.052939
v -11.273521 -123.979340 0.017525
v -11.550972 60.990158 -1.017890
v -12.308937 60.990158 -1.775866
v -13.344353 60.990158 -2.053304
v -14.379768 60.990158 -1.775866
v -15.137733 60.990158 -1.017890
v -15.415169 60.990158 0.017525
v -15.137733 60.990158 1.052939
v -14.379768 60.990158 1.810915
v -13.344353 60.990158 2.088354
v -12.308937 60.990158 1.810915
v -11.550972 60.990158 1.052939
v -11.273521 60.990158 0.017525
v -13.344353 -123.979340 0.017525
v -13.344353 60.990158 0.017525
v -15.688179 61.137260 0.017525
v -16.823830 103.963638 0.017525
v -15.867500 119.444489 0.017525
v -12.639839 130.442474 0.017525
v -8.455788 137.017334 0.017525
v -5.048820 140.065704 0.017525
v -7.140816 128.529785 0.491597
v -8.336250 118.488144 0.557676
v -10.786888 105.637245 0.624600
v -11.504158 92.188622 0.673425
v -11.025978 61.137260 0.703290
v -5.495003 137.605286 0.421469
v -14.379539 61.137260 0.703290
v -7.123390 136.151276 0.433370
v -11.307426 129.576385 0.484014
v -14.535103 118.578400 0.557137
v -15.491402 103.097565 0.635482
v -7.140816 128.529785 -0.456547
v -8.336250 118.488144 -0.522627
v -10.786888 105.637245 -0.589551
v -11.504158 92.188622 -0.638376
v -11.025978 61.137260 -0.668241
v -5.495003 137.605286 -0.386420
v -14.379539 61.137260 -0.668241
v -7.123390 136.151276 -0.398320
v -11.307426 129.576385 -0.448964
v -14.535103 118.578400 -0.522087
v -15.491402 103.097565 -0.600433
vt 0.850887 0.342795
vt 0.919755 0.413444
vt 0.919755 0.413444
vt 0.850887 0.342795
vt 0.944493 0.509493
vt 0.944493 0.509493
vt 0.918473 0.605201
vt 0.918473 0.605201
vt 0.848667 0.674926
vt 0.848667 0.674926
vt 0.753779 0.699984
vt 0.753779 0.699984
vt 0.659234 0.673660
vt 0.659234 0.673660
vt 0.590366 0.603008
vt 0.590366 0.603008
vt 0.565628 0.506961
vt 0.565628 0.506961
vt 0.591648 0.411251
vt 0.591648 0.411251
vt 0.661454 0.341529
vt 0.661454 0.341529
vt 0.756342 0.316471
vt 0.756342 0.316471
vt 0.755061 0.508227
vt 0.755061 0.508227
vt 0.850886 0.342795
vt 0.919755 0.413444
vt 0.919755 0.413444
vt 0.850886 0.342795
vt 0.944493 0.509493
vt 0.944493 0.509493
vt 0.918473 0.605201
vt 0.918473 0.605201
vt 0.848666 0.674926
vt 0.848666 0.674926
vt 0.753778 0.699984
vt 0.753778 0.699984
vt 0.659234 0.673660
vt 0.659234 0.673660
vt 0.590366 0.603008
vt 0.590366 0.603008
vt 0.565627 0.506961
vt 0.565627 0.506961
vt 0.591647 0.411251
vt 0.591647 0.411251
vt 0.661454 0.341529
vt 0.661454 0.341529
vt 0.756342 0.316471
vt 0.756342 0.316471
vt 0.755060 0.508227
vt 0.755060 0.508227
vt 0.868871 0.195086
vt 0.949764 0.328296
vt 0.949764 0.328296
vt 0.868871 0.195086
vt 0.978486 0.509721
vt 0.978486 0.509721
vt 0.947342 0.690744
vt 0.947342 0.690744
vt 0.864675 0.822865
vt 0.864675 0.822865
vt 0.752638 0.870676
vt 0.752638 0.870676
vt 0.641249 0.821371
vt 0.641249 0.821371
vt 0.560356 0.688157
vt 0.560356 0.688157
vt 0.531634 0.506735
vt 0.531634 0.506735
vt 0.562778 0.325710
vt 0.562778 0.325710
vt 0.645445 0.193592
vt 0.645445 0.193592
vt 0.757483 0.145779
vt 0.757483 0.145779
vt 0.755060 0.508228
vt 0.755060 0.508228
vt 0.850886 0.342795
vt 0.919754 0.413444
vt 0.919754 0.413444
vt 0.850886 0.342795
vt 0.944493 0.509493
vt 0.944493 0.509493
vt 0.918473 0.605201
vt 0.918473 0.605201
vt 0.848666 0.674926
vt 0.848666 0.674926
vt 0.753778 0.699984
vt 0.753778 0.699984
vt 0.659234 0.673660
vt 0.659234 0.673660
vt 0.590366 0.603008
vt 0.590366 0.603008
vt 0.565627 0.506961
vt 0.565627 0.506961
vt 0.591647 0.411251
vt 0.591647 0.411251
vt 0.661454 0.341529
vt 0.661454 0.341529
vt 0.756342 0.316471
vt 0.756342 0.316471
vt 0.755060 0.508227
vt 0.755060 0.508227
vt 0.774345 0.475337
vt 0.788206 0.489385
vt 0.819093 0.471827
vt 0.792314 0.444687
vt 0.793187 0.508483
vt 0.828715 0.508720
vt 0.787952 0.527512
vt 0.818601 0.545481
vt 0.773903 0.541373
vt 0.791462 0.572261
vt 0.754806 0.546354
vt 0.754568 0.581882
vt 0.735777 0.541119
vt 0.717807 0.571768
vt 0.721915 0.527071
vt 0.691028 0.544629
vt 0.716934 0.507973
vt 0.681406 0.507736
vt 0.722170 0.488944
vt 0.691520 0.470975
vt 0.736218 0.475082
vt 0.718660 0.444194
vt 0.755315 0.470102
vt 0.755553 0.434573
vt 0.845617 0.456749
vt 0.807745 0.418368
vt 0.859224 0.508924
vt 0.844921 0.560913
vt 0.806539 0.598784
vt 0.754364 0.612392
vt 0.702376 0.598088
vt 0.664505 0.559707
vt 0.650897 0.507532
vt 0.665201 0.455543
vt 0.703582 0.417672
vt 0.755757 0.404064
vt 0.865969 0.445179
vt 0.819586 0.398173
vt 0.882634 0.509081
vt 0.865116 0.572753
vt 0.818109 0.619136
vt 0.754208 0.635801
vt 0.690535 0.618283
vt 0.644153 0.571276
vt 0.627487 0.507375
vt 0.645005 0.443702
vt 0.692012 0.397320
vt 0.755913 0.380655
vt 0.878762 0.437906
vt 0.827029 0.385476
vt 0.897350 0.509179
vt 0.877811 0.580197
vt 0.825382 0.631930
vt 0.754110 0.650517
vt 0.683092 0.630979
vt 0.631359 0.578550
vt 0.612771 0.507277
vt 0.632310 0.436259
vt 0.684739 0.384525
vt 0.756012 0.365938
vt 0.883126 0.435426
vt 0.829568 0.381147
vt 0.902370 0.509213
vt 0.882142 0.582734
vt 0.827863 0.636293
vt 0.754076 0.655538
vt 0.680553 0.635309
vt 0.626995 0.581029
vt 0.607752 0.507243
vt 0.627980 0.433721
vt 0.682259 0.380163
vt 0.756045 0.360918
vt 0.878762 0.437906
vt 0.827029 0.385476
vt 0.897350 0.509179
vt 0.877811 0.580197
vt 0.825382 0.631930
vt 0.754110 0.650517
vt 0.683092 0.630979
vt 0.631359 0.578550
vt 0.612771 0.507277
vt 0.632310 0.436259
vt 0.684739 0.384525
vt 0.756012 0.365938
vt 0.865969 0.445179
vt 0.819586 0.398173
vt 0.882634 0.509081
vt 0.865116 0.572753
vt 0.818109 0.619136
vt 0.754208 0.635801
vt 0.690535 0.618283
vt 0.644153 0.571276
vt 0.627487 0.507375
vt 0.645005 0.443702
vt 0.692012 0.397320
vt 0.755913 0.380655
vt 0.845617 0.456749
vt 0.807745 0.418368
vt 0.859224 0.508924
vt 0.844921 0.560913
vt 0.806539 0.598784
vt 0.754364 0.612392
vt 0.702376 0.598088
vt 0.664505 0.559707
vt 0.650897 0.507532
vt 0.665201 0.455543
vt 0.703582 0.417672
vt 0.755757 0.404064
vt 0.819093 0.471827
vt 0.792314 0.444687
vt 0.828715 0.508720
vt 0.818601 0.545481
vt 0.791462 0.572261
vt 0.754568 0.581882
vt 0.717807 0.571768
vt 0.691028 0.544629
vt 0.681406 0.507736
vt 0.691520 0.470975
vt 0.718660 0.444194
vt 0.755553 0.434573
vt 0.788206 0.489385
vt 0.774345 0.475337
vt 0.793187 0.508483
vt 0.787952 0.527512
vt 0.773903 0.541373
vt 0.754806 0.546354
vt 0.735777 0.541119
vt 0.721915 0.527071
vt 0.716934 0.507973
vt 0.722170 0.488944
vt 0.736218 0.475082
vt 0.755315 0.470102
vt 0.755061 0.508228
vt 0.755061 0.508228
vt 0.440565 0.039079
vt 0.436706 0.039079
vt 0.436706 0.980914
vt 0.440565 0.980914
vt 0.431434 0.039079
vt 0.431434 0.980914
vt 0.426161 0.039079
vt 0.426161 0.980914
vt 0.422302 0.039079
vt 0.422302 0.980914
vt 0.420889 0.039079
vt 0.420889 0.980914
vt 0.422302 0.039079
vt 0.422302 0.980914
vt 0.426161 0.039079
vt 0.426161 0.980914
vt 0.431434 0.039079
vt 0.431434 0.980914
vt 0.436706 0.039079
vt 0.436706 0.980914
vt 0.440565 0.039079
vt 0.440565 0.980914
vt 0.441978 0.039079
vt 0.441978 0.980914
vt 0.431434 0.039079
vt 0.431434 0.980914
vt 0.225098 0.014652
vt 0.219217 0.396535
vt 0.228038 0.561932
vt 0.273094 0.937207
vt 0.293120 0.955089
vt 0.183854 0.014652
vt 0.170180 0.530698
vt 0.221637 0.856346
vt 0.181941 0.721088
vt 0.258177 0.719978
vt 0.272879 0.843474
vt 0.225098 0.014652
vt 0.219217 0.396535
vt 0.228038 0.561932
vt 0.165555 0.731739
vt 0.205250 0.866997
vt 0.298608 0.985348
vt 0.293120 0.955089
vt 0.273094 0.937207
vt 0.256707 0.947858
vt 0.153793 0.541349
vt 0.170180 0.530698
vt 0.183854 0.014652
vt 0.167760 0.014652
vt 0.258177 0.719978
vt 0.181941 0.721088
vt 0.221637 0.856346
vt 0.272879 0.843474
vn 0.702791 0.000000 -0.711397
vn 0.702791 0.000000 -0.711397
vn 0.702791 0.000000 -0.711397
vn 0.702791 0.000000 -0.711397
vn 0.255888 0.000000 -0.966706
vn 0.255888 0.000000 -0.966706
vn 0.255888 0.000000 -0.966706
vn 0.255888 0.000000 -0.966706
vn -0.255888 0.000000 -0.966706
vn -0.255888 0.000000 -0.966706
vn -0.255888 0.000000 -0.966706
vn -0.255888 0.000000 -0.966706
vn -0.702782 0.000000 -0.711405
vn -0.702782 0.000000 -0.711405
vn -0.702782 0.000000 -0.711405
vn -0.702782 0.000000 -0.711405
vn -0.965127 0.000000 -0.261780
vn -0.965127 0.000000 -0.261780
vn -0.965127 0.000000 -0.261780
vn -0.965127 0.000000 -0.261780
vn -0.965128 0.000000 0.261780
vn -0.965128 0.000000 0.261780
vn -0.965128 0.000000 0.261780
vn -0.965128 0.000000 0.261780
vn -0.702782 0.000000 0.711405
vn -0.702782 0.000000 0.711405
vn -0.702782 0.000000 0.711405
vn -0.702782 0.000000 0.711405
vn -0.255888 0.000000 0.966706
vn -0.255888 0.000000 0.966706
vn -0.255888 0.000000 0.966706
vn -0.255888 0.000000 0.966706
vn 0.255888 0.000000 0.966706
vn 0.255888 0.000000 0.966706
vn 0.255888 0.000000 0.966706
vn 0.255888 0.000000 0.966706
vn 0.702791 0.000000 0.711397
vn 0.702791 0.000000 0.711397
vn 0.702791 0.000000 0.711397
vn 0.702791 0.000000 0.711397
vn 0.965128 0.000000 0.261780
vn 0.965128 0.000000 0.261780
vn 0.965128 0.000000 0.261780
vn 0.965128 0.000000 0.261780
vn 0.965127 0.000000 -0.261780
vn 0.965127 0.000000 -0.261780
vn 0.965127 0.000000 -0.261780
vn 0.965127 0.000000 -0.261780
vn 0.000000 -1.000000 -0.000005
vn 0.000000 -1.000000 -0.000005
vn 0.000000 -1.000000 0.000000
vn 0.000000 -1.000000 0.000000
vn 0.000000 -1.000000 0.000009
vn 0.000000 -1.000000 0.000009
vn 0.000000 -1.000000 0.000000
vn 0.000000 -1.000000 -0.000005
vn 0.000000 -1.000000 -0.000005
vn 0.000000 -1.000000 0.000000
vn 0.000000 -1.000000 0.000000
vn 0.000000 -1.000000 0.000000
vn 0.000000 -1.000000 0.000000
vn 0.000000 1.000000 -0.000009
vn 0.000000 1.000000 0.000000
vn 0.000000 1.000000 0.000001
vn 0.000000 1.000000 0.000000
vn 0.000000 1.000000 0.000005
vn 0.000000 1.000000 0.000005
vn 0.000000 1.000000 0.000000
vn 0.000000 1.000000 0.000000
vn 0.000000 1.000000 0.000000
vn 0.000000 1.000000 0.000000
vn 0.000000 1.000000 0.000000
vn 0.000000 1.000000 0.000009
vn 0.000000 1.000000 0.000000
vn 0.702792 0.000000 -0.711395
vn 0.702792 0.000000 -0.711395
vn 0.702792 0.000000 -0.711395
vn 0.702792 0.000000 -0.711395
vn 0.255886 0.000000 -0.966707
vn 0.255886 0.000000 -0.966707
vn 0.255886 0.000000 -0.966707
vn 0.255886 0.000000 -0.966707
vn -0.255890 0.000000 -0.966706
vn -0.255890 0.000000 -0.966706
vn -0.255890 0.000000 -0.966706
vn -0.255890 0.000000 -0.966706
vn -0.702782 0.000000 -0.711405
vn -0.702782 0.000000 -0.711405
vn -0.702782 0.000000 -0.711405
vn -0.702782 0.000000 -0.711405
vn -0.965127 0.000000 -0.261781
vn -0.965127 0.000000 -0.261781
vn -0.965127 0.000000 -0.261781
vn -0.965127 0.000000 -0.261781
vn -0.965127 0.000000 0.261781
vn -0.965127 0.000000 0.261781
vn -0.965127 0.000000 0.261781
vn -0.965127 0.000000 0.261781
vn -0.702782 0.000000 0.711405
vn -0.702782 0.000000 0.711405
vn -0.702782 0.000000 0.711405
vn -0.702782 0.000000 0.711405
vn -0.255890 0.000000 0.966706
vn -0.255890 0.000000 0.966706
vn -0.255890 0.000000 0.966706
vn -0.255890 0.000000 0.966706
vn 0.255887 0.000000 0.966707
vn 0.255887 0.000000 0.966707
vn 0.255887 0.000000 0.966707
vn 0.255887 0.000000 0.966707
vn 0.702792 0.000000 0.711395
vn 0.702792 0.000000 0.711395
vn 0.702792 0.000000 0.711395
vn 0.702792 0.000000 0.711395
vn 0.965127 0.000000 0.261781
vn 0.965127 0.000000 0.261781
vn 0.965127 0.000000 0.261781
vn 0.965127 0.000000 0.261781
vn 0.965127 0.000000 -0.261781
vn 0.965127 0.000000 -0.261781
vn 0.965127 0.000000 -0.261781
vn 0.965127 0.000000 -0.261781
vn 0.000000 -1.000000 -0.000001
vn 0.000000 -1.000000 0.000001
vn 0.000000 -1.000000 0.000000
vn 0.000000 -1.000000 0.000000
vn 0.000000 -1.000000 0.000000
vn 0.000000 -1.000000 0.000000
vn 0.000000 -1.000000 0.000000
vn 0.000000 -1.000000 0.000000
vn 0.000000 -1.000000 0.000000
vn 0.000000 -1.000000 0.000000
vn 0.000000 -1.000000 0.000002
vn 0.000000 -1.000000 -0.000000
vn 0.000000 -1.000000 0.000000
vn 0.000000 1.000000 0.000002
vn 0.000000 1.000000 0.000002
vn 0.000000 1.000000 0.000000
vn 0.000000 1.000000 0.000000
vn 0.000000 1.000000 0.000000
vn 0.000000 1.000000 -0.000002
vn 0.000000 1.000000 0.000000
vn 0.000000 1.000000 0.000002
vn 0.000000 1.000000 0.000000
vn 0.000000 1.000000 0.000000
vn 0.000000 1.000000 -0.000001
vn 0.000000 1.000000 -0.000001
vn 0.000000 1.000000 0.000000
vn 0.524751 0.000000 -0.851256
vn 0.524751 0.000000 -0.851256
vn 0.524751 0.000000 -0.851256
vn 0.524751 0.000000 -0.851256
vn 0.162965 0.000000 -0.986632
vn 0.162965 0.000000 -0.986632
vn 0.162965 0.000000 -0.986632
vn 0.162965 0.000000 -0.986632
vn -0.162967 0.000000 -0.986632
vn -0.162967 0.000000 -0.986632
vn -0.162967 0.000000 -0.986632
vn -0.162967 0.000000 -0.986632
vn -0.524741 0.000000 -0.851262
vn -0.524741 0.000000 -0.851262
vn -0.524741 0.000000 -0.851262
vn -0.524741 0.000000 -0.851262
vn -0.917111 0.000000 -0.398632
vn -0.917111 0.000000 -0.398632
vn -0.917111 0.000000 -0.398632
vn -0.917111 0.000000 -0.398632
vn -0.917111 0.000000 0.398632
vn -0.917111 0.000000 0.398632
vn -0.917111 0.000000 0.398632
vn -0.917111 0.000000 0.398632
vn -0.524741 0.000000 0.851262
vn -0.524741 0.000000 0.851262
vn -0.524741 0.000000 0.851262
vn -0.524741 0.000000 0.851262
vn -0.162967 0.000000 0.986632
vn -0.162967 0.000000 0.986632
vn -0.162967 0.000000 0.986632
vn -0.162967 0.000000 0.986632
vn 0.162965 0.000000 0.986632
vn 0.162965 0.000000 0.986632
vn 0.162965 0.000000 0.986632
vn 0.162965 0.000000 0.986632
vn 0.524751 0.000000 0.851256
vn 0.524751 0.000000 0.851256
vn 0.524751 0.000000 0.851256
vn 0.524751 0.000000 0.851256
vn 0.917104 0.000000 0.398649
vn 0.917104 0.000000 0.398649
vn 0.917104 0.000000 0.398649
vn 0.917104 0.000000 0.398649
vn 0.917104 0.000000 -0.398649
vn 0.917104 0.000000 -0.398649
vn 0.917104 0.000000 -0.398649
vn 0.917104 0.000000 -0.398649
vn 0.000000 -1.000000 0.000000
vn 0.000000 -1.000000 0.000000
vn 0.000000 -1.000000 -0.000000
vn 0.000000 -1.000000 0.000000
vn 0.000000 -1.000000 0.000000
vn 0.000000 -1.000000 0.000000
vn 0.000000 -1.000000 -0.000002
vn 0.000000 -1.000000 -0.000003
vn 0.000000 -1.000000 0.000000
vn 0.000000 -1.000000 0.000000
vn 0.000000 -1.000000 0.000000
vn 0.000000 -1.000000 0.000000
vn 0.000000 -1.000000 0.000000
vn 0.000000 1.000000 0.000000
vn 0.000000 1.000000 0.000000
vn 0.000000 1.000000 0.000001
vn 0.000000 1.000000 0.000000
vn 0.000000 1.000000 -0.000003
vn 0.000000 1.000000 0.000004
vn 0.000000 1.000000 0.000000
vn 0.000000 1.000000 -0.000002
vn 0.000000 1.000000 0.000005
vn 0.000000 1.000000 0.000000
vn 0.000000 1.000000 0.000003
vn 0.000000 1.000000 0.000001
vn 0.000000 1.000000 0.000000
vn 0.702792 0.000000 -0.711395
vn 0.702792 0.000000 -0.711395
vn 0.702792 0.000000 -0.711395
vn 0.702792 0.000000 -0.711395
vn 0.255886 0.000000 -0.966707
vn 0.255886 0.000000 -0.966707
vn 0.255886 0.000000 -0.966707
vn 0.255886 0.000000 -0.966707
vn -0.255889 0.000000 -0.966706
vn -0.255889 0.000000 -0.966706
vn -0.255889 0.000000 -0.966706
vn -0.255889 0.000000 -0.966706
vn -0.702781 0.000000 -0.711407
vn -0.702781 0.000000 -0.711407
vn -0.702781 0.000000 -0.711407
vn -0.702781 0.000000 -0.711407
vn -0.965127 0.000000 -0.261781
vn -0.965127 0.000000 -0.261781
vn -0.965127 0.000000 -0.261781
vn -0.965127 0.000000 -0.261781
vn -0.965127 0.000000 0.261781
vn -0.965127 0.000000 0.261781
vn -0.965127 0.000000 0.261781
vn -0.965127 0.000000 0.261781
vn -0.702780 0.000000 0.711407
vn -0.702780 0.000000 0.711407
vn -0.702780 0.000000 0.711407
vn -0.702780 0.000000 0.711407
vn -0.255889 0.000000 0.966706
vn -0.255889 0.000000 0.966706
vn -0.255889 0.000000 0.966706
vn -0.255889 0.000000 0.966706
vn 0.255886 0.000000 0.966707
vn 0.255886 0.000000 0.966707
vn 0.255886 0.000000 0.966707
vn 0.255886 0.000000 0.966707
vn 0.702792 0.000000 0.711395
vn 0.702792 0.000000 0.711395
vn 0.702792 0.000000 0.711395
vn 0.702792 0.000000 0.711395
vn 0.965127 0.000000 0.261781
vn 0.965127 0.000000 0.261781
vn 0.965127 0.000000 0.261781
vn 0.965127 0.000000 0.261781
vn 0.965127 0.000000 -0.261781
vn 0.965127 0.000000 -0.261781
vn 0.965127 0.000000 -0.261781
vn 0.965127 0.000000 -0.261781
vn 0.000000 -1.000000 0.000002
vn 0.000000 -1.000000 -0.000000
vn 0.000000 -1.000000 0.000000
vn 0.000000 -1.000000 0.000000
vn 0.000000 -1.000000 0.000000
vn 0.000000 -1.000000 0.000000
vn 0.000000 -1.000000 -0.000002
vn 0.000000 -1.000000 -0.000002
vn 0.000000 -1.000000 0.000000
vn 0.000000 -1.000000 0.000000
vn 0.000000 -1.000000 0.000000
vn 0.000000 -1.000000 0.000005
vn 0.000000 -1.000000 0.000002
vn 0.000000 1.000000 0.000000
vn 0.000000 1.000000 0.000000
vn 0.000000 1.000000 0.000000
vn 0.000000 1.000000 0.000000
vn 0.000000 1.000000 0.000000
vn 0.000000 1.000000 0.000000
vn 0.000000 1.000000 0.000000
vn 0.000000 1.000000 0.000000
vn 0.000000 1.000000 0.000000
vn 0.000000 1.000000 0.000000
vn 0.000000 1.000000 0.000000
vn 0.000000 1.000000 0.000000
vn 0.000000 1.000000 0.000000
vn 0.386506 -0.837390 -0.386512
vn 0.386506 -0.837390 -0.386512
vn 0.386506 -0.837390 -0.386512
vn 0.386506 -0.837390 -0.386512
vn 0.141474 -0.837384 -0.527989
vn 0.141474 -0.837384 -0.527989
vn 0.141474 -0.837384 -0.527989
vn 0.141474 -0.837384 -0.527989
vn -0.141474 -0.837384 -0.527989
vn -0.141474 -0.837384 -0.527989
vn -0.141474 -0.837384 -0.527989
vn -0.141474 -0.837384 -0.527989
vn -0.386511 -0.837385 -0.386518
vn -0.386511 -0.837385 -0.386518
vn -0.386511 -0.837385 -0.386518
vn -0.386511 -0.837384 -0.386518
vn -0.527990 -0.837385 -0.141468
vn -0.527990 -0.837385 -0.141468
vn -0.527990 -0.837385 -0.141468
vn -0.527990 -0.837385 -0.141468
vn -0.527981 -0.837388 0.141483
vn -0.527981 -0.837388 0.141483
vn -0.527981 -0.837388 0.141483
vn -0.527981 -0.837388 0.141483
vn -0.386520 -0.837385 0.386509
vn -0.386520 -0.837385 0.386509
vn -0.386520 -0.837385 0.386509
vn -0.386520 -0.837385 0.386509
vn -0.141473 -0.837387 0.527985
vn -0.141473 -0.837387 0.527985
vn -0.141473 -0.837387 0.527985
vn -0.141473 -0.837387 0.527985
vn 0.141472 -0.837390 0.527982
vn 0.141472 -0.837390 0.527982
vn 0.141472 -0.837390 0.527982
vn 0.141472 -0.837390 0.527982
vn 0.386511 -0.837393 0.386500
vn 0.386511 -0.837393 0.386500
vn 0.386511 -0.837393 0.386500
vn 0.386511 -0.837393 0.386500
vn 0.527978 -0.837393 0.141464
vn 0.527978 -0.837393 0.141464
vn 0.527978 -0.837393 0.141464
vn 0.527978 -0.837393 0.141464
vn 0.527981 -0.837388 -0.141483
vn 0.527981 -0.837388 -0.141483
vn 0.527981 -0.837388 -0.141483
vn 0.527981 -0.837388 -0.141483
vn 0.544919 -0.637266 -0.544936
vn 0.544919 -0.637266 -0.544936
vn 0.544919 -0.637266 -0.544936
vn 0.544919 -0.637266 -0.544936
vn 0.199454 -0.637272 -0.744380
vn 0.199454 -0.637272 -0.744380
vn 0.199454 -0.637272 -0.744380
vn 0.199454 -0.637272 -0.744380
vn -0.199453 -0.637268 -0.744385
vn -0.199453 -0.637268 -0.744385
vn -0.199453 -0.637268 -0.744385
vn -0.199453 -0.637268 -0.744385
vn -0.544915 -0.637273 -0.544931
vn -0.544915 -0.637273 -0.544931
vn -0.544915 -0.637273 -0.544932
vn -0.544915 -0.637273 -0.544932
vn -0.744373 -0.637280 -0.199455
vn -0.744373 -0.637280 -0.199455
vn -0.744373 -0.637280 -0.199455
vn -0.744373 -0.637280 -0.199455
vn -0.744374 -0.637283 0.199446
vn -0.744374 -0.637283 0.199445
vn -0.744374 -0.637283 0.199445
vn -0.744374 -0.637283 0.199445
vn -0.544914 -0.637275 0.544931
vn -0.544914 -0.637275 0.544931
vn -0.544914 -0.637275 0.544931
vn -0.544914 -0.637275 0.544931
vn -0.199454 -0.637272 0.744380
vn -0.199454 -0.637272 0.744380
vn -0.199454 -0.637272 0.744380
vn -0.199454 -0.637272 0.744380
vn 0.199453 -0.637265 0.744387
vn 0.199453 -0.637265 0.744387
vn 0.199453 -0.637265 0.744387
vn 0.199453 -0.637265 0.744387
vn 0.544919 -0.637267 0.544935
vn 0.544919 -0.637267 0.544935
vn 0.544919 -0.637267 0.544935
vn 0.544919 -0.637267 0.544935
vn 0.744384 -0.637264 0.199468
vn 0.744384 -0.637264 0.199468
vn 0.744384 -0.637264 0.199468
vn 0.744384 -0.637264 0.199468
vn 0.744377 -0.637276 -0.199456
vn 0.744377 -0.637276 -0.199456
vn 0.744377 -0.637276 -0.199456
vn 0.744377 -0.637276 -0.199456
vn 0.635759 -0.437770 -0.635741
vn 0.635760 -0.437770 -0.635741
vn 0.635760 -0.437770 -0.635741
vn 0.635760 -0.437770 -0.635741
vn 0.232700 -0.437776 -0.868449
vn 0.232700 -0.437776 -0.868449
vn 0.232700 -0.437776 -0.868449
vn 0.232700 -0.437776 -0.868449
vn -0.232700 -0.437769 -0.868452
vn -0.232700 -0.437769 -0.868452
vn -0.232700 -0.437769 -0.868452
vn -0.232700 -0.437769 -0.868452
vn -0.635754 -0.437763 -0.635752
vn -0.635754 -0.437763 -0.635752
vn -0.635754 -0.437763 -0.635752
vn -0.635754 -0.437763 -0.635752
vn -0.868454 -0.437759 -0.232711
vn -0.868454 -0.437759 -0.232711
vn -0.868454 -0.437759 -0.232711
vn -0.868454 -0.437759 -0.232711
vn -0.868456 -0.437760 0.232705
vn -0.868456 -0.437760 0.232705
vn -0.868456 -0.437760 0.232705
vn -0.868456 -0.437760 0.232705
vn -0.635754 -0.437767 0.635749
vn -0.635754 -0.437767 0.635749
vn -0.635754 -0.437767 0.635749
vn -0.635754 -0.437767 0.635749
vn -0.232701 -0.437762 0.868455
vn -0.232701 -0.437762 0.868455
vn -0.232701 -0.437762 0.868455
vn -0.232701 -0.437762 0.868455
vn 0.232699 -0.437772 0.868451
vn 0.232699 -0.437772 0.868451
vn 0.232699 -0.437772 0.868451
vn 0.232699 -0.437772 0.868451
vn 0.635757 -0.437772 0.635742
vn 0.635757 -0.437772 0.635742
vn 0.635757 -0.437772 0.635742
vn 0.635757 -0.437772 0.635742
vn 0.868452 -0.437764 0.232711
vn 0.868452 -0.437764 0.232711
vn 0.868452 -0.437764 0.232711
vn 0.868452 -0.437764 0.232711
vn 0.868456 -0.437760 -0.232705
vn 0.868456 -0.437760 -0.232705
vn 0.868456 -0.437760 -0.232705
vn 0.868456 -0.437759 -0.232705
vn 0.683878 -0.254213 -0.683876
vn 0.683878 -0.254213 -0.683876
vn 0.683878 -0.254213 -0.683876
vn 0.683878 -0.254213 -0.683876
vn 0.250313 -0.254207 -0.934196
vn 0.250313 -0.254207 -0.934196
vn 0.250313 -0.254207 -0.934196
vn 0.250313 -0.254207 -0.934196
vn -0.250316 -0.254207 -0.934195
vn -0.250316 -0.254207 -0.934195
vn -0.250316 -0.254207 -0.934195
vn -0.250316 -0.254207 -0.934195
vn -0.683880 -0.254216 -0.683873
vn -0.683880 -0.254216 -0.683873
vn -0.683880 -0.254216 -0.683873
vn -0.683880 -0.254216 -0.683873
vn -0.934198 -0.254203 -0.250310
vn -0.934198 -0.254203 -0.250310
vn -0.934198 -0.254203 -0.250310
vn -0.934198 -0.254203 -0.250310
vn -0.934197 -0.254205 0.250312
vn -0.934197 -0.254205 0.250312
vn -0.934197 -0.254204 0.250312
vn -0.934197 -0.254204 0.250312
vn -0.683882 -0.254212 0.683872
vn -0.683882 -0.254212 0.683872
vn -0.683882 -0.254212 0.683872
vn -0.683882 -0.254212 0.683872
vn -0.250315 -0.254211 0.934194
vn -0.250315 -0.254211 0.934194
vn -0.250315 -0.254211 0.934194
vn -0.250315 -0.254211 0.934194
vn 0.250313 -0.254206 0.934196
vn 0.250313 -0.254206 0.934196
vn 0.250313 -0.254206 0.934196
vn 0.250313 -0.254206 0.934196
vn 0.683881 -0.254214 0.683873
vn 0.683881 -0.254214 0.683872
vn 0.683881 -0.254214 0.683873
vn 0.683881 -0.254214 0.683873
vn 0.934194 -0.254216 0.250311
vn 0.934194 -0.254216 0.250311
vn 0.934194 -0.254216 0.250311
vn 0.934194 -0.254216 0.250311
vn 0.934194 -0.254214 -0.250314
vn 0.934194 -0.254214 -0.250314
vn 0.934194 -0.254214 -0.250314
vn 0.934194 -0.254214 -0.250314
vn 0.704657 -0.083237 -0.704649
vn 0.704657 -0.083237 -0.704649
vn 0.704657 -0.083237 -0.704649
vn 0.704657 -0.083237 -0.704649
vn 0.257920 -0.083248 -0.962573
vn 0.257920 -0.083248 -0.962573
vn 0.257920 -0.083248 -0.962573
vn 0.257920 -0.083248 -0.962573
vn -0.257924 -0.083247 -0.962572
vn -0.257924 -0.083247 -0.962572
vn -0.257924 -0.083247 -0.962572
vn -0.257924 -0.083247 -0.962572
vn -0.704656 -0.083237 -0.704650
vn -0.704656 -0.083237 -0.704650
vn -0.704656 -0.083237 -0.704650
vn -0.704656 -0.083237 -0.704650
vn -0.962572 -0.083258 -0.257922
vn -0.962572 -0.083258 -0.257922
vn -0.962572 -0.083258 -0.257922
vn -0.962572 -0.083258 -0.257922
vn -0.962572 -0.083263 0.257920
vn -0.962572 -0.083263 0.257920
vn -0.962572 -0.083263 0.257920
vn -0.962572 -0.083263 0.257920
vn -0.704656 -0.083243 0.704650
vn -0.704655 -0.083243 0.704650
vn -0.704655 -0.083243 0.704650
vn -0.704655 -0.083243 0.704650
vn -0.257924 -0.083245 0.962572
vn -0.257924 -0.083245 0.962572
vn -0.257924 -0.083245 0.962572
vn -0.257924 -0.083245 0.962572
vn 0.257920 -0.083248 0.962573
vn 0.257920 -0.083248 0.962573
vn 0.257920 -0.083248 0.962573
vn 0.257920 -0.083248 0.962573
vn 0.704657 -0.083243 0.704648
vn 0.704657 -0.083243 0.704648
vn 0.704657 -0.083243 0.704648
vn 0.704657 -0.083243 0.704648
vn 0.962573 -0.083246 0.257921
vn 0.962573 -0.083246 0.257921
vn 0.962573 -0.083246 0.257921
vn 0.962573 -0.083246 0.257921
vn 0.962573 -0.083244 -0.257920
vn 0.962574 -0.083244 -0.257920
vn 0.962574 -0.083244 -0.257920
vn 0.962574 -0.083244 -0.257920
vn 0.704652 0.083237 -0.704654
vn 0.704652 0.083237 -0.704654
vn 0.704652 0.083237 -0.704654
vn 0.704652 0.083237 -0.704654
vn 0.257919 0.083248 -0.962574
vn 0.257919 0.083248 -0.962574
vn 0.257919 0.083248 -0.962574
vn 0.257919 0.083248 -0.962574
vn -0.257919 0.083246 -0.962573
vn -0.257920 0.083246 -0.962574
vn -0.257919 0.083246 -0.962574
vn -0.257920 0.083246 -0.962574
vn -0.704652 0.083237 -0.704654
vn -0.704652 0.083237 -0.704654
vn -0.704652 0.083237 -0.704654
vn -0.704652 0.083237 -0.704654
vn -0.962571 0.083259 -0.257926
vn -0.962571 0.083259 -0.257926
vn -0.962571 0.083259 -0.257926
vn -0.962571 0.083259 -0.257926
vn -0.962570 0.083264 0.257925
vn -0.962570 0.083264 0.257926
vn -0.962570 0.083264 0.257925
vn -0.962570 0.083264 0.257926
vn -0.704650 0.083243 0.704655
vn -0.704650 0.083243 0.704655
vn -0.704650 0.083243 0.704655
vn -0.704650 0.083243 0.704655
vn -0.257919 0.083246 0.962574
vn -0.257919 0.083246 0.962574
vn -0.257919 0.083246 0.962574
vn -0.257919 0.083246 0.962574
vn 0.257920 0.083250 0.962573
vn 0.257920 0.083250 0.962573
vn 0.257920 0.083250 0.962573
vn 0.257920 0.083250 0.962573
vn 0.704653 0.083243 0.704652
vn 0.704653 0.083244 0.704652
vn 0.704653 0.083243 0.704653
vn 0.704653 0.083244 0.704653
vn 0.962572 0.083247 0.257924
vn 0.962572 0.083247 0.257924
vn 0.962572 0.083247 0.257924
vn 0.962572 0.083247 0.257924
vn 0.962572 0.083245 -0.257924
vn 0.962573 0.083245 -0.257924
vn 0.962572 0.083245 -0.257924
vn 0.962572 0.083245 -0.257924
vn 0.683879 0.254213 -0.683875
vn 0.683879 0.254213 -0.683875
vn 0.683879 0.254213 -0.683875
vn 0.683879 0.254213 -0.683875
vn 0.250315 0.254207 -0.934195
vn 0.250315 0.254207 -0.934195
vn 0.250315 0.254207 -0.934195
vn 0.250315 0.254207 -0.934195
vn -0.250319 0.254207 -0.934194
vn -0.250319 0.254207 -0.934194
vn -0.250319 0.254207 -0.934194
vn -0.250319 0.254207 -0.934195
vn -0.683886 0.254218 -0.683867
vn -0.683886 0.254218 -0.683867
vn -0.683886 0.254218 -0.683867
vn -0.683886 0.254218 -0.683867
vn -0.934198 0.254203 -0.250310
vn -0.934198 0.254203 -0.250310
vn -0.934198 0.254203 -0.250310
vn -0.934198 0.254203 -0.250310
vn -0.934198 0.254205 0.250310
vn -0.934198 0.254205 0.250310
vn -0.934198 0.254205 0.250310
vn -0.934198 0.254205 0.250310
vn -0.683884 0.254213 0.683871
vn -0.683884 0.254213 0.683871
vn -0.683884 0.254213 0.683871
vn -0.683884 0.254213 0.683871
vn -0.250318 0.254212 0.934193
vn -0.250318 0.254212 0.934193
vn -0.250318 0.254212 0.934193
vn -0.250318 0.254212 0.934193
vn 0.250316 0.254207 0.934195
vn 0.250316 0.254207 0.934195
vn 0.250316 0.254207 0.934195
vn 0.250316 0.254207 0.934195
vn 0.683882 0.254215 0.683871
vn 0.683882 0.254215 0.683871
vn 0.683882 0.254215 0.683871
vn 0.683882 0.254215 0.683871
vn 0.934195 0.254217 0.250309
vn 0.934195 0.254217 0.250309
vn 0.934195 0.254217 0.250309
vn 0.934195 0.254217 0.250309
vn 0.934194 0.254215 -0.250311
vn 0.934194 0.254215 -0.250311
vn 0.934194 0.254215 -0.250311
vn 0.934194 0.254215 -0.250311
vn 0.635756 0.437771 -0.635744
vn 0.635756 0.437771 -0.635744
vn 0.635756 0.437771 -0.635744
vn 0.635756 0.437771 -0.635744
vn 0.232699 0.437770 -0.868452
vn 0.232699 0.437770 -0.868452
vn 0.232699 0.437770 -0.868452
vn 0.232699 0.437770 -0.868452
vn -0.232700 0.437769 -0.868452
vn -0.232700 0.437769 -0.868452
vn -0.232700 0.437769 -0.868452
vn -0.232700 0.437769 -0.868452
vn -0.635754 0.437763 -0.635752
vn -0.635754 0.437763 -0.635752
vn -0.635754 0.437763 -0.635752
vn -0.635754 0.437763 -0.635752
vn -0.868454 0.437759 -0.232711
vn -0.868454 0.437759 -0.232711
vn -0.868454 0.437759 -0.232711
vn -0.868454 0.437759 -0.232711
vn -0.868456 0.437760 0.232705
vn -0.868456 0.437760 0.232705
vn -0.868456 0.437760 0.232705
vn -0.868456 0.437760 0.232705
vn -0.635751 0.437765 0.635753
vn -0.635751 0.437765 0.635753
vn -0.635751 0.437765 0.635753
vn -0.635751 0.437765 0.635753
vn -0.232700 0.437762 0.868456
vn -0.232700 0.437762 0.868456
vn -0.232700 0.437762 0.868456
vn -0.232700 0.437762 0.868456
vn 0.232699 0.437774 0.868450
vn 0.232699 0.437774 0.868450
vn 0.232699 0.437774 0.868450
vn 0.232699 0.437774 0.868450
vn 0.635757 0.437772 0.635742
vn 0.635757 0.437772 0.635742
vn 0.635757 0.437772 0.635742
vn 0.635757 0.437772 0.635742
vn 0.868452 0.437764 0.232711
vn 0.868452 0.437764 0.232711
vn 0.868452 0.437764 0.232711
vn 0.868452 0.437764 0.232711
vn 0.868456 0.437760 -0.232705
vn 0.868456 0.437760 -0.232705
vn 0.868456 0.437760 -0.232705
vn 0.868456 0.437760 -0.232705
vn 0.544918 0.637279 -0.544923
vn 0.544917 0.637279 -0.544923
vn 0.544918 0.637279 -0.544923
vn 0.544917 0.637279 -0.544923
vn 0.199455 0.637282 -0.744372
vn 0.199455 0.637282 -0.744372
vn 0.199455 0.637282 -0.744372
vn 0.199455 0.637282 -0.744372
vn -0.199456 0.637287 -0.744368
vn -0.199456 0.637287 -0.744367
vn -0.199456 0.637287 -0.744367
vn -0.199456 0.637287 -0.744367
vn -0.544915 0.637278 -0.544925
vn -0.544915 0.637278 -0.544925
vn -0.544915 0.637278 -0.544925
vn -0.544915 0.637278 -0.544925
vn -0.744369 0.637287 -0.199448
vn -0.744370 0.637287 -0.199448
vn -0.744370 0.637287 -0.199448
vn -0.744370 0.637287 -0.199448
vn -0.744368 0.637289 0.199447
vn -0.744368 0.637289 0.199447
vn -0.744368 0.637289 0.199447
vn -0.744368 0.637289 0.199447
vn -0.544916 0.637282 0.544921
vn -0.544916 0.637282 0.544921
vn -0.544916 0.637282 0.544921
vn -0.544916 0.637282 0.544921
vn -0.199455 0.637285 0.744370
vn -0.199455 0.637285 0.744370
vn -0.199455 0.637285 0.744370
vn -0.199455 0.637285 0.744370
vn 0.199457 0.637281 0.744372
vn 0.199457 0.637281 0.744372
vn 0.199457 0.637281 0.744372
vn 0.199457 0.637281 0.744372
vn 0.544915 0.637278 0.544925
vn 0.544915 0.637278 0.544925
vn 0.544915 0.637278 0.544925
vn 0.544915 0.637278 0.544925
vn 0.744380 0.637271 0.199460
vn 0.744380 0.637271 0.199460
vn 0.744380 0.637271 0.199460
vn 0.744380 0.637271 0.199460
vn 0.744370 0.637280 -0.199467
vn 0.744370 0.637280 -0.199467
vn 0.744370 0.637280 -0.199467
vn 0.744370 0.637280 -0.199467
vn 0.386506 0.837390 -0.386512
vn 0.386506 0.837390 -0.386512
vn 0.386506 0.837390 -0.386512
vn 0.386506 0.837390 -0.386512
vn 0.141474 0.837380 -0.527996
vn 0.141474 0.837380 -0.527996
vn 0.141474 0.837380 -0.527996
vn 0.141474 0.837380 -0.527996
vn -0.141474 0.837380 -0.527996
vn -0.141474 0.837380 -0.527996
vn -0.141474 0.837380 -0.527996
vn -0.141474 0.837380 -0.527996
vn -0.386513 0.837387 -0.386510
vn -0.386513 0.837387 -0.386510
vn -0.386513 0.837387 -0.386510
vn -0.386513 0.837387 -0.386510
vn -0.527992 0.837387 -0.141450
vn -0.527992 0.837387 -0.141450
vn -0.527992 0.837387 -0.141450
vn -0.527992 0.837387 -0.141450
vn -0.527986 0.837387 0.141467
vn -0.527986 0.837387 0.141467
vn -0.527986 0.837387 0.141467
vn -0.527986 0.837388 0.141467
vn -0.386517 0.837379 0.386524
vn -0.386517 0.837379 0.386524
vn -0.386517 0.837379 0.386524
vn -0.386517 0.837379 0.386524
vn -0.141473 0.837383 0.527992
vn -0.141473 0.837383 0.527992
vn -0.141473 0.837383 0.527992
vn -0.141473 0.837383 0.527992
vn 0.141472 0.837386 0.527988
vn 0.141472 0.837386 0.527988
vn 0.141472 0.837386 0.527988
vn 0.141472 0.837386 0.527988
vn 0.386504 0.837387 0.386520
vn 0.386504 0.837387 0.386520
vn 0.386504 0.837387 0.386520
vn 0.386504 0.837387 0.386520
vn 0.527980 0.837395 0.141447
vn 0.527980 0.837395 0.141447
vn 0.527980 0.837395 0.141447
vn 0.527980 0.837395 0.141447
vn 0.527978 0.837393 -0.141465
vn 0.527978 0.837393 -0.141464
vn 0.527978 0.837393 -0.141465
vn 0.527978 0.837393 -0.141465
vn 0.143657 -0.979151 -0.143618
vn 0.143657 -0.979151 -0.143618
vn 0.143657 -0.979151 -0.143618
vn 0.052579 -0.979146 -0.196237
vn 0.052579 -0.979146 -0.196237
vn 0.052579 -0.979146 -0.196237
vn -0.052582 -0.979144 -0.196248
vn -0.052582 -0.979144 -0.196248
vn -0.052582 -0.979144 -0.196248
vn -0.143661 -0.979150 -0.143622
vn -0.143661 -0.979150 -0.143622
vn -0.143661 -0.979150 -0.143622
vn -0.196238 -0.979146 -0.052575
vn -0.196238 -0.979146 -0.052575
vn -0.196238 -0.979146 -0.052575
vn -0.196238 -0.979149 0.052518
vn -0.196238 -0.979149 0.052518
vn -0.196238 -0.979149 0.052518
vn -0.143657 -0.979151 0.143618
vn -0.143657 -0.979151 0.143618
vn -0.143657 -0.979151 0.143618
vn -0.052581 -0.979144 0.196248
vn -0.052581 -0.979144 0.196248
vn -0.052581 -0.979144 0.196248
vn 0.052579 -0.979146 0.196237
vn 0.052579 -0.979146 0.196237
vn 0.052579 -0.979146 0.196237
vn 0.143657 -0.979151 0.143618
vn 0.143657 -0.979151 0.143618
vn 0.143657 -0.979151 0.143618
vn 0.196238 -0.979146 0.052575
vn 0.196238 -0.979146 0.052575
vn 0.196238 -0.979146 0.052575
vn 0.196233 -0.979150 -0.052517
vn 0.196233 -0.979150 -0.052517
vn 0.196233 -0.979150 -0.052517
vn 0.143659 0.979142 -0.143677
vn 0.143659 0.979142 -0.143677
vn 0.143659 0.979142 -0.143677
vn 0.052579 0.979151 -0.196210
vn 0.052579 0.979151 -0.196210
vn 0.052579 0.979151 -0.196210
vn -0.052582 0.979149 -0.196221
vn -0.052582 0.979149 -0.196221
vn -0.052582 0.979149 -0.196221
vn -0.143656 0.979147 -0.143646
vn -0.143656 0.979147 -0.143646
vn -0.143656 0.979147 -0.143646
vn -0.196238 0.979146 -0.052575
vn -0.196238 0.979146 -0.052575
vn -0.196238 0.979146 -0.052575
vn -0.196238 0.979146 0.052575
vn -0.196238 0.979146 0.052575
vn -0.196238 0.979146 0.052575
vn -0.143655 0.979143 0.143673
vn -0.143655 0.979143 0.143673
vn -0.143655 0.979143 0.143673
vn -0.052582 0.979149 0.196221
vn -0.052582 0.979149 0.196221
vn -0.052582 0.979149 0.196221
vn 0.052579 0.979151 0.196210
vn 0.052579 0.979151 0.196210
vn 0.052579 0.979151 0.196210
vn 0.143656 0.979147 0.143646
vn 0.143656 0.979147 0.143646
vn 0.143656 0.979147 0.143646
vn 0.196238 0.979146 0.052575
vn 0.196238 0.979146 0.052575
vn 0.196238 0.979146 0.052575
vn 0.196232 0.979147 -0.052573
vn 0.196232 0.979147 -0.052573
vn 0.196232 0.979147 -0.052573
vn 0.707112 0.000000 -0.707102
vn 0.707112 0.000000 -0.707102
vn 0.707112 0.000000 -0.707102
vn 0.707112 0.000000 -0.707102
vn 0.258819 0.000000 -0.965926
vn 0.258819 0.000000 -0.965926
vn 0.258819 0.000000 -0.965926
vn 0.258819 0.000000 -0.965926
vn -0.258819 0.000000 -0.965926
vn -0.258819 0.000000 -0.965926
vn -0.258819 0.000000 -0.965926
vn -0.258819 0.000000 -0.965926
vn -0.707112 0.000000 -0.707102
vn -0.707112 0.000000 -0.707102
vn -0.707112 0.000000 -0.707102
vn -0.707112 0.000000 -0.707102
vn -0.965927 0.000000 -0.258816
vn -0.965927 0.000000 -0.258816
vn -0.965927 0.000000 -0.258816
vn -0.965927 0.000000 -0.258816
vn -0.965927 0.000000 0.258816
vn -0.965927 0.000000 0.258816
vn -0.965927 0.000000 0.258816
vn -0.965927 0.000000 0.258816
vn -0.707112 0.000000 0.707102
vn -0.707112 0.000000 0.707102
vn -0.707112 0.000000 0.707102
vn -0.707112 0.000000 0.707102
vn -0.258819 0.000000 0.965926
vn -0.258819 0.000000 0.965926
vn -0.258819 0.000000 0.965926
vn -0.258819 0.000000 0.965926
vn 0.258819 0.000000 0.965926
vn 0.258819 0.000000 0.965926
vn 0.258819 0.000000 0.965926
vn 0.258819 0.000000 0.965926
vn 0.707112 0.000000 0.707102
vn 0.707112 0.000000 0.707102
vn 0.707112 0.000000 0.707102
vn 0.707112 0.000000 0.707102
vn 0.965923 0.000000 0.258830
vn 0.965923 0.000000 0.258830
vn 0.965923 0.000000 0.258830
vn 0.965923 0.000000 0.258830
vn 0.965923 0.000000 -0.258830
vn 0.965923 0.000000 -0.258830
vn 0.965923 0.000000 -0.258830
vn 0.965923 0.000000 -0.258830
vn 0.000000 -1.000000 0.000000
vn 0.000000 -1.000000 0.000000
vn 0.000000 -1.000000 0.000000
vn 0.000000 -1.000000 0.000000
vn 0.000000 -1.000000 0.000000
vn 0.000000 -1.000000 0.000000
vn 0.000000 -1.000000 0.000000
vn 0.000000 -1.000000 0.000000
vn 0.000000 -1.000000 0.000000
vn 0.000000 -1.000000 0.000000
vn 0.000000 -1.000000 0.000000
vn 0.000000 -1.000000 0.000000
vn 0.000000 -1.000000 0.000000
vn 0.000000 1.000000 -0.000004
vn 0.000000 1.000000 -0.000004
vn 0.000000 1.000000 0.000000
vn 0.000000 1.000000 0.000000
vn 0.000000 1.000000 -0.000002
vn 0.000000 1.000000 -0.000002
vn 0.000000 1.000000 0.000000
vn 0.000000 1.000000 0.000004
vn 0.000000 1.000000 0.000004
vn 0.000000 1.000000 0.000000
vn 0.000000 1.000000 0.000002
vn 0.000000 1.000000 0.000002
vn 0.000000 1.000000 0.000000
vn 0.000012 0.006890 0.999976
vn -0.086414 0.040246 0.995446
vn -0.097342 0.017234 0.995102
vn -0.000137 0.005847 0.999983
vn -0.445537 -0.011094 0.895195
vn -0.146552 -0.002707 0.989199
vn -0.214648 -0.000519 0.976691
vn -0.419323 0.004917 0.907824
vn -0.210075 0.158440 0.964762
vn -0.066953 0.057663 0.996089
vn -0.081317 0.096334 0.992022
vn -0.170134 0.192828 0.966370
vn -0.264928 0.116617 0.957191
vn -0.336003 0.063398 0.939725
vn -0.000119 0.004911 0.999988
vn -0.003167 0.001343 0.999994
vn -0.003287 0.001266 0.999994
vn 0.000012 0.006890 -0.999976
vn -0.000137 0.005847 -0.999983
vn -0.097342 0.017234 -0.995102
vn -0.086414 0.040246 -0.995446
vn -0.445537 -0.011094 -0.895195
vn -0.419323 0.004917 -0.907824
vn -0.214648 -0.000519 -0.976691
vn -0.146552 -0.002707 -0.989199
vn -0.210075 0.158440 -0.964762
vn -0.170135 0.192829 -0.966370
vn -0.081318 0.096334 -0.992022
vn -0.066953 0.057663 -0.996089
vn -0.264928 0.116617 -0.957191
vn -0.336003 0.063398 -0.939725
vn -0.000119 0.004911 -0.999988
vn -0.003167 0.001343 -0.999994
vn -0.003287 0.001266 -0.999994
vn 0.983951 -0.178437 0.000000
vn 0.983951 -0.178437 0.000000
vn 0.983951 -0.178437 0.000000
vn 0.983951 -0.178437 0.000000
vn 0.992988 -0.118213 0.000000
vn 0.992988 -0.118213 0.000000
vn 0.992988 -0.118213 0.000000
vn 0.992988 -0.118213 0.000000
vn 0.982299 -0.187322 0.000000
vn 0.982299 -0.187322 0.000000
vn 0.982299 -0.187322 0.000000
vn 0.982299 -0.187322 0.000000
vn 0.998581 -0.053259 0.000000
vn 0.998581 -0.053259 0.000000
vn 0.998581 -0.053259 0.000000
vn 0.998581 -0.053259 0.000000
vn 0.999882 0.015398 0.000000
vn 0.999882 0.015398 0.000000
vn 0.999882 0.015398 0.000000
vn 0.999882 0.015398 0.000000
vn 0.000000 -1.000000 0.000000
vn 0.000000 -1.000000 0.000000
vn 0.000000 -1.000000 0.000000
vn 0.000000 -1.000000 0.000000
vn 0.983951 -0.178438 0.000000
vn 0.983951 -0.178438 0.000000
vn 0.983951 -0.178438 0.000000
vn 0.000000 -1.000000 0.000000
vn 0.000000 -1.000000 0.000000
vn 0.000000 -1.000000 0.000000
s off
g naginata_model
usemtl lambert5SG
f 1/1/1 2/2/2 14/3/3 13/4/4
f 2/2/5 3/5/6 15/6/7 14/3/8
f 3/5/9 4/7/10 16/8/11 15/6/12
f 4/7/13 5/9/14 17/10/15 16/8/16
f 5/9/17 6/11/18 18/12/19 17/10/20
f 6/11/21 7/13/22 19/14/23 18/12/24
f 7/13/25 8/15/26 20/16/27 19/14/28
f 8/15/29 9/17/30 21/18/31 20/16/32
f 9/17/33 10/19/34 22/20/35 21/18/36
f 10/19/37 11/21/38 23/22/39 22/20/40
f 11/21/41 12/23/42 24/24/43 23/22/44
f 12/23/45 1/1/46 13/4/47 24/24/48
s 1
f 2/2/49 1/1/50 25/25/51
f 3/5/52 2/2/49 25/25/51
f 4/7/53 3/5/52 25/25/51
f 5/9/54 4/7/53 25/25/51
f 6/11/55 5/9/54 25/25/51
f 7/13/56 6/11/55 25/25/51
f 8/15/57 7/13/56 25/25/51
f 9/17/58 8/15/57 25/25/51
f 10/19/59 9/17/58 25/25/51
f 11/21/60 10/19/59 25/25/51
f 12/23/61 11/21/60 25/25/51
f 1/1/50 12/23/61 25/25/51
s 2
f 13/4/62 14/3/63 26/26/64
f 14/3/63 15/6/65 26/26/64
f 15/6/65 16/8/66 26/26/64
f 16/8/66 17/10/67 26/26/64
f 17/10/67 18/12/68 26/26/64
f 18/12/68 19/14/69 26/26/64
f 19/14/69 20/16/70 26/26/64
f 20/16/70 21/18/71 26/26/64
f 21/18/71 22/20/72 26/26/64
f 22/20/72 23/22/73 26/26/64
f 23/22/73 24/24/74 26/26/64
f 24/24/74 13/4/62 26/26/64
s off
f 27/27/75 28/28/76 40/29/77 39/30/78
f 28/28/79 29/31/80 41/32/81 40/29/82
f 29/31/83 30/33/84 42/34/85 41/32/86
f 30/33/87 31/35/88 43/36/89 42/34/90
f 31/35/91 32/37/92 44/38/93 43/36/94
f 32/37/95 33/39/96 45/40/97 44/38/98
f 33/39/99 34/41/100 46/42/101 45/40/102
f 34/41/103 35/43/104 47/44/105 46/42/106
f 35/43/107 36/45/108 48/46/109 47/44/110
f 36/45/111 37/47/112 49/48/113 48/46/114
f 37/47/115 38/49/116 50/50/117 49/48/118
f 38/49/119 27/27/120 39/30/121 50/50/122
s 3
f 28/28/123 27/27/124 51/51/125
f 29/31/126 28/28/123 51/51/125
f 30/33/127 29/31/126 51/51/125
f 31/35/128 30/33/127 51/51/125
f 32/37/129 31/35/128 51/51/125
f 33/39/130 32/37/129 51/51/125
f 34/41/131 33/39/130 51/51/125
f 35/43/132 34/41/131 51/51/125
f 36/45/133 35/43/132 51/51/125
f 37/47/134 36/45/133 51/51/125
f 38/49/135 37/47/134 51/51/125
f 27/27/124 38/49/135 51/51/125
s 4
f 39/30/136 40/29/137 52/52/138
f 40/29/137 41/32/139 52/52/138
f 41/32/139 42/34/140 52/52/138
f 42/34/140 43/36/141 52/52/138
f 43/36/141 44/38/142 52/52/138
f 44/38/142 45/40/143 52/52/138
f 45/40/143 46/42/144 52/52/138
f 46/42/144 47/44/145 52/52/138
f 47/44/145 48/46/146 52/52/138
f 48/46/146 49/48/147 52/52/138
f 49/48/147 50/50/148 52/52/138
f 50/50/148 39/30/136 52/52/138
s off
f 53/53/149 54/54/150 66/55/151 65/56/152
f 54/54/153 55/57/154 67/58/155 66/55/156
f 55/57/157 56/59/158 68/60/159 67/58/160
f 56/59/161 57/61/162 69/62/163 68/60/164
f 57/61/165 58/63/166 70/64/167 69/62/168
f 58/63/169 59/65/170 71/66/171 70/64/172
f 59/65/173 60/67/174 72/68/175 71/66/176
f 60/67/177 61/69/178 73/70/179 72/68/180
f 61/69/181 62/71/182 74/72/183 73/70/184
f 62/71/185 63/73/186 75/74/187 74/72/188
f 63/73/189 64/75/190 76/76/191 75/74/192
f 64/75/193 53/53/194 65/56/195 76/76/196
s 5
f 54/54/197 53/53/198 77/77/199
f 55/57/200 54/54/197 77/77/199
f 56/59/201 55/57/200 77/77/199
f 57/61/202 56/59/201 77/77/199
f 58/63/203 57/61/202 77/77/199
f 59/65/204 58/63/203 77/77/199
f 60/67/205 59/65/204 77/77/199
f 61/69/206 60/67/205 77/77/199
f 62/71/207 61/69/206 77/77/199
f 63/73/208 62/71/207 77/77/199
f 64/75/209 63/73/208 77/77/199
f 53/53/198 64/75/209 77/77/199
s 6
f 65/56/210 66/55/211 78/78/212
f 66/55/211 67/58/213 78/78/212
f 67/58/213 68/60/214 78/78/212
f 68/60/214 69/62/215 78/78/212
f 69/62/215 70/64/216 78/78/212
f 70/64/216 71/66/217 78/78/212
f 71/66/217 72/68/218 78/78/212
f 72/68/218 73/70/219 78/78/212
f 73/70/219 74/72/220 78/78/212
f 74/72/220 75/74/221 78/78/212
f 75/74/221 76/76/222 78/78/212
f 76/76/222 65/56/210 78/78/212
s off
f 79/79/223 80/80/224 92/81/225 91/82/226
f 80/80/227 81/83/228 93/84/229 92/81/230
f 81/83/231 82/85/232 94/86/233 93/84/234
f 82/85/235 83/87/236 95/88/237 94/86/238
f 83/87/239 84/89/240 96/90/241 95/88/242
f 84/89/243 85/91/244 97/92/245 96/90/246
f 85/91/247 86/93/248 98/94/249 97/92/250
f 86/93/251 87/95/252 99/96/253 98/94/254
f 87/95/255 88/97/256 100/98/257 99/96/258
f 88/97/259 89/99/260 101/100/261 100/98/262
f 89/99/263 90/101/264 102/102/265 101/100/266
f 90/101/267 79/79/268 91/82/269 102/102/270
s 7
f 80/80/271 79/79/272 103/103/273
f 81/83/274 80/80/271 103/103/273
f 82/85/275 81/83/274 103/103/273
f 83/87/276 82/85/275 103/103/273
f 84/89/277 83/87/276 103/103/273
f 85/91/278 84/89/277 103/103/273
f 86/93/279 85/91/278 103/103/273
f 87/95/280 86/93/279 103/103/273
f 88/97/281 87/95/280 103/103/273
f 89/99/282 88/97/281 103/103/273
f 90/101/283 89/99/282 103/103/273
f 79/79/272 90/101/283 103/103/273
s 8
f 91/82/284 92/81/285 104/104/286
f 92/81/285 93/84/287 104/104/286
f 93/84/287 94/86/288 104/104/286
f 94/86/288 95/88/289 104/104/286
f 95/88/289 96/90/290 104/104/286
f 96/90/290 97/92/291 104/104/286
f 97/92/291 98/94/292 104/104/286
f 98/94/292 99/96/293 104/104/286
f 99/96/293 100/98/294 104/104/286
f 100/98/294 101/100/295 104/104/286
f 101/100/295 102/102/296 104/104/286
f 102/102/296 91/82/284 104/104/286
s off
f 105/105/297 106/106/298 118/107/299 117/108/300
f 106/106/301 107/109/302 119/110/303 118/107/304
f 107/109/305 108/111/306 120/112/307 119/110/308
f 108/111/309 109/113/310 121/114/311 120/112/312
f 109/113/313 110/115/314 122/116/315 121/114/316
f 110/115/317 111/117/318 123/118/319 122/116/320
f 111/117/321 112/119/322 124/120/323 123/118/324
f 112/119/325 113/121/326 125/122/327 124/120/328
f 113/121/329 114/123/330 126/124/331 125/122/332
f 114/123/333 115/125/334 127/126/335 126/124/336
f 115/125/337 116/127/338 128/128/339 127/126/340
f 116/127/341 105/105/342 117/108/343 128/128/344
f 117/108/345 118/107/346 130/129/347 129/130/348
f 118/107/349 119/110/350 131/131/351 130/129/352
f 119/110/353 120/112/354 132/132/355 131/131/356
f 120/112/357 121/114/358 133/133/359 132/132/360
f 121/114/361 122/116/362 134/134/363 133/133/364
f 122/116/365 123/118/366 135/135/367 134/134/368
f 123/118/369 124/120/370 136/136/371 135/135/372
f 124/120/373 125/122/374 137/137/375 136/136/376
f 125/122/377 126/124/378 138/138/379 137/137/380
f 126/124/381 127/126/382 139/139/383 138/138/384
f 127/126/385 128/128/386 140/140/387 139/139/388
f 128/128/389 117/108/390 129/130/391 140/140/392
f 129/130/393 130/129/394 142/141/395 141/142/396
f 130/129/397 131/131/398 143/143/399 142/141/400
f 131/131/401 132/132/402 144/144/403 143/143/404
f 132/132/405 133/133/406 145/145/407 144/144/408
f 133/133/409 134/134/410 146/146/411 145/145/412
f 134/134/413 135/135/414 147/147/415 146/146/416
f 135/135/417 136/136/418 148/148/419 147/147/420
f 136/136/421 137/137/422 149/149/423 148/148/424
f 137/137/425 138/138/426 150/150/427 149/149/428
f 138/138/429 139/139/430 151/151/431 150/150/432
f 139/139/433 140/140/434 152/152/435 151/151/436
f 140/140/437 129/130/438 141/142/439 152/152/440
f 141/142/441 142/141/442 154/153/443 153/154/444
f 142/141/445 143/143/446 155/155/447 154/153/448
f 143/143/449 144/144/450 156/156/451 155/155/452
f 144/144/453 145/145/454 157/157/455 156/156/456
f 145/145/457 146/146/458 158/158/459 157/157/460
f 146/146/461 147/147/462 159/159/463 158/158/464
f 147/147/465 148/148/466 160/160/467 159/159/468
f 148/148/469 149/149/470 161/161/471 160/160/472
f 149/149/473 150/150/474 162/162/475 161/161/476
f 150/150/477 151/151/478 163/163/479 162/162/480
f 151/151/481 152/152/482 164/164/483 163/163/484
f 152/152/485 141/142/486 153/154/487 164/164/488
f 153/154/489 154/153/490 166/165/491 165/166/492
f 154/153/493 155/155/494 167/167/495 166/165/496
f 155/155/497 156/156/498 168/168/499 167/167/500
f 156/156/501 157/157/502 169/169/503 168/168/504
f 157/157/505 158/158/506 170/170/507 169/169/508
f 158/158/509 159/159/510 171/171/511 170/170/512
f 159/159/513 160/160/514 172/172/515 171/171/516
f 160/160/517 161/161/518 173/173/519 172/172/520
f 161/161/521 162/162/522 174/174/523 173/173/524
f 162/162/525 163/163/526 175/175/527 174/174/528
f 163/163/529 164/164/530 176/176/531 175/175/532
f 164/164/533 153/154/534 165/166/535 176/176/536
f 165/166/537 166/165/538 178/177/539 177/178/540
f 166/165/541 167/167/542 179/179/543 178/177/544
f 167/167/545 168/168/546 180/180/547 179/179/548
f 168/168/549 169/169/550 181/181/551 180/180/552
f 169/169/553 170/170/554 182/182/555 181/181/556
f 170/170/557 171/171/558 183/183/559 182/182/560
f 171/171/561 172/172/562 184/184/563 183/183/564
f 172/172/565 173/173/566 185/185/567 184/184/568
f 173/173/569 174/174/570 186/186/571 185/185/572
f 174/174/573 175/175/574 187/187/575 186/186/576
f 175/175/577 176/176/578 188/188/579 187/187/580
f 176/176/581 165/166/582 177/178/583 188/188/584
f 177/178/585 178/177/586 190/189/587 189/190/588
f 178/177/589 179/179/590 191/191/591 190/189/592
f 179/179/593 180/180/594 192/192/595 191/191/596
f 180/180/597 181/181/598 193/193/599 192/192/600
f 181/181/601 182/182/602 194/194/603 193/193/604
f 182/182/605 183/183/606 195/195/607 194/194/608
f 183/183/609 184/184/610 196/196/611 195/195/612
f 184/184/613 185/185/614 197/197/615 196/196/616
f 185/185/617 186/186/618 198/198/619 197/197/620
f 186/186/621 187/187/622 199/199/623 198/198/624
f 187/187/625 188/188/626 200/200/627 199/199/628
f 188/188/629 177/178/630 189/190/631 200/200/632
f 189/190/633 190/189/634 202/201/635 201/202/636
f 190/189/637 191/191/638 203/203/639 202/201/640
f 191/191/641 192/192/642 204/204/643 203/203/644
f 192/192/645 193/193/646 205/205/647 204/204/648
f 193/193/649 194/194/650 206/206/651 205/205/652
f 194/194/653 195/195/654 207/207/655 206/206/656
f 195/195/657 196/196/658 208/208/659 207/207/660
f 196/196/661 197/197/662 209/209/663 208/208/664
f 197/197/665 198/198/666 210/210/667 209/209/668
f 198/198/669 199/199/670 211/211/671 210/210/672
f 199/199/673 200/200/674 212/212/675 211/211/676
f 200/200/677 189/190/678 201/202/679 212/212/680
f 201/202/681 202/201/682 214/213/683 213/214/684
f 202/201/685 203/203/686 215/215/687 214/213/688
f 203/203/689 204/204/690 216/216/691 215/215/692
f 204/204/693 205/205/694 217/217/695 216/216/696
f 205/205/697 206/206/698 218/218/699 217/217/700
f 206/206/701 207/207/702 219/219/703 218/218/704
f 207/207/705 208/208/706 220/220/707 219/219/708
f 208/208/709 209/209/710 221/221/711 220/220/712
f 209/209/713 210/210/714 222/222/715 221/221/716
f 210/210/717 211/211/718 223/223/719 222/222/720
f 211/211/721 212/212/722 224/224/723 223/223/724
f 212/212/725 201/202/726 213/214/727 224/224/728
f 213/214/729 214/213/730 226/225/731 225/226/732
f 214/213/733 215/215/734 227/227/735 226/225/736
f 215/215/737 216/216/738 228/228/739 227/227/740
f 216/216/741 217/217/742 229/229/743 228/228/744
f 217/217/745 218/218/746 230/230/747 229/229/748
f 218/218/749 219/219/750 231/231/751 230/230/752
f 219/219/753 220/220/754 232/232/755 231/231/756
f 220/220/757 221/221/758 233/233/759 232/232/760
f 221/221/761 222/222/762 234/234/763 233/233/764
f 222/222/765 223/223/766 235/235/767 234/234/768
f 223/223/769 224/224/770 236/236/771 235/235/772
f 224/224/773 213/214/774 225/226/775 236/236/776
f 106/106/777 105/105/778 237/237/779
f 107/109/780 106/106/781 237/237/782
f 108/111/783 107/109/784 237/237/785
f 109/113/786 108/111/787 237/237/788
f 110/115/789 109/113/790 237/237/791
f 111/117/792 110/115/793 237/237/794
f 112/119/795 111/117/796 237/237/797
f 113/121/798 112/119/799 237/237/800
f 114/123/801 113/121/802 237/237/803
f 115/125/804 114/123/805 237/237/806
f 116/127/807 115/125/808 237/237/809
f 105/105/810 116/127/811 237/237/812
f 225/226/813 226/225/814 238/238/815
f 226/225/816 227/227/817 238/238/818
f 227/227/819 228/228/820 238/238/821
f 228/228/822 229/229/823 238/238/824
f 229/229/825 230/230/826 238/238/827
f 230/230/828 231/231/829 238/238/830
f 231/231/831 232/232/832 238/238/833
f 232/232/834 233/233/835 238/238/836
f 233/233/837 234/234/838 238/238/839
f 234/234/840 235/235/841 238/238/842
f 235/235/843 236/236/844 238/238/845
f 236/236/846 225/226/847 238/238/848
f 239/239/849 240/240/850 252/241/851 251/242/852
f 240/240/853 241/243/854 253/244/855 252/241/856
f 241/243/857 242/245/858 254/246/859 253/244/860
f 242/245/861 243/247/862 255/248/863 254/246/864
f 243/247/865 244/249/866 256/250/867 255/248/868
f 244/249/869 245/251/870 257/252/871 256/250/872
f 245/251/873 246/253/874 258/254/875 257/252/876
f 246/253/877 247/255/878 259/256/879 258/254/880
f 247/255/881 248/257/882 260/258/883 259/256/884
f 248/257/885 249/259/886 261/260/887 260/258/888
f 249/259/889 250/261/890 262/262/891 261/260/892
f 250/261/893 239/239/894 251/242/895 262/262/896
s 9
f 240/240/897 239/239/898 263/263/899
f 241/243/900 240/240/897 263/263/899
f 242/245/901 241/243/900 263/263/899
f 243/247/902 242/245/901 263/263/899
f 244/249/903 243/247/902 263/263/899
f 245/251/904 244/249/903 263/263/899
f 246/253/905 245/251/904 263/263/899
f 247/255/906 246/253/905 263/263/899
f 248/257/907 247/255/906 263/263/899
f 249/259/908 248/257/907 263/263/899
f 250/261/909 249/259/908 263/263/899
f 239/239/898 250/261/909 263/263/899
s 10
f 251/242/910 252/241/911 264/264/912
f 252/241/911 253/244/913 264/264/912
f 253/244/913 254/246/914 264/264/912
f 254/246/914 255/248/915 264/264/912
f 255/248/915 256/250/916 264/264/912
f 256/250/916 257/252/917 264/264/912
f 257/252/917 258/254/918 264/264/912
f 258/254/918 259/256/919 264/264/912
f 259/256/919 260/258/920 264/264/912
f 260/258/920 261/260/921 264/264/912
f 261/260/921 262/262/922 264/264/912
f 262/262/922 251/242/910 264/264/912
s 11
f 271/292/923 279/291/924 280/290/925 272/289/926
f 265/288/927 277/287/928 281/286/929 266/285/930
f 269/284/931 278/283/932 276/282/933 270/281/934
f 268/280/935 279/291/924 278/283/932 269/284/931
f 267/279/936 280/290/925 279/291/924 268/280/935
f 266/285/930 281/286/929 280/290/925 267/279/936
f 276/282/933 278/283/932 279/291/924 271/292/923
f 273/278/937 281/286/929 274/277/938
f 272/289/926 280/290/925 281/286/929 273/278/937
f 274/277/938 281/286/929 277/287/928 275/276/939
s 14
f 282/275/940 283/274/941 291/273/942 290/272/943
f 265/288/944 266/285/945 292/271/946 288/270/947
f 269/284/948 270/281/949 287/269/950 289/268/951
f 268/280/952 269/284/948 289/268/951 290/272/943
f 267/279/953 268/280/952 290/272/943 291/273/942
f 266/285/945 267/279/953 291/273/942 292/271/946
f 287/269/950 282/275/940 290/272/943 289/268/951
f 284/267/954 285/266/955 292/271/946
f 283/274/941 284/267/954 292/271/946 291/273/942
f 285/266/955 286/265/956 288/270/947 292/271/946
s off
f 276/282/957 271/292/958 282/275/959 287/269/960
f 271/292/961 272/289/962 283/274/963 282/275/964
f 272/289/965 273/278/966 284/267/967 283/274/968
f 273/278/969 274/277/970 285/266/971 284/267/972
f 274/277/973 275/276/974 286/265/975 285/266/976
f 275/276/977 277/287/978 288/270/979 286/265/980
f 276/282/981 287/269/982 270/281/983
f 265/288/984 288/270/985 277/287/986
