# This file uses inches as units for non-parametric coordinates.

mtllib sword.mtl
g default
v -351.942455 7.965956 9.950469
v -355.504475 7.965956 8.475031
v -359.066494 7.965956 9.950469
v -360.541912 7.965956 13.512493
v -359.066494 7.965956 17.074516
v -355.504475 7.965956 18.549954
v -351.942455 7.965956 17.074516
v -350.466976 7.965956 13.512493
v -351.399388 15.156356 9.407405
v -355.504475 15.156356 7.707023
v -359.609547 15.156356 9.407405
v -361.309925 15.156356 13.512493
v -359.609547 15.156356 17.617579
v -355.504475 15.156356 19.317962
v -351.399388 15.156356 17.617580
v -349.699001 15.156356 13.512493
v -351.130398 22.403358 9.138443
v -355.504475 22.403358 7.326651
v -359.878506 22.403358 9.138443
v -361.690296 22.403358 13.512493
v -359.878506 22.403358 17.886543
v -355.504475 22.403358 19.698334
v -351.130398 22.403358 17.886543
v -349.318623 22.403358 13.512493
v -351.399388 29.650360 9.407405
v -355.504475 29.650360 7.707023
v -359.609547 29.650360 9.407405
v -361.309925 29.650360 13.512493
v -359.609547 29.650360 17.617579
v -355.504475 29.650360 19.317962
v -351.399388 29.650360 17.617580
v -349.699001 29.650360 13.512493
v -355.504475 38.943214 4.509847
v -355.504475 44.717148 5.491627
v -361.447209 39.077419 6.722496
v -360.548695 45.933529 5.877563
v -364.291660 53.401299 7.765860
v -364.560612 39.146572 13.512491
v -371.155811 52.233822 13.512491
v -362.643482 53.815495 13.512491
v -360.604878 45.933529 13.512491
v -355.504475 44.717148 13.512491
v -355.504475 37.229736 7.643030
v -359.409596 37.229740 9.020329
v -361.536808 37.229744 13.512491
v -355.504475 37.297520 6.752171
v -359.973057 37.294277 8.341812
v -362.404392 37.295460 13.512491
v -355.504475 35.429253 8.436583
v -358.849178 35.426361 9.630149
v -360.674694 35.427418 13.512491
v -370.185414 52.233822 9.747787
v -367.168949 52.743984 7.765859
v -360.864842 41.881207 5.974827
v -355.504475 41.305935 4.320227
v -349.561710 39.077419 6.722496
v -350.460240 45.933529 5.877563
v -346.717289 53.401299 7.765860
v -346.448307 39.146572 13.512491
v -339.853092 52.233822 13.512491
v -348.365452 53.815495 13.512491
v -350.404057 45.933529 13.512491
v -351.599308 37.229740 9.020329
v -349.472111 37.229744 13.512491
v -351.035832 37.294277 8.341812
v -348.604557 37.295460 13.512491
v -352.159741 35.426361 9.630149
v -350.334248 35.427418 13.512491
v -340.823521 52.233822 9.747787
v -343.839970 52.743984 7.765859
v -350.144047 41.881207 5.974827
v -355.504475 38.943214 22.515136
v -355.504475 44.717148 21.533355
v -361.447209 39.077419 20.302486
v -360.604878 45.933529 21.147420
v -362.643482 53.815495 19.259122
v -355.504475 37.229736 19.381952
v -359.409596 37.229740 18.004654
v -355.504475 37.297520 20.272812
v -359.973057 37.294277 18.683171
v -355.504475 35.429253 18.588400
v -358.849178 35.426361 17.394834
v -370.185414 52.233822 17.277195
v -367.168949 52.743984 19.259123
v -360.864842 41.881207 21.050155
v -355.504475 41.305935 22.704755
v -349.561710 39.077419 20.302486
v -350.404057 45.933529 21.147420
v -348.365452 53.815495 19.259122
v -351.599308 37.229740 18.004654
v -351.035832 37.294277 18.683171
v -352.159741 35.426361 17.394834
v -340.823521 52.233822 17.277195
v -343.839970 52.743984 19.259123
v -350.144047 41.881207 21.050155
v -346.812748 6.030087 4.820781
v -355.504475 6.030087 1.220557
v -364.196179 6.030087 4.820781
v -367.796398 6.030087 13.512492
v -364.196179 6.030087 22.204205
v -355.504475 6.030087 25.804427
v -346.812748 6.030087 22.204206
v -343.212551 6.030087 13.512492
v -346.812748 3.397308 4.820781
v -355.504475 3.397308 1.220557
v -364.196179 3.397308 4.820781
v -367.796398 3.397308 13.512492
v -364.196179 3.397308 22.204205
v -355.504475 3.397308 25.804427
v -346.812748 3.397308 22.204206
v -343.212551 3.397308 13.512492
v -351.632641 1.151701 9.640669
v -355.504475 1.151701 8.036908
v -359.376293 1.151701 9.640669
v -360.980045 1.151701 13.512493
v -359.376293 1.151701 17.384316
v -355.504475 1.151701 18.988077
v -351.632641 1.151701 17.384316
v -350.028858 1.151701 13.512493
v -355.504429 -4.732679 13.512493
v -351.632641 -2.569559 9.640669
v -353.568356 -4.732683 11.576384
v -355.504475 -2.569559 8.036908
v -355.504475 -4.732683 10.774419
v -359.376293 -2.569559 9.640669
v -357.440579 -4.732683 11.576384
v -360.980045 -2.569559 13.512493
v -358.242527 -4.732683 13.512493
v -359.376293 -2.569559 17.384316
v -357.440579 -4.732683 15.448602
v -355.504475 -2.569559 18.988077
v -355.504475 -4.732683 16.250567
v -351.632641 -2.569559 17.384316
v -353.568356 -4.732683 15.448602
v -350.028858 -2.569559 13.512493
v -352.766377 -4.732683 13.512493
v -359.116963 57.040321 9.576157
v -360.299854 56.683395 9.576157
v -359.116963 57.040321 13.512491
v -361.539967 56.173241 10.933740
v -361.938908 56.173241 13.512491
v -351.891941 57.040321 9.576157
v -350.709049 56.683395 9.576157
v -351.891941 57.040321 13.512491
v -349.468968 56.173241 10.933740
v -349.070042 56.173241 13.512491
v -359.116963 57.040321 17.448825
v -360.299854 56.683395 17.448825
v -361.539967 56.173241 16.091242
v -351.891941 57.040321 17.448825
v -350.709049 56.683395 17.448825
v -349.468968 56.173241 16.091242
v -348.123020 49.149769 20.480019
v -348.123020 49.149769 13.512491
v -348.204594 49.149769 6.544964
v -346.519108 46.794949 6.589345
v -344.619755 45.137974 7.835225
v -342.464390 45.172554 13.512491
v -344.619755 45.137974 19.189757
v -346.519108 46.794949 20.435638
v -362.885945 49.149769 20.480019
v -364.489826 46.794949 20.435638
v -366.389179 45.137974 19.189757
v -368.544560 45.172554 13.512491
v -366.389179 45.137974 7.835225
v -364.489826 46.794949 6.589345
v -362.804386 49.149769 6.544964
v -362.885945 49.149769 13.512491
v -359.555882 182.127655 11.846913
v -355.504475 182.127655 11.157006
v -351.453068 182.127655 11.846913
v -349.774906 182.127655 13.512492
v -351.453068 182.127655 15.178071
v -355.504475 182.127655 15.867977
v -359.555882 182.127655 15.178071
v -361.234013 182.127655 13.512492
v -362.237171 44.053299 10.744605
v -355.504475 44.053299 9.598109
v -348.771763 44.053299 10.744605
v -345.983006 44.053299 13.512492
v -348.771763 44.053299 16.280379
v -355.504475 44.053299 17.426875
v -362.237171 44.053299 16.280379
v -365.025944 44.053299 13.512492
v -355.504475 189.351471 13.512492
v -355.504475 44.053299 13.512492
v -364.493290 114.137779 13.512492
v -361.860539 114.137779 16.125541
v -355.504475 114.137779 17.207901
v -349.148411 114.137779 16.125541
v -346.515629 114.137779 13.512492
v -349.148411 114.137779 10.899443
v -355.504475 114.137779 9.817082
v -361.860539 114.137779 10.899443
v -361.333714 147.267975 15.908963
v -355.504475 147.267975 16.901613
v -349.675236 147.267975 15.908963
v -347.260655 147.267975 13.512492
v -349.675236 147.267975 11.116021
v -355.504475 147.267975 10.123370
v -361.333714 147.267975 11.116021
v -363.748280 147.267975 13.512492
v -355.504475 78.709465 17.340933
v -348.919590 78.709465 16.219608
v -346.192051 78.709465 13.512492
v -348.919590 78.709465 10.805375
v -355.504475 78.709465 9.684051
v -362.089344 78.709465 10.805375
v -364.816883 78.709465 13.512492
v -362.089344 78.709465 16.219609
v -351.891941 57.040321 15.480658
v -348.365452 53.815495 16.385807
v -348.123020 49.149769 16.996255
v -350.404057 45.933529 17.329955
v -355.504475 44.717148 17.522924
v -360.604878 45.933529 17.329955
v -362.885945 49.149769 16.996255
v -362.643482 53.815495 16.385807
v -359.116963 57.040321 15.480658
v -359.116963 57.040321 11.544324
v -363.467571 53.608398 10.639175
v -362.845165 49.149769 10.028728
v -360.576786 45.933529 9.695027
v -355.504475 44.717148 9.502059
v -350.432148 45.933529 9.695027
v -348.163807 49.149769 10.028728
v -347.541371 53.608398 10.639175
v -351.891941 57.040321 11.544324
vt 0.320354 0.078163
vt 0.302539 0.078163
vt 0.302539 0.114125
vt 0.323071 0.114125
vt 0.284724 0.078163
vt 0.282008 0.114125
vt 0.277345 0.078163
vt 0.273504 0.114125
vt 0.277382 0.078163
vt 0.284761 0.078163
vt 0.282045 0.114125
vt 0.273541 0.114125
vt 0.302576 0.078163
vt 0.302576 0.114125
vt 0.327734 0.078163
vt 0.331575 0.114125
vt 0.302539 0.150371
vt 0.324416 0.150371
vt 0.280663 0.150371
vt 0.271601 0.150371
vt 0.320392 0.078163
vt 0.323108 0.114125
vt 0.327771 0.078163
vt 0.333477 0.150371
vt 0.302539 0.186616
vt 0.323071 0.186616
vt 0.282008 0.186616
vt 0.273504 0.186616
vt 0.331612 0.114125
vt 0.280700 0.150371
vt 0.271639 0.150371
vt 0.331575 0.186616
vt 0.237320 0.264249
vt 0.248100 0.264076
vt 0.272817 0.233765
vt 0.257246 0.234110
vt 0.257600 0.272363
vt 0.275730 0.247788
vt 0.277311 0.268055
vt 0.302539 0.261971
vt 0.302539 0.244910
vt 0.266029 0.284141
vt 0.265825 0.284141
vt 0.277171 0.268055
vt 0.302539 0.261971
vt 0.283008 0.224524
vt 0.272369 0.224524
vt 0.302539 0.233093
vt 0.302539 0.224524
vt 0.280190 0.224846
vt 0.268030 0.224852
vt 0.302539 0.224863
vt 0.285811 0.215504
vt 0.276681 0.215509
vt 0.302539 0.215519
vt 0.367758 0.264249
vt 0.347833 0.234110
vt 0.332262 0.233765
vt 0.356978 0.264076
vt 0.329349 0.247788
vt 0.347479 0.272363
vt 0.327768 0.268055
vt 0.339049 0.284141
vt 0.327908 0.268055
vt 0.339253 0.284141
vt 0.332710 0.224524
vt 0.322071 0.224524
vt 0.337049 0.224852
vt 0.324889 0.224846
vt 0.328398 0.215509
vt 0.319268 0.215504
vt 0.302576 0.150371
vt 0.324453 0.150371
vt 0.333514 0.150371
vt 0.282045 0.186616
vt 0.273541 0.186616
vt 0.302576 0.186616
vt 0.323108 0.186616
vt 0.331612 0.186616
vt 0.237358 0.264249
vt 0.257283 0.234110
vt 0.272854 0.233765
vt 0.248137 0.264076
vt 0.275767 0.247788
vt 0.257637 0.272363
vt 0.302576 0.244910
vt 0.302576 0.261971
vt 0.277067 0.268055
vt 0.265659 0.284141
vt 0.265659 0.284141
vt 0.277067 0.268055
vt 0.302576 0.261971
vt 0.272406 0.224524
vt 0.283045 0.224524
vt 0.302576 0.233093
vt 0.302576 0.224524
vt 0.268067 0.224852
vt 0.280227 0.224846
vt 0.302576 0.224863
vt 0.276718 0.215509
vt 0.346010 0.068481
vt 0.302539 0.068481
vt 0.259068 0.068481
vt 0.241062 0.068481
vt 0.285848 0.215504
vt 0.302576 0.215519
vt 0.367795 0.264249
vt 0.364016 0.068481
vt 0.346010 0.055313
vt 0.302539 0.055313
vt 0.259068 0.055313
vt 0.241062 0.055313
vt 0.357016 0.264076
vt 0.332299 0.233765
vt 0.347870 0.234110
vt 0.364016 0.055313
vt 0.321904 0.044082
vt 0.302539 0.044082
vt 0.283175 0.044082
vt 0.275154 0.044082
vt 0.347516 0.272363
vt 0.329386 0.247788
vt 0.328086 0.268055
vt 0.329925 0.044082
vt 0.321904 0.025471
vt 0.312223 0.014652
vt 0.302539 0.014652
vt 0.302539 0.025471
vt 0.329925 0.025471
vt 0.316234 0.014652
vt 0.292856 0.014652
vt 0.283175 0.025471
vt 0.288845 0.014652
vt 0.275154 0.025471
vt 0.339494 0.284141
vt 0.339494 0.284141
vt 0.328086 0.268055
vt 0.322108 0.224524
vt 0.332747 0.224524
vt 0.324926 0.224846
vt 0.302539 0.014652
vt 0.258591 0.305404
vt 0.244200 0.302117
vt 0.278556 0.321819
vt 0.284472 0.323605
vt 0.262713 0.306440
vt 0.284472 0.323605
vt 0.229114 0.299565
vt 0.224260 0.299565
vt 0.270358 0.319268
vt 0.272353 0.319268
vt 0.360878 0.302117
vt 0.346488 0.305404
vt 0.320607 0.323605
vt 0.326523 0.321819
vt 0.342366 0.306440
vt 0.320607 0.323605
vt 0.380818 0.299565
vt 0.375965 0.299565
vt 0.332725 0.319268
vt 0.334720 0.319268
vt 0.337086 0.224852
vt 0.319305 0.215504
vt 0.328435 0.215509
vt 0.241099 0.068481
vt 0.259106 0.068481
vt 0.302576 0.068481
vt 0.346047 0.068481
vt 0.364053 0.068481
vt 0.241099 0.055313
vt 0.259106 0.055313
vt 0.302576 0.055313
vt 0.346047 0.055313
vt 0.364053 0.055313
vt 0.275191 0.044082
vt 0.283212 0.044082
vt 0.302576 0.044082
vt 0.282276 0.949219
vt 0.302539 0.949219
vt 0.302539 0.774871
vt 0.273385 0.774871
vt 0.322802 0.949219
vt 0.331694 0.774871
vt 0.331195 0.949219
vt 0.343770 0.774871
vt 0.321941 0.044082
vt 0.329962 0.044082
vt 0.275191 0.025471
vt 0.288882 0.014652
vt 0.292893 0.014652
vt 0.283212 0.025471
vt 0.273883 0.949219
vt 0.261309 0.774871
vt 0.302539 0.985348
vt 0.268866 0.258651
vt 0.302539 0.258651
vt 0.302539 0.258651
vt 0.336212 0.258651
vt 0.350160 0.258651
vt 0.302576 0.014652
vt 0.302576 0.025471
vt 0.312260 0.014652
vt 0.254918 0.258651
vt 0.321941 0.025471
vt 0.334329 0.609173
vt 0.347496 0.609173
vt 0.316271 0.014652
vt 0.329962 0.025471
vt 0.302577 0.014652
vt 0.244238 0.302117
vt 0.266871 0.307476
vt 0.349115 0.431981
vt 0.335473 0.431981
vt 0.302539 0.609173
vt 0.302539 0.431981
vt 0.270750 0.609173
vt 0.269606 0.431981
vt 0.257582 0.609173
vt 0.255964 0.431981
vt 0.320607 0.323605
vt 0.284472 0.323605
vt 0.266834 0.307476
vt 0.265621 0.284141
vt 0.277030 0.268055
vt 0.302539 0.261971
vt 0.328049 0.268055
vt 0.339457 0.284141
vt 0.338245 0.307476
vt 0.284509 0.323605
vt 0.278593 0.321819
vt 0.266871 0.307476
vt 0.284509 0.323605
vt 0.224298 0.299565
vt 0.229151 0.299565
vt 0.272390 0.319268
vt 0.270395 0.319268
vt 0.338282 0.307476
vt 0.360915 0.302117
vt 0.326560 0.321819
vt 0.320644 0.323605
vt 0.338282 0.307476
vt 0.320644 0.323605
vt 0.376002 0.299565
vt 0.380856 0.299565
vt 0.334758 0.319268
vt 0.332762 0.319268
vt 0.331232 0.949219
vt 0.322839 0.949219
vt 0.331731 0.774871
vt 0.343807 0.774871
vt 0.302576 0.949219
vt 0.302576 0.774871
vt 0.282314 0.949219
vt 0.273422 0.774871
vt 0.273921 0.949219
vt 0.261346 0.774871
vt 0.302576 0.985348
vt 0.350197 0.258651
vt 0.336250 0.258651
vt 0.302576 0.258651
vt 0.302576 0.258651
vt 0.268903 0.258651
vt 0.254956 0.258651
vt 0.270787 0.609173
vt 0.257620 0.609173
vt 0.256001 0.431981
vt 0.269643 0.431981
vt 0.302576 0.609173
vt 0.302576 0.431981
vt 0.334366 0.609173
vt 0.335510 0.431981
vt 0.347533 0.609173
vt 0.349152 0.431981
vt 0.284509 0.323605
vt 0.320644 0.323605
vt 0.338282 0.307476
vt 0.339494 0.284141
vt 0.328086 0.268055
vt 0.302576 0.261971
vt 0.277067 0.268055
vt 0.265659 0.284141
vt 0.266871 0.307476
vn 0.380834 -0.098203 -0.919414
vn 0.380834 -0.098203 -0.919414
vn 0.381702 -0.071556 -0.921511
vn 0.381702 -0.071556 -0.921512
vn -0.380834 -0.098203 -0.919414
vn -0.380834 -0.098203 -0.919414
vn -0.381703 -0.071555 -0.921511
vn -0.381704 -0.071555 -0.921511
vn -0.919415 -0.098203 -0.380831
vn -0.919415 -0.098203 -0.380831
vn -0.921512 -0.071555 -0.381701
vn -0.921512 -0.071555 -0.381701
vn -0.919415 -0.098202 0.380831
vn -0.919415 -0.098202 0.380831
vn -0.921512 -0.071555 0.381701
vn -0.921512 -0.071555 0.381701
vn -0.380834 -0.098202 0.919414
vn -0.380834 -0.098202 0.919414
vn -0.381704 -0.071555 0.921511
vn -0.381704 -0.071555 0.921511
vn 0.380834 -0.098203 0.919414
vn 0.380834 -0.098203 0.919414
vn 0.381702 -0.071555 0.921512
vn 0.381702 -0.071556 0.921512
vn 0.919412 -0.098201 0.380838
vn 0.919412 -0.098201 0.380838
vn 0.921511 -0.071555 0.381704
vn 0.921511 -0.071555 0.381704
vn 0.919412 -0.098201 -0.380838
vn 0.919412 -0.098201 -0.380838
vn 0.921511 -0.071555 -0.381704
vn 0.921511 -0.071555 -0.381704
vn 0.382683 -0.000000 -0.923880
vn 0.382682 -0.000000 -0.923880
vn -0.382685 0.000000 -0.923879
vn -0.382685 -0.000000 -0.923879
vn -0.923880 -0.000000 -0.382683
vn -0.923880 -0.000000 -0.382683
vn -0.923880 0.000000 0.382683
vn -0.923880 0.000000 0.382683
vn -0.382685 0.000000 0.923879
vn -0.382685 0.000000 0.923879
vn 0.382682 -0.000000 0.923880
vn 0.382682 -0.000000 0.923880
vn 0.923880 -0.000000 0.382682
vn 0.923880 0.000000 0.382682
vn 0.923880 0.000000 -0.382682
vn 0.923880 0.000000 -0.382682
vn 0.382233 0.048435 -0.922796
vn 0.382233 0.048435 -0.922796
vn -0.382236 0.048434 -0.922795
vn -0.382236 0.048434 -0.922795
vn -0.922795 0.048434 -0.382234
vn -0.922796 0.048434 -0.382234
vn -0.922795 0.048434 0.382234
vn -0.922795 0.048434 0.382234
vn -0.382236 0.048435 0.922795
vn -0.382236 0.048435 0.922795
vn 0.382233 0.048435 0.922796
vn 0.382233 0.048435 0.922796
vn 0.922796 0.048436 0.382233
vn 0.922796 0.048436 0.382233
vn 0.922796 0.048435 -0.382233
vn 0.922796 0.048435 -0.382233
vn -0.834220 -0.456352 -0.309547
vn -0.756641 -0.395999 -0.520268
vn -0.665879 -0.420953 -0.615957
vn -0.775243 -0.542771 -0.323109
vn -0.363289 -0.035010 -0.931018
vn -0.300374 -0.053207 -0.952336
vn -0.168884 0.085036 -0.981961
vn -0.165857 0.147357 -0.975078
vn -0.247804 0.011972 -0.968736
vn 0.893110 0.446999 -0.050472
vn 0.923130 0.379651 -0.060794
vn 0.817602 0.575732 0.007712
vn 0.818497 0.574460 0.007720
vn 0.233854 0.972271 0.000839
vn 0.233209 0.972426 0.000837
vn 0.233241 0.972419 0.000837
vn 0.233854 0.972272 0.000839
vn -0.368955 -0.857476 -0.358617
vn -0.371016 -0.857283 -0.356948
vn -0.510482 -0.827987 -0.232046
vn -0.510482 -0.827987 -0.232046
vn -0.189411 -0.852199 -0.487729
vn -0.189411 -0.852199 -0.487729
vn 0.052248 0.997223 0.053074
vn 0.050868 0.997233 0.054216
vn 0.074178 0.996635 0.034872
vn 0.074178 0.996635 0.034872
vn 0.026077 0.996866 0.074693
vn 0.026077 0.996866 0.074693
vn -0.693682 -0.642274 -0.326021
vn -0.693682 -0.642274 -0.326021
vn -0.693682 -0.642274 -0.326021
vn -0.693682 -0.642274 -0.326021
vn -0.255167 -0.647852 -0.717759
vn -0.255167 -0.647851 -0.717759
vn -0.255167 -0.647851 -0.717759
vn -0.255167 -0.647852 -0.717759
vn -0.328300 -0.132656 -0.935212
vn -0.142251 0.127941 -0.981527
vn 0.834220 -0.456352 -0.309547
vn 0.775244 -0.542768 -0.323109
vn 0.665880 -0.420952 -0.615957
vn 0.756642 -0.395999 -0.520267
vn 0.300374 -0.053207 -0.952336
vn 0.363289 -0.035009 -0.931019
vn 0.247802 0.011972 -0.968737
vn 0.165855 0.147358 -0.975078
vn 0.168883 0.085038 -0.981961
vn -0.893111 0.446995 -0.050470
vn -0.818501 0.574453 0.007722
vn -0.817607 0.575725 0.007713
vn -0.923131 0.379650 -0.060792
vn -0.233854 0.972272 0.000839
vn -0.233854 0.972271 0.000839
vn -0.233241 0.972419 0.000837
vn -0.233208 0.972426 0.000837
vn 0.368954 -0.857476 -0.358619
vn 0.510483 -0.827987 -0.232046
vn 0.510483 -0.827987 -0.232046
vn 0.371016 -0.857283 -0.356949
vn 0.189410 -0.852199 -0.487730
vn 0.189410 -0.852199 -0.487730
vn -0.052248 0.997223 0.053073
vn -0.074180 0.996635 0.034871
vn -0.074180 0.996635 0.034871
vn -0.050869 0.997233 0.054216
vn -0.026077 0.996866 0.074692
vn -0.026077 0.996866 0.074692
vn 0.693685 -0.642274 -0.326015
vn 0.693685 -0.642274 -0.326015
vn 0.693685 -0.642274 -0.326015
vn 0.693685 -0.642274 -0.326015
vn 0.255165 -0.647852 -0.717759
vn 0.255165 -0.647852 -0.717759
vn 0.255165 -0.647852 -0.717759
vn 0.255165 -0.647852 -0.717759
vn 0.328298 -0.132658 -0.935212
vn 0.142249 0.127942 -0.981527
vn -0.834220 -0.456353 0.309547
vn -0.775242 -0.542771 0.323109
vn -0.665879 -0.420954 0.615957
vn -0.756641 -0.396000 0.520268
vn -0.300386 -0.053381 0.952323
vn -0.355664 -0.026339 0.934242
vn -0.247307 0.011595 0.968868
vn -0.165233 0.146128 0.975369
vn -0.170211 0.083252 0.981885
vn 0.961860 0.273541 0.000000
vn 0.947555 0.319594 0.000000
vn 0.815679 0.578505 0.000000
vn 0.815679 0.578505 0.000000
vn 0.231981 0.972720 0.000000
vn 0.231981 0.972720 0.000000
vn 0.231981 0.972720 0.000000
vn 0.231981 0.972720 0.000000
vn -0.368955 -0.857476 0.358618
vn -0.510483 -0.827987 0.232046
vn -0.510483 -0.827987 0.232046
vn -0.371016 -0.857283 0.356949
vn -0.189411 -0.852199 0.487730
vn -0.189411 -0.852199 0.487730
vn 0.052248 0.997223 -0.053074
vn 0.074179 0.996635 -0.034872
vn 0.074179 0.996635 -0.034872
vn 0.050868 0.997233 -0.054216
vn 0.026077 0.996866 -0.074693
vn 0.026077 0.996866 -0.074693
vn -0.693684 -0.642272 0.326021
vn -0.693684 -0.642272 0.326021
vn -0.693684 -0.642272 0.326021
vn -0.693684 -0.642272 0.326021
vn -0.255167 -0.647852 0.717759
vn -0.255167 -0.647852 0.717759
vn -0.255167 -0.647852 0.717759
vn -0.255167 -0.647852 0.717759
vn -0.328300 -0.132657 0.935212
vn -0.130685 0.151830 0.979729
vn 0.834221 -0.456352 0.309547
vn 0.756642 -0.395999 0.520267
vn 0.665880 -0.420952 0.615957
vn 0.775244 -0.542768 0.323109
vn 0.355664 -0.026338 0.934243
vn 0.300385 -0.053381 0.952323
vn 0.170210 0.083254 0.981885
vn 0.165231 0.146129 0.975369
vn 0.247305 0.011595 0.968868
vn -0.947555 0.319594 0.000000
vn -0.961860 0.273542 0.000000
vn -0.815682 0.578501 0.000000
vn -0.815681 0.578501 0.000000
vn -0.231981 0.972720 0.000000
vn -0.231981 0.972720 0.000000
vn -0.231981 0.972720 0.000000
vn -0.231981 0.972720 0.000000
vn 0.368954 -0.857476 0.358619
vn 0.371016 -0.857283 0.356949
vn 0.510483 -0.827987 0.232046
vn 0.510483 -0.827987 0.232046
vn 0.189410 -0.852199 0.487730
vn 0.189410 -0.852199 0.487730
vn -0.052248 0.997223 -0.053073
vn -0.050869 0.997233 -0.054215
vn -0.074179 0.996635 -0.034871
vn -0.074179 0.996635 -0.034871
vn -0.026077 0.996866 -0.074692
vn -0.026077 0.996866 -0.074692
vn 0.693682 -0.642278 0.326013
vn 0.693682 -0.642278 0.326013
vn 0.693682 -0.642278 0.326013
vn 0.693682 -0.642278 0.326013
vn 0.255165 -0.647852 0.717759
vn 0.255165 -0.647852 0.717760
vn 0.255165 -0.647852 0.717760
vn 0.255165 -0.647852 0.717759
vn 0.328298 -0.132658 0.935213
vn 0.130684 0.151831 0.979729
vn -0.360313 0.100146 -0.927440
vn -0.360313 0.100146 -0.927440
vn -0.360313 0.100146 -0.927440
vn -0.360313 0.100146 -0.927440
vn -0.908492 0.117478 -0.401051
vn -0.908492 0.117478 -0.401051
vn -0.908492 0.117478 -0.401051
vn -0.908492 0.117478 -0.401051
vn -0.908492 0.117478 0.401051
vn -0.908492 0.117478 0.401051
vn -0.908492 0.117478 0.401051
vn -0.908492 0.117478 0.401051
vn -0.360314 0.100146 0.927440
vn -0.360314 0.100146 0.927440
vn -0.360314 0.100146 0.927440
vn -0.360314 0.100146 0.927440
vn 0.360311 0.100145 0.927441
vn 0.360311 0.100145 0.927441
vn 0.360311 0.100145 0.927441
vn 0.360311 0.100145 0.927441
vn 0.908492 0.117477 0.401050
vn 0.908492 0.117477 0.401050
vn 0.908492 0.117477 0.401050
vn 0.908492 0.117477 0.401050
vn 0.908492 0.117477 -0.401050
vn 0.908492 0.117477 -0.401050
vn 0.908492 0.117477 -0.401050
vn 0.908492 0.117477 -0.401050
vn 0.360311 0.100145 -0.927441
vn 0.360311 0.100145 -0.927441
vn 0.360311 0.100145 -0.927441
vn 0.360311 0.100145 -0.927441
vn 0.106193 0.960727 -0.256372
vn 0.106193 0.960727 -0.256372
vn 0.106193 0.960727 -0.256372
vn 0.106193 0.960727 -0.256372
vn -0.106193 0.960727 -0.256372
vn -0.106193 0.960727 -0.256372
vn -0.106193 0.960727 -0.256372
vn -0.106193 0.960727 -0.256372
vn -0.256372 0.960727 -0.106192
vn -0.256372 0.960727 -0.106192
vn -0.256372 0.960727 -0.106192
vn -0.256372 0.960727 -0.106192
vn -0.256372 0.960727 0.106192
vn -0.256372 0.960727 0.106192
vn -0.256372 0.960727 0.106192
vn -0.256372 0.960727 0.106192
vn -0.106193 0.960727 0.256372
vn -0.106193 0.960727 0.256372
vn -0.106193 0.960727 0.256372
vn -0.106193 0.960727 0.256372
vn 0.106192 0.960727 0.256372
vn 0.106192 0.960727 0.256372
vn 0.106192 0.960727 0.256372
vn 0.106192 0.960727 0.256372
vn 0.256372 0.960727 0.106193
vn 0.256372 0.960727 0.106193
vn 0.256372 0.960727 0.106193
vn 0.256372 0.960727 0.106193
vn 0.256372 0.960727 -0.106193
vn 0.256372 0.960727 -0.106193
vn 0.256372 0.960727 -0.106193
vn 0.256372 0.960727 -0.106193
vn 0.382683 0.000000 -0.923880
vn 0.382683 0.000000 -0.923880
vn 0.382683 0.000000 -0.923880
vn 0.382683 0.000000 -0.923880
vn -0.382684 0.000000 -0.923880
vn -0.382684 0.000000 -0.923880
vn -0.382684 0.000000 -0.923880
vn -0.382684 0.000000 -0.923880
vn -0.923880 0.000000 -0.382683
vn -0.923880 0.000000 -0.382683
vn -0.923880 0.000000 -0.382683
vn -0.923880 0.000000 -0.382683
vn -0.923880 0.000000 0.382683
vn -0.923880 0.000000 0.382683
vn -0.923880 0.000000 0.382683
vn -0.923880 0.000000 0.382683
vn -0.382684 0.000000 0.923880
vn -0.382684 0.000000 0.923880
vn -0.382684 0.000000 0.923880
vn -0.382684 0.000000 0.923880
vn 0.382683 0.000000 0.923880
vn 0.382683 0.000000 0.923880
vn 0.382683 0.000000 0.923880
vn 0.382683 0.000000 0.923880
vn 0.923881 0.000000 0.382681
vn 0.923881 0.000000 0.382681
vn 0.923881 0.000000 0.382681
vn 0.923881 0.000000 0.382681
vn 0.923881 0.000000 -0.382681
vn 0.923881 0.000000 -0.382681
vn 0.923881 0.000000 -0.382681
vn 0.923881 0.000000 -0.382681
vn 0.128533 -0.941907 -0.310307
vn 0.128533 -0.941907 -0.310307
vn 0.128533 -0.941907 -0.310307
vn 0.128533 -0.941907 -0.310307
vn -0.128533 -0.941907 -0.310306
vn -0.128533 -0.941907 -0.310306
vn -0.128533 -0.941907 -0.310306
vn -0.128533 -0.941907 -0.310306
vn -0.310306 -0.941907 -0.128533
vn -0.310306 -0.941907 -0.128533
vn -0.310306 -0.941907 -0.128533
vn -0.310306 -0.941907 -0.128533
vn -0.310306 -0.941907 0.128533
vn -0.310306 -0.941907 0.128533
vn -0.310306 -0.941907 0.128533
vn -0.310306 -0.941907 0.128533
vn -0.128533 -0.941908 0.310306
vn -0.128533 -0.941907 0.310306
vn -0.128533 -0.941907 0.310306
vn -0.128533 -0.941907 0.310306
vn 0.128533 -0.941907 0.310306
vn 0.128533 -0.941907 0.310306
vn 0.128533 -0.941907 0.310306
vn 0.128533 -0.941907 0.310306
vn 0.310307 -0.941907 0.128533
vn 0.310307 -0.941907 0.128533
vn 0.310307 -0.941907 0.128533
vn 0.310307 -0.941907 0.128533
vn 0.310306 -0.941907 -0.128533
vn 0.310306 -0.941907 -0.128533
vn 0.310306 -0.941907 -0.128533
vn 0.310306 -0.941907 -0.128533
vn 0.248734 -0.759955 -0.600500
vn 0.248734 -0.759955 -0.600500
vn 0.248734 -0.759955 -0.600500
vn 0.248734 -0.759955 -0.600500
vn 0.600496 -0.759957 -0.248737
vn 0.600496 -0.759957 -0.248737
vn 0.600496 -0.759957 -0.248737
vn 0.600496 -0.759957 -0.248737
vn -0.248736 -0.759954 -0.600500
vn -0.248736 -0.759954 -0.600500
vn -0.248736 -0.759954 -0.600500
vn -0.248736 -0.759954 -0.600500
vn -0.600499 -0.759956 -0.248732
vn -0.600499 -0.759956 -0.248732
vn -0.600499 -0.759956 -0.248732
vn -0.600499 -0.759956 -0.248732
vn -0.600499 -0.759956 0.248732
vn -0.600499 -0.759956 0.248732
vn -0.600499 -0.759956 0.248732
vn -0.600499 -0.759956 0.248732
vn -0.248736 -0.759954 0.600500
vn -0.248736 -0.759954 0.600500
vn -0.248736 -0.759954 0.600500
vn -0.248736 -0.759954 0.600500
vn 0.248734 -0.759955 0.600500
vn 0.248734 -0.759955 0.600500
vn 0.248734 -0.759955 0.600500
vn 0.248734 -0.759955 0.600500
vn 0.600497 -0.759956 0.248738
vn 0.600497 -0.759956 0.248738
vn 0.600497 -0.759956 0.248738
vn 0.600497 -0.759956 0.248738
vn 0.382682 0.000000 -0.923880
vn 0.382682 0.000000 -0.923880
vn 0.382682 0.000000 -0.923880
vn 0.382682 0.000000 -0.923880
vn -0.382684 0.000000 -0.923879
vn -0.382684 0.000000 -0.923879
vn -0.382684 0.000000 -0.923879
vn -0.382684 0.000000 -0.923879
vn -0.923880 0.000000 -0.382682
vn -0.923880 0.000000 -0.382682
vn -0.923880 0.000000 -0.382682
vn -0.923880 0.000000 -0.382682
vn -0.923880 0.000000 0.382681
vn -0.923880 0.000000 0.382681
vn -0.923880 0.000000 0.382681
vn -0.923880 0.000000 0.382681
vn -0.382684 0.000000 0.923880
vn -0.382684 0.000000 0.923880
vn -0.382684 0.000000 0.923880
vn -0.382684 0.000000 0.923880
vn 0.382682 0.000000 0.923880
vn 0.382682 0.000000 0.923880
vn 0.382682 0.000000 0.923880
vn 0.382682 0.000000 0.923880
vn 0.923878 0.000000 0.382688
vn 0.923878 0.000000 0.382688
vn 0.923878 0.000000 0.382688
vn 0.923878 0.000000 0.382688
vn 0.923878 0.000000 -0.382688
vn 0.923878 0.000000 -0.382688
vn 0.923878 0.000000 -0.382688
vn 0.923878 0.000000 -0.382688
vn 0.000000 -1.000000 0.000001
vn -0.000001 -1.000000 0.000001
vn -0.000000 -1.000000 -0.000000
vn 0.000001 -1.000000 0.000001
vn 0.000001 -1.000000 0.000000
vn 0.000001 -1.000000 -0.000001
vn 0.000000 -1.000000 -0.000001
vn -0.000001 -1.000000 -0.000001
vn -0.000001 -1.000000 0.000000
vn -0.153292 0.613655 -0.774551
vn -0.153292 0.613655 -0.774551
vn -0.153292 0.613655 -0.774551
vn -0.153292 0.613655 -0.774551
vn 0.621560 -0.780010 -0.072433
vn 0.607312 -0.791416 -0.069520
vn 0.607312 -0.791416 -0.069520
vn 0.629188 -0.773722 -0.074000
vn -0.397312 0.913667 -0.085766
vn -0.397312 0.913667 -0.085766
vn -0.397312 0.913667 -0.085766
vn -0.397312 0.913667 -0.085766
vn -0.401719 0.883152 -0.242206
vn -0.401719 0.883152 -0.242206
vn -0.401719 0.883152 -0.242206
vn -0.401719 0.883152 -0.242206
vn 0.153290 0.613651 -0.774555
vn 0.153290 0.613651 -0.774555
vn 0.153290 0.613651 -0.774555
vn 0.153290 0.613651 -0.774555
vn -0.607315 -0.791414 -0.069519
vn -0.621563 -0.780008 -0.072432
vn -0.629191 -0.773720 -0.074000
vn -0.607315 -0.791414 -0.069519
vn 0.397311 0.913667 -0.085767
vn 0.397311 0.913667 -0.085767
vn 0.397311 0.913667 -0.085767
vn 0.397311 0.913667 -0.085767
vn 0.401721 0.883152 -0.242204
vn 0.401721 0.883152 -0.242204
vn 0.401721 0.883152 -0.242204
vn 0.401721 0.883152 -0.242204
vn -0.153693 0.614196 0.774043
vn -0.153693 0.614196 0.774043
vn -0.153693 0.614196 0.774043
vn -0.153693 0.614196 0.774043
vn 0.674835 -0.737969 0.000000
vn 0.674835 -0.737969 0.000000
vn 0.674835 -0.737969 0.000000
vn 0.674835 -0.737969 0.000000
vn -0.397312 0.913667 0.085766
vn -0.397312 0.913667 0.085766
vn -0.397312 0.913667 0.085766
vn -0.397312 0.913667 0.085766
vn -0.401720 0.883152 0.242207
vn -0.401720 0.883152 0.242207
vn -0.401720 0.883152 0.242207
vn -0.401720 0.883152 0.242207
vn 0.153692 0.614193 0.774045
vn 0.153692 0.614193 0.774045
vn 0.153692 0.614193 0.774045
vn 0.153692 0.614193 0.774045
vn -0.674838 -0.737966 0.000000
vn -0.674838 -0.737966 0.000000
vn -0.674838 -0.737966 0.000000
vn -0.674838 -0.737966 0.000000
vn 0.397311 0.913667 0.085767
vn 0.397311 0.913668 0.085767
vn 0.397311 0.913668 0.085767
vn 0.397311 0.913667 0.085767
vn 0.401721 0.883152 0.242202
vn 0.401721 0.883153 0.242202
vn 0.401721 0.883153 0.242202
vn 0.401721 0.883152 0.242202
vn -0.998653 -0.051890 0.000000
vn -0.998653 -0.051890 0.000000
vn -0.957689 0.258549 -0.126426
vn -0.981666 0.143351 -0.125627
vn 0.409038 0.016143 -0.912374
vn 0.126735 0.177600 -0.975908
vn 0.832711 -0.295472 -0.468283
vn 0.885567 -0.361382 -0.291846
vn 0.885567 -0.361381 0.291847
vn 0.832711 -0.295472 0.468283
vn 0.385147 0.034964 0.922193
vn 0.115270 0.193588 0.974288
vn -0.385147 0.034965 0.922193
vn -0.115271 0.193588 0.974288
vn -0.832712 -0.295470 0.468283
vn -0.885568 -0.361380 0.291845
vn -0.885568 -0.361379 -0.291845
vn -0.832712 -0.295470 -0.468283
vn -0.409039 0.016143 -0.912374
vn -0.126737 0.177599 -0.975908
vn 0.957690 0.258544 -0.126428
vn 0.981667 0.143345 -0.125629
vn 0.998653 -0.051896 0.000000
vn 0.998653 -0.051896 0.000000
vn -0.167800 0.029218 -0.985388
vn -0.167800 0.029218 -0.985388
vn -0.167843 0.018351 -0.985643
vn -0.167844 0.018176 -0.985646
vn 0.167800 0.029218 -0.985388
vn 0.167800 0.029218 -0.985388
vn 0.167844 0.018176 -0.985646
vn 0.167843 0.018351 -0.985643
vn 0.703533 0.050742 -0.708849
vn 0.703533 0.050742 -0.708849
vn 0.704090 0.031550 -0.709410
vn 0.704078 0.032078 -0.709398
vn 0.703533 0.050742 0.708849
vn 0.703533 0.050742 0.708849
vn 0.704078 0.032078 0.709398
vn 0.704090 0.031550 0.709410
vn 0.167800 0.029218 0.985388
vn 0.167800 0.029218 0.985388
vn 0.167843 0.018352 0.985643
vn 0.167844 0.018176 0.985646
vn -0.167800 0.029218 0.985388
vn -0.167800 0.029218 0.985388
vn -0.167844 0.018176 0.985646
vn -0.167843 0.018352 0.985643
vn -0.703537 0.050743 0.708845
vn -0.703537 0.050743 0.708845
vn -0.704093 0.031550 0.709406
vn -0.704082 0.032078 0.709394
vn -0.703537 0.050743 -0.708845
vn -0.703537 0.050743 -0.708845
vn -0.704082 0.032078 -0.709394
vn -0.704094 0.031550 -0.709406
vn 0.000000 0.310008 -0.950734
vn -0.404796 0.414906 -0.814858
vn 0.000001 1.000000 0.000000
vn 0.404796 0.414907 -0.814857
vn 0.783480 0.621417 0.000001
vn 0.404794 0.414905 0.814859
vn 0.000000 0.310008 0.950734
vn -0.404796 0.414905 0.814858
vn -0.783482 0.621415 0.000000
vn 0.000000 -1.000000 -0.000002
vn 0.000000 -1.000000 0.000000
vn 0.000000 -1.000000 0.000000
vn 0.000000 -1.000000 -0.000002
vn 0.000000 -1.000000 0.000000
vn 0.000000 -1.000000 0.000002
vn 0.000000 -1.000000 0.000000
vn 0.000000 -1.000000 0.000002
vn 0.000000 -1.000000 0.000000
vn -0.704403 0.010852 0.709717
vn -0.704404 0.010805 0.709717
vn -0.704435 0.005334 0.709749
vn -0.704435 0.005340 0.709749
vn -0.167868 0.006234 0.985790
vn -0.167868 0.006218 0.985790
vn -0.167871 0.003069 0.985804
vn -0.167871 0.003071 0.985804
vn 0.167868 0.006218 0.985790
vn 0.167868 0.006234 0.985790
vn 0.167870 0.003071 0.985804
vn 0.167870 0.003069 0.985804
vn 0.704401 0.010805 0.709720
vn 0.704401 0.010852 0.709720
vn 0.704434 0.005340 0.709749
vn 0.704434 0.005334 0.709749
vn 0.704401 0.010852 -0.709719
vn 0.704401 0.010805 -0.709720
vn 0.704434 0.005334 -0.709749
vn 0.704434 0.005340 -0.709749
vn 0.167868 0.006234 -0.985790
vn 0.167868 0.006218 -0.985790
vn 0.167870 0.003069 -0.985804
vn 0.167870 0.003071 -0.985804
vn -0.167868 0.006218 -0.985790
vn -0.167868 0.006234 -0.985790
vn -0.167871 0.003071 -0.985804
vn -0.167871 0.003069 -0.985804
vn -0.704404 0.010805 -0.709717
vn -0.704403 0.010852 -0.709717
vn -0.704435 0.005340 -0.709749
vn -0.704435 0.005334 -0.709749
vn 0.167871 0.002445 0.985806
vn 0.167870 0.002445 0.985806
vn 0.704439 0.004249 0.709752
vn 0.704439 0.004249 0.709752
vn 0.704439 0.004249 -0.709752
vn 0.704439 0.004249 -0.709752
vn 0.167870 0.002445 -0.985806
vn 0.167870 0.002445 -0.985806
vn -0.167871 0.002445 -0.985806
vn -0.167871 0.002445 -0.985806
vn -0.704438 0.004249 -0.709753
vn -0.704438 0.004249 -0.709753
vn -0.704438 0.004249 0.709753
vn -0.704438 0.004249 0.709753
vn -0.167871 0.002445 0.985806
vn -0.167871 0.002445 0.985806
vn -0.311055 0.950392 0.000000
vn -0.311055 0.950392 0.000000
vn -0.314797 0.949063 0.013535
vn -0.314995 0.949007 0.012821
vn 0.314801 0.949061 -0.013535
vn 0.314999 0.949005 -0.012821
vn 0.311059 0.950391 -0.000000
vn 0.311059 0.950391 -0.000000
vn -0.314996 0.949006 -0.012821
vn -0.314797 0.949062 -0.013535
vn 0.314999 0.949005 0.012821
vn 0.314801 0.949061 0.013535
vn -0.674839 -0.737965 0.000000
vn -0.674839 -0.737965 0.000000
vn -0.998653 -0.051890 0.000000
vn -0.961860 0.273541 0.000000
vn -0.815682 0.578501 0.000000
vn -0.231981 0.972720 0.000000
vn -0.231981 0.972720 0.000000
vn 0.231981 0.972720 0.000000
vn 0.231981 0.972720 0.000000
vn 0.961860 0.273541 0.000000
vn 0.815679 0.578505 0.000000
vn 0.998653 -0.051897 0.000000
vn 0.674836 -0.737968 0.000000
vn 0.674836 -0.737968 0.000000
vn 0.648709 -0.757025 -0.078036
vn 0.648709 -0.757025 -0.078036
vn 0.991078 0.049546 -0.123733
vn 0.943969 0.324312 -0.061194
vn 0.816601 0.577151 0.007703
vn 0.232602 0.972572 0.000835
vn 0.232602 0.972572 0.000835
vn -0.232602 0.972572 0.000835
vn -0.232602 0.972572 0.000835
vn -0.816605 0.577146 0.007704
vn -0.943969 0.324312 -0.061192
vn -0.991078 0.049553 -0.123731
vn -0.648713 -0.757022 -0.078037
vn -0.648713 -0.757022 -0.078037
vn -0.324960 0.945427 -0.023854
vn -0.324960 0.945427 -0.023854
vn -0.324960 0.945427 0.023854
vn -0.324960 0.945427 0.023854
vn 0.324963 0.945426 -0.023854
vn 0.324963 0.945426 -0.023854
vn 0.324962 0.945426 0.023854
vn 0.324962 0.945426 0.023854
s 1
g sword_model
usemtl lambert2SG
f 1/1/1 2/2/2 10/3/3 9/4/4
s 2
f 2/2/5 3/5/6 11/6/7 10/3/8
s 3
f 3/5/9 4/7/10 12/8/11 11/6/12
s 4
f 4/9/13 5/10/14 13/11/15 12/12/16
s 5
f 5/10/17 6/13/18 14/14/19 13/11/20
s 6
f 6/13/21 7/21/22 15/22/23 14/14/24
s 7
f 7/21/25 8/23/26 16/29/27 15/22/28
s 8
f 8/15/29 1/1/30 9/4/31 16/16/32
s 1
f 9/4/4 10/3/3 18/17/33 17/18/34
s 2
f 10/3/8 11/6/7 19/19/35 18/17/36
s 3
f 11/6/12 12/8/11 20/20/37 19/19/38
s 4
f 12/12/16 13/11/15 21/30/39 20/31/40
s 5
f 13/11/20 14/14/19 22/72/41 21/30/42
s 6
f 14/14/24 15/22/23 23/73/43 22/72/44
s 7
f 15/22/28 16/29/27 24/74/45 23/73/46
s 8
f 16/16/32 9/4/31 17/18/47 24/24/48
s 1
f 17/18/34 18/17/33 26/25/49 25/26/50
s 2
f 18/17/36 19/19/35 27/27/51 26/25/52
s 3
f 19/19/38 20/20/37 28/28/53 27/27/54
s 4
f 20/31/40 21/30/39 29/75/55 28/76/56
s 5
f 21/30/42 22/72/41 30/77/57 29/75/58
s 6
f 22/72/44 23/73/43 31/78/59 30/77/60
s 7
f 23/73/46 24/74/45 32/79/61 31/78/62
s 8
f 24/24/48 17/18/47 25/26/63 32/32/64
s 9
f 164/33/65 165/34/66 35/35/67 38/36/68
f 165/34/66 166/37/69 54/38/70 35/35/67
f 54/38/70 36/39/71 34/40/72 55/41/73
s 10
f 167/42/74 222/43/75 223/44/76 36/39/77
s 11
f 36/39/78 223/44/79 224/45/80 34/40/81
s 12
f 35/35/82 44/46/83 45/47/84 38/36/85
f 33/48/86 43/49/87 44/46/83 35/35/82
s 13
f 44/46/88 47/50/89 48/51/90 45/47/91
f 43/49/92 46/52/93 47/50/89 44/46/88
s off
f 47/50/94 50/53/95 51/54/96 48/51/97
f 46/52/98 49/55/99 50/53/100 47/50/101
s 9
f 35/35/67 54/38/70 55/41/73 33/48/102
f 166/37/69 167/42/103 36/39/71 54/38/70
s 14
f 158/56/104 59/57/105 56/58/106 157/59/107
f 157/59/107 56/58/106 71/60/108 156/61/109
f 71/60/108 55/41/110 34/40/111 57/62/112
s 15
f 155/63/113 57/62/114 225/64/115 226/65/116
s 16
f 57/62/117 34/40/118 224/45/119 225/64/120
s 17
f 56/58/121 59/57/122 64/66/123 63/67/124
f 33/48/125 56/58/121 63/67/124 43/49/126
s 18
f 63/67/127 64/66/128 66/68/129 65/69/130
f 43/49/131 63/67/127 65/69/130 46/52/132
s off
f 65/69/133 66/68/134 68/70/135 67/71/136
f 46/52/137 65/69/138 67/71/139 49/55/140
s 14
f 56/58/106 33/48/141 55/41/110 71/60/108
f 156/61/109 71/60/108 57/62/112 155/63/142
s 19
f 164/80/143 38/81/144 74/82/145 163/83/146
f 163/83/146 74/82/145 85/84/147 162/85/148
f 85/84/147 86/86/149 73/87/150 75/88/151
s 20
f 217/89/152 161/90/153 75/88/154 216/91/155
s 21
f 75/88/156 73/87/157 215/92/158 216/91/159
s 22
f 74/82/160 38/81/161 45/93/162 78/94/163
f 72/95/164 74/82/160 78/94/163 77/96/165
s 23
f 78/94/166 45/93/167 48/97/168 80/98/169
f 77/96/170 78/94/166 80/98/169 79/99/171
s off
f 80/98/172 48/97/173 51/100/174 82/105/175
f 79/99/176 80/98/177 82/105/178 81/106/179
s 19
f 74/82/145 72/95/180 86/86/149 85/84/147
f 162/85/148 85/84/147 75/88/151 161/90/181
s 24
f 158/107/182 159/113/183 87/114/184 59/115/185
f 159/113/183 160/121/186 95/122/187 87/114/184
f 95/122/187 88/123/188 73/87/189 86/86/190
s 25
f 153/135/191 213/136/192 214/137/193 88/123/194
s 26
f 88/123/195 214/137/196 215/92/197 73/87/198
s 27
f 87/114/199 90/138/200 64/139/201 59/115/202
f 72/95/203 77/96/204 90/138/200 87/114/199
s 28
f 90/138/205 91/140/206 66/162/207 64/139/208
f 77/96/209 79/99/210 91/140/206 90/138/205
s off
f 91/140/211 92/163/212 68/164/213 66/162/214
f 79/99/215 81/106/216 92/163/217 91/140/218
s 24
f 87/114/184 95/122/187 86/86/190 72/95/219
f 160/121/186 153/135/220 88/123/188 95/122/187
s off
f 26/25/221 27/27/222 50/53/223 49/55/224
f 27/27/225 28/28/226 51/54/227 50/53/228
f 28/76/229 29/75/230 82/105/231 51/100/232
f 29/75/233 30/77/234 81/106/235 82/105/236
f 30/77/237 31/78/238 92/163/239 81/106/240
f 31/78/241 32/79/242 68/164/243 92/163/244
f 32/32/245 25/26/246 67/71/247 68/70/248
f 25/26/249 26/25/250 49/55/251 67/71/252
f 2/2/253 1/1/254 96/101/255 97/102/256
f 3/5/257 2/2/258 97/102/259 98/103/260
f 4/7/261 3/5/262 98/103/263 99/104/264
f 5/10/265 4/9/266 99/165/267 100/166/268
f 6/13/269 5/10/270 100/166/271 101/167/272
f 7/21/273 6/13/274 101/167/275 102/168/276
f 8/23/277 7/21/278 102/168/279 103/169/280
f 1/1/281 8/15/282 103/108/283 96/101/284
f 97/102/285 96/101/286 104/109/287 105/110/288
f 98/103/289 97/102/290 105/110/291 106/111/292
f 99/104/293 98/103/294 106/111/295 107/112/296
f 100/166/297 99/165/298 107/170/299 108/171/300
f 101/167/301 100/166/302 108/171/303 109/172/304
f 102/168/305 101/167/306 109/172/307 110/173/308
f 103/169/309 102/168/310 110/173/311 111/174/312
f 96/101/313 103/108/314 111/116/315 104/109/316
f 105/110/317 104/109/318 112/117/319 113/118/320
f 106/111/321 105/110/322 113/118/323 114/119/324
f 107/112/325 106/111/326 114/119/327 115/120/328
f 108/171/329 107/170/330 115/175/331 116/176/332
f 109/172/333 108/171/334 116/176/335 117/177/336
f 110/173/337 109/172/338 117/177/339 118/186/340
f 111/174/341 110/173/342 118/186/343 119/187/344
f 104/109/345 111/116/346 119/124/347 112/117/348
f 121/125/349 122/126/350 124/127/351 123/128/352
f 122/126/353 121/125/354 135/129/355 136/130/356
f 123/128/357 124/127/358 126/131/359 125/132/360
f 125/132/361 126/131/362 128/133/363 127/134/364
f 127/188/365 128/189/366 130/190/367 129/191/368
f 129/191/369 130/190/370 132/200/371 131/201/372
f 131/201/373 132/200/374 134/202/375 133/204/376
f 133/204/377 134/202/378 136/207/379 135/208/380
f 113/118/381 112/117/382 121/125/383 123/128/384
f 114/119/385 113/118/386 123/128/387 125/132/388
f 115/120/389 114/119/390 125/132/391 127/134/392
f 116/176/393 115/175/394 127/188/395 129/191/396
f 117/177/397 116/176/398 129/191/399 131/201/400
f 118/186/401 117/177/402 131/201/403 133/204/404
f 119/187/405 118/186/406 133/204/407 135/208/408
f 112/117/409 119/124/410 135/129/411 121/125/412
s 29
f 124/127/413 122/126/414 120/141/415
f 126/131/416 124/127/413 120/141/415
f 128/133/417 126/131/416 120/141/415
f 130/190/418 128/189/417 120/209/415
f 132/200/419 130/190/418 120/209/415
f 134/202/420 132/200/419 120/209/415
f 136/207/421 134/202/420 120/209/415
f 122/126/414 136/130/421 120/141/415
s off
f 37/142/422 53/143/423 138/144/424 137/145/425
s 30
f 221/146/426 37/142/427 137/145/428 220/147/429
s off
f 52/148/430 39/149/431 141/150/432 140/151/433
f 53/143/434 52/148/435 140/151/436 138/144/437
f 70/152/438 58/153/439 142/154/440 143/155/441
s 31
f 58/153/442 227/156/443 228/157/444 142/154/445
s off
f 60/158/446 69/159/447 145/160/448 146/161/449
f 69/159/450 70/152/451 143/155/452 145/160/453
f 84/210/454 76/211/455 147/229/456 148/230/457
s 32
f 76/211/458 218/231/459 219/232/460 147/229/461
s off
f 39/233/462 83/234/463 149/235/464 141/236/465
f 83/234/466 84/210/467 148/230/468 149/235/469
f 89/237/470 94/238/471 151/239/472 150/240/473
s 33
f 212/241/474 89/237/475 150/240/476 211/242/477
s off
f 93/243/478 60/244/479 146/245/480 152/246/481
f 94/238/482 93/243/483 152/246/484 151/239/485
s 25
f 89/237/486 212/241/487 213/136/192 153/135/191
s 15
f 58/153/488 155/63/113 226/65/116 227/156/489
s 14
f 70/152/490 156/61/109 155/63/142 58/153/491
f 69/159/492 157/59/107 156/61/109 70/152/490
f 60/158/493 158/56/104 157/59/107 69/159/492
s 24
f 60/244/494 93/243/495 159/113/183 158/107/182
f 93/243/495 94/238/496 160/121/186 159/113/183
f 94/238/496 89/237/497 153/135/220 160/121/186
s 19
f 84/210/498 162/85/148 161/90/181 76/211/499
f 83/234/500 163/83/146 162/85/148 84/210/498
f 39/233/501 164/80/143 163/83/146 83/234/500
s 9
f 39/149/502 52/148/503 165/34/66 164/33/65
f 52/148/503 53/143/504 166/37/69 165/34/66
f 53/143/504 37/142/505 167/42/103 166/37/69
s 10
f 37/142/506 221/146/507 222/43/75 167/42/74
s 20
f 76/211/508 161/90/153 217/89/152 218/231/509
s 34
f 169/178/510 170/179/511 200/180/512 201/181/513
s 35
f 170/179/514 171/182/515 199/183/516 200/180/517
s 36
f 171/182/518 172/184/519 198/185/520 199/183/521
s 37
f 172/247/522 173/248/523 197/249/524 198/250/525
s 38
f 173/248/526 174/251/527 196/252/528 197/249/529
s 39
f 174/251/530 175/253/531 195/254/532 196/252/533
s 40
f 175/253/534 176/255/535 202/256/536 195/254/537
s 41
f 176/192/538 169/178/539 201/181/540 202/193/541
s 42
f 170/179/542 169/178/543 185/194/544
f 171/182/545 170/179/542 185/194/544
f 172/184/546 171/182/545 185/194/544
f 173/248/547 172/247/546 185/257/544
f 174/251/548 173/248/547 185/257/544
f 175/253/549 174/251/548 185/257/544
f 176/255/550 175/253/549 185/257/544
f 169/178/543 176/192/550 185/194/544
s 43
f 177/195/551 178/196/552 186/197/553
f 178/196/552 179/198/554 186/197/553
f 179/198/554 180/199/555 186/197/553
f 180/258/555 181/259/556 186/260/553
f 181/259/556 182/261/557 186/260/553
f 182/261/557 183/262/558 186/260/553
f 183/262/558 184/263/559 186/260/553
f 184/203/559 177/195/551 186/197/553
s 40
f 188/264/560 187/265/561 209/266/562 210/267/563
s 39
f 189/268/564 188/264/565 210/267/566 203/269/567
s 38
f 190/270/568 189/268/569 203/269/570 204/271/571
s 37
f 191/272/572 190/270/573 204/271/574 205/273/575
s 36
f 192/205/576 191/206/577 205/212/578 206/213/579
s 35
f 193/214/580 192/205/581 206/213/582 207/215/583
s 34
f 194/216/584 193/214/585 207/215/586 208/217/587
s 41
f 187/218/588 194/216/589 208/217/590 209/219/591
s 39
f 196/252/533 195/254/532 188/264/565 189/268/564
s 38
f 197/249/529 196/252/528 189/268/569 190/270/568
s 37
f 198/250/525 197/249/524 190/270/573 191/272/572
s 36
f 199/183/521 198/185/520 191/206/577 192/205/576
s 35
f 200/180/517 199/183/516 192/205/581 193/214/580
s 34
f 201/181/513 200/180/512 193/214/585 194/216/584
s 41
f 202/193/541 201/181/540 194/216/589 187/218/588
s 40
f 195/254/537 202/256/536 187/265/561 188/264/560
s 38
f 204/271/571 203/269/570 182/261/592 181/259/593
s 37
f 205/273/575 204/271/574 181/259/594 180/258/595
s 36
f 206/213/579 205/212/578 180/199/596 179/198/597
s 35
f 207/215/583 206/213/582 179/198/598 178/196/599
s 34
f 208/217/587 207/215/586 178/196/600 177/195/601
s 41
f 209/219/591 208/217/590 177/195/602 184/203/603
s 40
f 210/267/563 209/266/562 184/263/604 183/262/605
s 39
f 203/269/567 210/267/566 183/262/606 182/261/607
s 44
f 139/274/608 141/236/609 149/235/610 219/232/611
s 45
f 145/160/612 228/157/613 144/220/614 146/161/615
s 44
f 220/147/616 140/151/617 141/150/609 139/221/608
s 45
f 146/245/615 144/275/614 211/242/618 152/246/619
s 33
f 61/276/620 212/241/474 211/242/477 144/275/621
s 25
f 213/136/192 212/241/487 61/276/622 154/277/623
f 214/137/193 213/136/192 154/277/623 62/278/624
s 26
f 215/92/197 214/137/196 62/278/625 42/279/626
s 21
f 216/91/159 215/92/158 42/279/627 41/280/628
s 20
f 168/281/629 217/89/152 216/91/155 41/280/630
f 218/231/509 217/89/152 168/281/629 40/282/631
s 32
f 219/232/460 218/231/459 40/282/632 139/274/633
s 30
f 40/222/634 221/146/426 220/147/429 139/221/635
s 10
f 222/43/75 221/146/507 40/222/636 168/223/637
f 223/44/76 222/43/75 168/223/637 41/224/638
s 11
f 224/45/80 223/44/79 41/224/639 42/225/640
s 16
f 225/64/120 224/45/119 42/225/641 62/226/642
s 15
f 226/65/116 225/64/115 62/226/643 154/227/644
f 227/156/489 226/65/116 154/227/644 61/228/645
s 31
f 228/157/444 227/156/443 61/228/646 144/220/647
s 44
f 219/232/611 149/235/610 148/230/648 147/229/649
f 138/144/650 140/151/617 220/147/616 137/145/651
s 45
f 152/246/619 211/242/618 150/240/652 151/239/653
f 143/155/654 142/154/655 228/157/613 145/160/612
